<?xml version="1.0" standalone="no"?>
<!DOCTYPE svg PUBLIC "-//W3C//DTD SVG 20010904//EN"
 "http://www.w3.org/TR/2001/REC-SVG-20010904/DTD/svg10.dtd">
<svg version="1.0" xmlns="http://www.w3.org/2000/svg"
 width="64.000000pt" height="64.000000pt" viewBox="0 0 64.000000 64.000000"
 preserveAspectRatio="xMidYMid meet">

<g transform="translate(0.000000,64.000000) scale(0.100000,-0.100000)"
fill="#000000" stroke="none">
<path d="M215 564 c-50 -36 -116 -85 -148 -110 l-57 -44 0 -200 0 -201 123 3
122 3 5 88 c4 73 9 91 24 103 28 20 43 18 71 -11 22 -22 25 -32 25 -105 l0
-80 125 0 125 0 0 199 0 199 -33 28 c-56 50 -264 194 -278 194 -8 -1 -54 -30
-104 -66z m244 -90 l121 -87 0 -164 0 -163 -75 0 -75 0 0 60 c0 72 -19 114
-60 135 -37 19 -63 19 -100 0 -41 -21 -60 -63 -60 -135 l0 -60 -75 0 -75 0 0
164 0 164 128 91 c70 50 132 89 139 87 6 -3 66 -44 132 -92z"/>
</g>
</svg>
