<?xml version="1.0" standalone="no"?>
<!DOCTYPE svg PUBLIC "-//W3C//DTD SVG 20010904//EN"
 "http://www.w3.org/TR/2001/REC-SVG-20010904/DTD/svg10.dtd">
<svg version="1.0" xmlns="http://www.w3.org/2000/svg"
 width="1024.000000pt" height="1024.000000pt" viewBox="0 0 1024.000000 1024.000000"
 preserveAspectRatio="xMidYMid meet">

<g transform="translate(0.000000,1024.000000) scale(0.100000,-0.100000)"
fill="#000000" stroke="none">
<path d="M0 9031 c0 -854 4 -1212 11 -1217 8 -4 7 -9 -1 -14 -16 -10 -2 -33
16 -26 8 3 14 1 14 -4 0 -6 -9 -10 -20 -10 -15 0 -20 -7 -20 -24 0 -14 5 -28
11 -32 6 -3 8 -18 5 -33 -4 -17 -3 -21 2 -13 5 8 12 13 16 13 3 0 13 2 22 6
11 4 22 -1 30 -12 8 -10 17 -15 21 -11 4 4 0 12 -10 17 -9 6 -17 15 -17 20 0
6 5 7 10 4 6 -3 10 -2 10 3 0 12 -29 24 -40 17 -4 -3 -10 2 -14 10 -3 8 -10
15 -16 15 -6 0 -6 -7 2 -20 9 -13 19 -18 32 -14 11 4 16 2 12 -4 -3 -5 -15
-12 -26 -15 -15 -4 -20 0 -20 14 0 10 -4 19 -10 19 -5 0 -10 7 -10 16 0 12 7
14 28 10 17 -4 35 -1 47 8 19 14 13 21 -16 18 -3 0 -11 8 -18 20 -10 16 -10
19 1 12 19 -12 50 -16 43 -5 -3 5 0 13 6 17 9 5 10 -1 5 -19 -5 -21 -3 -25 9
-21 13 5 19 30 18 72 -1 6 7 12 16 12 11 1 8 6 -12 21 -15 11 -24 25 -21 30 3
5 15 -2 26 -16 11 -14 24 -22 30 -19 6 4 8 2 4 -4 -9 -15 21 -42 39 -36 8 4
15 14 15 23 1 14 2 14 14 -1 7 -10 21 -18 30 -18 18 0 22 15 6 25 -5 3 -10 11
-10 17 0 7 5 6 15 -2 12 -10 16 -9 21 3 3 9 3 21 -1 27 -3 5 -1 10 4 10 6 0
11 -13 11 -30 0 -16 5 -30 11 -30 5 0 7 -5 4 -10 -9 -15 24 -25 38 -11 9 9 8
11 -7 5 -19 -7 -19 -7 -3 16 9 14 17 29 17 35 0 5 -5 2 -11 -7 -17 -31 -34
-20 -35 21 0 27 3 38 12 34 6 -2 10 -13 7 -24 -6 -22 7 -25 26 -6 9 8 12 8 7
0 -3 -6 0 -14 6 -16 10 -4 10 -7 1 -14 -9 -7 -10 -18 -3 -43 5 -18 7 -44 4
-57 -4 -14 -2 -23 5 -23 6 0 11 5 11 10 0 6 7 10 15 10 8 0 15 -4 15 -8 0 -4
8 -8 19 -8 10 0 17 5 15 11 -3 6 8 16 23 22 22 9 24 11 8 12 -11 0 -28 -6 -39
-14 -21 -16 -49 -6 -60 20 -5 13 0 15 28 10 30 -6 34 -4 40 20 4 14 11 23 16
20 6 -4 7 1 3 11 -6 16 -4 15 19 -2 19 -14 23 -22 16 -32 -8 -9 -7 -11 6 -6
21 8 20 16 -6 38 -19 17 -20 19 -4 28 19 11 36 3 36 -17 0 -22 23 -23 42 -1
17 21 17 21 14 -9 -2 -16 -5 -30 -6 -30 -1 0 -3 -13 -6 -30 -3 -27 -2 -27 6
-7 5 12 16 22 24 22 8 0 18 5 22 12 5 8 2 9 -9 5 -23 -9 -23 32 0 48 16 12 14
13 -12 12 -17 -1 -37 -8 -45 -16 -12 -12 -15 -11 -24 8 -9 21 -40 29 -50 12
-4 -5 -14 -8 -24 -6 -9 2 -21 4 -26 4 -11 1 2 15 15 17 5 1 14 2 19 3 6 0 10
6 10 12 0 8 -6 7 -17 -2 -9 -8 -18 -13 -20 -11 -10 7 -21 0 -26 -18 -3 -11 -2
-18 2 -16 4 3 13 1 21 -5 11 -6 9 -9 -11 -9 -18 0 -28 6 -32 20 -3 11 -1 20 4
20 5 0 9 5 9 11 0 6 -9 8 -21 4 -15 -5 -19 -4 -15 4 4 6 17 11 29 11 13 0 32
7 44 15 20 14 23 13 37 -7 9 -12 16 -19 16 -14 0 5 7 3 15 -4 12 -10 15 -10
15 0 0 9 7 7 20 -5 28 -26 36 -11 11 21 -11 14 -18 30 -15 35 3 5 0 9 -5 9 -6
0 -11 -5 -11 -11 0 -5 -5 -7 -11 -3 -6 3 -15 0 -20 -7 -4 -7 -11 -10 -15 -6
-4 3 -1 13 6 22 11 13 8 15 -19 15 -17 0 -31 4 -31 9 0 5 9 7 20 4 11 -3 20
-1 20 4 0 5 6 10 14 10 7 0 13 -7 12 -15 -2 -22 19 -25 38 -7 19 19 11 42 -9
25 -9 -8 -14 -6 -18 7 -2 10 -8 26 -12 36 -4 10 -3 17 4 17 6 0 10 -3 10 -7
-4 -24 4 -30 36 -27 19 1 37 -2 41 -7 3 -5 10 -6 16 -3 6 4 9 1 6 -7 -3 -8
-15 -13 -26 -13 -26 2 -29 -11 -5 -20 11 -4 22 -1 29 8 6 9 17 16 24 16 10 0
10 -3 0 -15 -10 -12 -10 -15 4 -15 9 0 16 5 16 10 0 6 7 10 15 10 9 0 25 9 37
19 11 11 26 17 34 14 8 -3 14 0 14 6 0 6 -3 11 -8 10 -4 -1 -17 2 -29 6 -32
10 -38 7 -38 -18 0 -12 -7 -23 -16 -25 -40 -8 -4 54 41 71 12 4 12 6 -2 6 -12
1 -15 6 -11 17 5 14 11 11 33 -15 33 -37 42 -40 27 -6 -7 14 -16 25 -20 25 -5
0 -5 5 -2 10 3 6 -4 14 -17 19 -16 7 -18 10 -6 10 9 1 20 -4 23 -9 5 -8 11 -7
20 0 8 7 19 9 24 6 5 -4 18 2 28 12 40 41 63 33 63 -24 0 -13 4 -24 10 -24 9
0 4 65 -7 83 -2 4 3 7 11 7 17 0 17 -1 20 -43 0 -15 6 -31 11 -35 6 -4 15 -16
21 -27 12 -22 44 -33 44 -16 0 6 -7 8 -15 5 -10 -4 -18 3 -26 22 -11 29 -10
41 3 37 4 -2 10 6 13 17 4 11 11 20 16 20 6 0 7 6 2 13 -4 6 -6 20 -5 29 2 12
-2 16 -11 12 -8 -3 -18 -1 -22 5 -8 13 5 37 14 24 3 -4 18 -14 34 -20 16 -8
27 -20 27 -32 0 -23 18 -37 30 -25 5 5 10 20 12 34 2 21 -1 25 -20 22 -13 -1
-30 5 -38 13 -14 14 -11 19 9 16 5 -1 6 3 3 8 -4 5 -1 13 5 17 8 4 7 9 -2 16
-10 7 -5 8 14 3 21 -4 27 -3 21 6 -4 7 -3 9 4 5 6 -3 13 -2 16 3 4 5 20 8 36
6 22 -3 30 0 30 11 0 11 6 13 20 9 23 -7 27 10 4 19 -8 3 -13 10 -10 15 3 5 0
9 -7 8 -44 -1 -60 4 -49 15 8 8 15 8 24 0 8 -7 19 -7 28 -2 8 5 18 6 22 4 14
-9 8 14 -8 30 -8 9 -11 16 -5 16 6 0 15 -9 22 -21 9 -17 17 -20 44 -15 24 5
34 3 39 -9 3 -8 11 -15 18 -14 10 0 10 2 1 6 -17 6 -17 53 0 53 8 0 7 3 -3 10
-13 8 -13 11 2 27 15 14 20 15 30 4 11 -12 10 -13 -6 -7 -19 6 -19 6 -3 -12
15 -17 15 -19 -3 -32 -10 -7 -17 -17 -14 -22 3 -4 12 -1 20 7 9 8 21 15 27 15
7 0 6 -4 -3 -10 -8 -5 -11 -12 -7 -17 16 -15 26 21 11 38 -27 30 -6 43 23 14
8 -9 18 -14 20 -11 8 8 -24 36 -40 36 -27 0 -53 79 -28 88 10 3 12 0 8 -11 -3
-9 1 -21 9 -28 8 -7 12 -19 9 -28 -3 -11 0 -10 12 4 10 11 25 20 33 20 9 0 14
7 12 18 -3 20 8 22 27 5 11 -11 13 -10 7 5 -3 10 -6 20 -6 23 0 2 -6 1 -14 -2
-8 -3 -23 3 -35 12 -15 14 -18 21 -9 31 16 19 2 28 -19 12 -16 -13 -17 -12 -5
3 8 9 10 23 6 29 -4 7 -3 9 4 5 6 -3 16 2 21 13 6 10 17 21 26 25 12 4 14 2 6
-13 -6 -10 -18 -21 -26 -25 -15 -5 -15 -7 -1 -22 19 -18 40 -9 31 14 -5 13 -2
12 14 -2 17 -15 23 -16 36 -6 8 7 15 8 15 2 0 -5 -7 -13 -16 -16 -13 -5 -14
-9 -5 -20 9 -11 8 -15 -6 -21 -17 -6 -17 -7 0 -20 14 -10 15 -14 5 -18 -10 -4
-8 -10 6 -21 11 -9 16 -19 12 -23 -4 -4 -10 -3 -14 2 -8 12 -47 13 -58 3 -4
-5 6 -8 21 -8 23 0 26 -3 17 -12 -10 -10 -17 -10 -32 0 -24 15 -30 15 -30 2 0
-5 7 -10 15 -10 9 0 15 -9 15 -21 0 -21 1 -20 20 4 12 15 27 24 35 20 8 -3 15
0 15 7 0 6 4 8 10 5 5 -3 7 0 4 9 -4 10 2 17 20 22 19 4 26 13 26 30 0 29 -16
32 -25 5 -6 -20 -35 -37 -35 -21 0 6 9 19 20 30 16 16 18 25 10 40 -15 27 -12
36 10 36 22 0 27 -12 8 -19 -10 -3 -8 -9 4 -23 17 -18 18 -17 31 1 9 11 20 16
31 12 10 -4 24 1 36 13 11 11 25 20 30 20 6 0 10 5 10 11 0 6 -7 9 -15 5 -8
-3 -15 -1 -15 4 0 6 9 10 20 10 12 0 20 7 20 17 0 13 3 12 19 -5 11 -14 28
-21 45 -20 32 3 33 9 5 34 -22 19 -22 19 -10 -3 9 -17 9 -23 0 -23 -6 0 -13 9
-16 20 -3 11 -12 20 -20 20 -13 0 -13 2 -2 17 11 13 11 17 1 20 -6 3 -9 9 -6
14 3 6 0 16 -6 24 -10 11 -10 15 -1 15 7 0 9 5 6 10 -3 6 1 10 10 10 9 0 13
-4 10 -10 -3 -5 3 -10 14 -10 21 0 35 -13 24 -24 -3 -3 -12 -1 -20 6 -21 17
-28 1 -13 -27 10 -19 16 -22 22 -13 6 11 8 10 8 0 0 -10 5 -10 22 -1 13 7 18
14 11 16 -7 3 -9 17 -6 40 5 26 3 34 -6 29 -6 -4 -9 -12 -6 -17 3 -5 -1 -6 -9
-3 -19 7 -21 21 -3 27 6 2 9 8 5 12 -4 4 -14 3 -22 -4 -11 -9 -15 -8 -20 5 -5
14 -9 13 -26 -9 -11 -14 -20 -30 -20 -35 0 -5 -8 -16 -17 -23 -16 -13 -17 -12
-4 4 12 15 12 20 -5 33 -18 15 -18 15 4 11 12 -3 22 -1 22 3 0 5 7 16 16 25
12 12 19 13 30 4 10 -8 15 -5 20 15 3 14 10 23 15 21 4 -3 6 -12 2 -20 -3 -8
0 -15 6 -15 6 0 11 7 11 15 0 8 5 15 10 15 13 0 13 -17 0 -25 -7 -4 -5 -14 5
-28 8 -12 15 -33 15 -47 l1 -25 20 24 c11 13 23 20 27 16 4 -4 1 -10 -5 -12
-20 -7 -15 -23 7 -23 22 0 18 21 -9 54 -15 18 -15 19 1 13 13 -4 15 -2 11 11
-4 9 -11 20 -17 24 -13 9 -8 13 24 23 23 7 24 6 10 -10 -12 -15 -12 -18 3 -27
10 -5 15 -13 12 -19 -3 -5 0 -6 8 -3 8 3 22 -2 31 -12 16 -15 16 -17 -1 -30
-10 -7 -13 -14 -7 -14 5 0 20 9 33 21 14 14 31 19 47 16 13 -2 24 -1 24 4 0
12 -24 17 -47 8 -15 -6 -25 -3 -35 8 -11 15 -10 16 10 10 15 -3 29 0 40 11 10
10 26 16 37 14 17 -3 17 -1 5 7 -11 8 -12 11 -2 11 7 0 10 5 7 10 -3 6 -1 10
6 10 7 0 9 3 6 6 -4 4 -17 0 -29 -8 -13 -8 -29 -13 -35 -11 -16 6 -17 33 -2
33 8 0 8 4 -1 14 -6 8 -18 12 -27 9 -11 -4 -14 1 -11 23 2 17 8 28 16 26 6 -1
12 6 13 15 0 13 3 12 10 -6 6 -15 6 -28 -1 -36 -8 -9 1 -12 40 -12 31 1 49 5
47 11 -2 6 -12 10 -22 8 -9 -2 -15 2 -13 8 2 6 8 11 13 11 6 0 17 7 26 15 15
13 17 13 22 -1 4 -8 1 -15 -5 -15 -6 0 0 -10 13 -23 15 -14 27 -19 32 -12 4 6
11 5 17 -5 15 -23 12 -32 -10 -25 -13 4 -23 0 -32 -14 -7 -12 -18 -21 -24 -21
-7 0 -14 -7 -17 -14 -4 -11 -1 -13 10 -9 13 5 15 2 10 -11 -4 -10 -3 -15 3
-11 6 3 10 13 10 21 0 8 5 14 10 14 6 0 10 9 10 20 0 11 5 20 10 20 6 0 10 -3
10 -7 0 -5 11 -8 25 -8 22 0 23 2 11 20 -25 39 -27 70 -5 93 21 23 39 29 39
12 0 -20 15 -9 32 24 12 26 14 36 5 45 -9 9 -9 14 2 20 8 6 11 16 6 31 -6 19
-4 22 9 17 9 -4 21 2 31 16 14 19 17 20 28 6 7 -8 22 -15 35 -15 20 0 21 2 8
11 -11 9 -12 15 -4 23 8 8 8 15 -2 27 -7 9 -8 15 -2 15 13 0 37 -68 33 -92 -1
-10 2 -18 7 -18 12 0 10 -63 -3 -72 -16 -12 11 -32 32 -23 16 7 16 9 1 12 -13
3 -15 10 -8 33 4 16 6 31 4 33 -3 2 2 7 10 10 9 4 22 -3 30 -15 20 -28 29 -19
13 12 -10 19 -19 24 -39 22 -31 -4 -45 13 -22 26 15 8 14 11 -7 17 l-24 8 23
8 c12 5 25 7 28 6 3 -1 10 6 15 16 6 9 17 17 24 17 8 0 15 5 15 10 0 15 -16
12 -30 -5 -15 -19 -23 -14 -14 9 8 22 41 20 54 -3 22 -42 88 -32 75 10 -8 25
7 24 22 -1 8 -12 9 -21 3 -25 -6 -3 -10 -12 -10 -18 0 -7 4 -6 10 3 5 8 10 10
10 4 0 -6 11 -11 25 -11 14 0 24 2 21 5 -9 9 23 45 51 59 16 7 20 11 11 8 -20
-5 -22 3 -8 25 6 10 10 11 10 3 0 -7 11 -13 25 -13 14 0 25 5 25 11 0 6 -8 8
-19 4 -11 -3 -22 -1 -26 5 -11 17 -31 11 -32 -11 -2 -26 -22 -51 -35 -43 -5 3
-8 -2 -6 -11 2 -12 -5 -19 -21 -22 -24 -3 -24 -3 -6 17 15 16 16 22 5 35 -7 9
-15 13 -18 10 -3 -2 1 -11 7 -19 7 -8 8 -17 3 -20 -6 -3 -18 6 -27 20 -14 22
-15 28 -4 35 12 7 12 9 0 9 -11 0 -11 3 -1 15 11 13 14 13 26 -2 11 -14 14
-14 12 -3 -2 9 4 14 15 14 12 -1 17 6 17 23 0 22 2 24 15 13 12 -10 15 -10 15
4 0 11 9 16 31 16 21 0 28 -4 24 -12 -4 -7 6 1 21 18 29 31 54 35 54 8 0 -8
-9 -14 -20 -14 -14 0 -20 -7 -20 -22 0 -21 0 -21 14 -2 15 19 15 19 29 -1 9
-11 13 -23 11 -26 -5 -8 37 -20 48 -13 4 3 2 14 -5 24 -9 15 -9 25 -1 38 6 9
9 23 6 30 -3 9 -8 6 -16 -10 -8 -14 -10 -32 -4 -46 6 -18 5 -22 -4 -19 -7 2
-12 10 -10 16 1 7 -2 10 -7 7 -5 -3 -11 1 -15 9 -3 8 -2 15 3 15 4 0 6 18 4
40 -2 23 0 40 6 40 6 0 8 7 5 15 -4 8 -3 27 1 43 l7 27 12 -24 c8 -13 15 -20
17 -15 6 13 64 44 82 44 10 0 13 -7 10 -21 -3 -12 0 -25 7 -29 7 -4 9 -13 6
-19 -11 -17 -29 -13 -22 4 3 8 1 15 -4 15 -5 0 -7 9 -5 19 3 14 -1 18 -11 14
-8 -3 -14 -15 -15 -27 0 -17 -2 -18 -7 -4 -8 20 -26 11 -28 -14 -1 -14 4 -16
27 -11 29 5 41 -10 17 -21 -7 -3 -1 -3 15 0 20 5 27 2 27 -10 0 -9 4 -16 10
-16 5 0 7 8 3 18 -5 14 -4 15 8 4 11 -10 11 -16 1 -33 -8 -12 -11 -24 -8 -27
3 -3 6 0 6 7 0 7 11 0 24 -14 23 -24 25 -25 35 -8 9 15 12 15 20 4 5 -8 11 -9
15 -3 3 5 -1 13 -10 16 -8 3 -12 11 -9 17 5 7 14 4 28 -8 15 -12 18 -13 9 -2
-6 9 -8 20 -4 24 4 5 1 4 -7 0 -11 -6 -13 -4 -8 11 7 18 6 18 -8 -1 -12 -15
-18 -17 -24 -7 -8 14 -23 2 -34 -28 -3 -8 -5 3 -4 24 0 22 -5 42 -11 44 -7 2
-12 12 -12 23 0 12 5 16 15 13 8 -4 12 -10 9 -15 -3 -5 0 -9 6 -9 7 0 10 -7 6
-15 -3 -8 -1 -15 4 -15 6 0 10 12 10 28 -1 34 -24 79 -34 63 -4 -6 -12 -11
-17 -11 -6 0 -7 5 -4 10 4 6 2 17 -4 24 -9 11 -6 14 14 14 14 0 22 -5 18 -11
-3 -6 -1 -7 5 -3 7 4 12 1 12 -8 0 -9 6 -16 13 -16 9 0 13 -13 12 -39 -1 -37
0 -39 19 -28 19 10 19 12 4 15 -10 2 -18 8 -18 13 0 6 4 8 9 4 7 -4 8 36 2 64
-1 2 -8 -2 -16 -9 -12 -10 -15 -9 -15 4 0 9 -7 19 -17 23 -13 5 -12 8 8 15 21
8 22 11 9 21 -20 16 -24 38 -6 31 20 -8 29 -35 16 -48 -15 -15 -12 -26 7 -26
9 0 14 3 10 6 -3 3 -2 17 3 30 8 19 6 28 -9 41 -18 15 -18 18 -4 40 8 12 20
23 27 23 6 0 4 -5 -4 -10 -12 -7 -13 -15 -3 -40 7 -17 10 -37 7 -45 -3 -7 -1
-16 5 -19 6 -4 8 -14 5 -24 -5 -13 -4 -14 4 -3 15 20 21 -7 10 -41 -6 -15 -8
-33 -5 -40 3 -7 6 -2 6 11 1 24 1 24 16 5 11 -13 14 -14 13 -4 -2 8 -7 18 -13
22 -12 8 -7 13 23 22 20 7 21 5 12 -19 -10 -25 -9 -26 12 -11 25 18 42 21 34
7 -6 -10 24 -25 32 -16 3 3 0 5 -6 5 -7 0 -12 10 -12 23 0 22 0 22 20 -3 19
-24 19 -24 13 -2 -4 17 -2 21 9 17 8 -3 21 1 28 10 15 18 11 19 -26 5 -23 -9
-29 -7 -41 10 -10 15 -18 18 -27 11 -17 -14 -36 20 -29 49 4 16 3 21 -5 16
-16 -9 -15 -5 4 33 9 17 20 28 26 25 7 -4 8 -2 4 4 -4 7 -2 12 4 12 6 0 9 4 5
9 -3 5 0 13 6 17 9 5 10 -1 5 -20 -5 -21 -4 -26 6 -20 10 6 10 4 0 -8 -8 -9
-19 -15 -26 -12 -8 3 -16 -1 -19 -9 -4 -11 4 -13 34 -11 28 2 39 -1 39 -11 0
-7 -8 -12 -17 -10 -10 1 -13 0 -6 -2 7 -2 18 -20 25 -39 12 -35 28 -46 28 -19
0 9 7 13 18 9 9 -2 7 1 -6 7 -15 8 -21 18 -16 28 3 9 7 22 7 29 0 6 5 12 10
12 5 0 6 -11 3 -25 -4 -14 -2 -25 4 -25 5 0 11 6 12 13 0 6 2 17 3 22 2 6 3
17 4 25 1 13 3 13 10 1 7 -11 11 -5 16 22 6 33 9 36 23 25 9 -7 13 -8 9 -2 -3
6 1 20 9 30 14 18 15 17 9 -10 -6 -27 -5 -28 11 -15 16 12 17 12 11 -3 -8 -22
29 -69 48 -61 8 3 15 12 15 20 0 8 4 11 10 8 6 -3 7 1 4 9 -3 9 -10 16 -16 16
-5 0 -7 4 -3 10 8 13 33 1 38 -18 4 -16 5 -16 11 -1 5 11 -3 26 -24 48 -35 34
-45 39 -36 16 3 -10 -1 -15 -12 -15 -11 0 -13 -3 -5 -8 6 -4 15 -20 18 -35 8
-31 -13 -38 -35 -12 -7 9 -8 15 -2 15 6 0 9 8 7 18 -1 9 2 22 6 28 6 8 0 11
-18 11 -16 0 -36 3 -45 7 -14 7 -18 3 -19 -15 0 -22 -1 -22 -8 -4 -11 28 12
49 38 35 31 -16 46 -13 30 7 -13 17 -12 17 14 0 15 -10 27 -13 27 -7 0 6 5 8
10 5 6 -3 10 3 10 14 0 19 -15 35 -32 36 -5 0 -8 3 -8 8 0 12 14 8 33 -8 10
-9 22 -13 27 -10 6 4 7 -3 1 -18 -6 -15 -6 -29 1 -38 8 -11 9 -10 4 4 -3 11
-2 16 4 12 6 -3 10 -15 10 -26 0 -13 -4 -18 -12 -13 -7 4 -8 3 -4 -5 9 -14 26
-5 26 13 0 8 11 14 26 14 l25 0 -20 -20 c-27 -24 -27 -25 8 -24 18 1 27 5 24
14 -3 6 -1 12 3 13 66 6 69 5 67 -40 -1 -8 3 -9 8 -4 5 5 5 22 0 41 -10 35 -3
46 19 30 12 -8 11 -9 -5 -4 -14 5 -12 0 10 -18 34 -29 41 -31 51 -14 4 6 3 9
-2 5 -5 -3 -18 1 -29 9 -10 8 -15 14 -11 14 5 0 3 7 -4 15 -7 8 -23 15 -37 15
-20 0 -23 -4 -18 -20 5 -15 2 -20 -10 -20 -11 0 -15 5 -11 16 3 8 2 13 -3 10
-4 -3 -8 12 -8 34 0 30 4 41 18 45 11 4 19 11 19 16 0 13 34 11 47 -2 7 -7 13
-8 17 0 8 13 -34 79 -54 85 -11 3 -10 4 3 5 10 0 20 -6 23 -14 4 -8 12 -15 20
-15 8 0 11 -6 7 -17 -4 -10 -2 -14 4 -10 6 4 13 2 15 -5 6 -17 38 -19 38 -2 0
9 5 12 11 9 6 -4 8 -13 5 -21 -3 -7 -1 -16 5 -20 17 -10 18 -1 4 39 -7 20 -9
37 -4 37 5 0 9 -7 9 -15 0 -12 7 -14 28 -9 15 4 30 12 34 18 4 6 8 0 8 -13 0
-13 -3 -21 -7 -18 -4 4 -13 -11 -21 -34 -10 -30 -11 -44 -3 -52 11 -11 16 1
12 30 -1 7 5 10 13 7 11 -4 13 0 9 18 -6 20 -4 21 9 10 14 -11 16 -10 13 10
-1 13 -6 32 -11 42 -5 14 -4 17 4 12 7 -4 12 -14 12 -21 0 -9 6 -12 16 -8 9 3
12 8 5 12 -5 4 -8 15 -6 26 2 11 4 27 4 34 1 11 4 12 12 4 6 -6 19 -9 28 -6
10 4 7 -2 -8 -17 -21 -21 -22 -24 -7 -35 9 -7 16 -18 16 -26 1 -9 6 -7 16 6
13 17 16 18 24 5 7 -11 10 -11 10 -2 0 7 5 10 10 7 6 -3 10 4 10 16 0 22 0 22
-16 3 -15 -19 -15 -18 -11 4 6 27 -9 29 -18 2 -7 -22 -13 -24 -35 -10 -10 6
-11 10 -2 10 6 0 21 9 32 20 21 21 46 28 34 9 -4 -7 -1 -10 7 -7 8 3 15 13 15
24 1 10 2 24 3 31 1 7 12 9 30 7 16 -3 32 0 36 6 4 6 3 10 -2 9 -21 -4 -32 3
-38 20 -5 16 -15 20 -48 19 -23 0 -50 -4 -59 -9 -10 -6 -19 -5 -23 1 -3 5 -11
10 -16 10 -6 0 -7 -4 -4 -10 3 -5 -1 -10 -9 -10 -9 0 -16 4 -16 10 0 6 -690
10 -1955 10 l-1955 0 0 -1209z m3855 1189 c3 -5 2 -10 -4 -10 -5 0 -13 5 -16
10 -3 6 -2 10 4 10 5 0 13 -4 16 -10z m28 -15 c-3 -9 -8 -14 -10 -11 -3 3 -2
9 2 15 9 16 15 13 8 -4z m122 4 c-4 -5 1 -12 9 -15 9 -3 13 -10 10 -15 -3 -5
-10 -6 -16 -3 -7 5 -9 1 -5 -9 8 -20 -4 -29 -23 -16 -13 8 -12 11 3 20 17 10
17 12 3 28 -14 15 -13 17 5 18 10 1 17 -2 14 -8z m45 -11 c0 -12 -1 -19 -3
-17 -1 2 -9 12 -16 22 -12 14 -11 17 3 17 10 0 16 -8 16 -22z m-473 6 c-3 -3
-12 -4 -19 -1 -8 3 -5 6 6 6 11 1 17 -2 13 -5z m374 -7 c-6 -8 -7 -18 -3 -23
4 -5 -4 0 -18 11 -14 11 -27 21 -29 22 -2 2 10 3 29 3 26 0 30 -3 21 -13z
m129 3 c0 -5 -2 -10 -4 -10 -3 0 -8 5 -11 10 -3 6 -1 10 4 10 6 0 11 -4 11
-10z m-234 -12 c4 -7 4 -10 -1 -6 -4 4 -15 2 -24 -5 -14 -11 -14 -10 -2 6 16
20 18 21 27 5z m-109 -4 c-3 -3 -12 -4 -19 -1 -8 3 -5 6 6 6 11 1 17 -2 13 -5z
m42 -55 c-8 -17 -14 -20 -17 -10 -4 11 -6 11 -12 1 -6 -10 -12 -9 -26 4 -16
17 -16 18 17 15 29 -3 34 -1 31 16 -3 15 -1 17 8 9 9 -9 9 -17 -1 -35z m94 0
c10 0 -47 -26 -64 -28 -8 -1 -4 37 4 45 4 4 7 0 7 -9 0 -27 17 -20 26 11 7 25
8 26 11 5 3 -13 10 -23 16 -24z m57 20 c0 -14 -16 -11 -29 5 -10 12 -8 13 8 9
12 -3 21 -9 21 -14z m-266 -4 c-4 -8 -11 -15 -16 -15 -6 0 -5 6 2 15 7 8 14
15 16 15 2 0 1 -7 -2 -15z m-177 -1 c-3 -3 -12 -4 -19 -1 -8 3 -5 6 6 6 11 1
17 -2 13 -5z m428 -22 c-3 -3 -11 0 -18 7 -9 10 -8 11 6 5 10 -3 15 -9 12 -12z
m-287 -17 c-3 -3 -9 2 -12 12 -6 14 -5 15 5 6 7 -7 10 -15 7 -18z m-343 -15
c-3 -6 9 -24 27 -40 18 -17 29 -30 24 -30 -15 0 -67 60 -61 70 3 6 8 10 11 10
3 0 2 -5 -1 -10z m185 0 c0 -5 -5 -10 -11 -10 -5 0 -7 5 -4 10 3 6 8 10 11 10
2 0 4 -4 4 -10z m30 6 c0 -3 -4 -8 -10 -11 -5 -3 -10 -1 -10 4 0 6 5 11 10 11
6 0 10 -2 10 -4z m286 -13 c-2 -9 -8 -18 -15 -19 -6 -1 -7 0 -2 2 6 3 7 12 4
20 -3 8 -1 14 5 14 6 0 9 -8 8 -17z m-172 -25 c-3 -4 -1 -8 3 -8 5 0 9 -9 10
-19 1 -13 -3 -18 -11 -15 -19 7 -28 -22 -11 -36 14 -12 9 -44 -6 -35 -4 3 -6
11 -3 19 3 7 -7 18 -21 24 -37 17 -31 1 16 -42 22 -21 38 -41 35 -44 -3 -3
-14 2 -24 12 -11 9 -25 15 -33 13 -8 -2 -11 -2 -7 0 10 6 -3 36 -20 49 -11 8
-12 13 -3 18 8 5 7 12 -4 23 -9 8 -13 18 -9 22 3 3 13 -4 21 -16 15 -22 42
-31 44 -15 0 4 2 17 5 29 2 12 -1 25 -6 28 -6 3 -10 10 -10 16 0 5 9 4 19 -3
11 -7 17 -16 15 -20z m-228 -15 c-8 -8 -36 5 -36 17 0 7 6 7 21 0 11 -7 18
-14 15 -17z m64 11 c-15 -17 -30 -18 -30 -1 0 7 9 13 21 14 17 2 18 -1 9 -13z
m80 10 c0 -8 -19 -13 -24 -6 -3 5 1 9 9 9 8 0 15 -2 15 -3z m152 -3 c10 6 18
6 18 0 0 -12 -29 -23 -41 -15 -5 3 -9 -2 -9 -11 0 -9 -4 -14 -9 -11 -5 3 -7
15 -4 27 4 14 9 17 16 10 7 -7 16 -7 29 0z m-173 -34 c0 -9 -2 -9 -5 0 -4 8
-13 9 -30 3 -13 -5 -24 -7 -24 -4 0 7 44 22 53 17 4 -2 7 -10 6 -16z m-78 -19
c8 -15 8 -18 0 -14 -6 4 -16 16 -22 28 -8 15 -8 18 0 14 6 -4 16 -16 22 -28z
m149 22 c0 -5 -4 -10 -10 -10 -5 0 -10 5 -10 10 0 6 5 10 10 10 6 0 10 -4 10
-10z m-410 -24 c0 -2 -8 -10 -17 -17 -16 -13 -17 -12 -4 4 13 16 21 21 21 13z
m94 -11 c-4 -8 -8 -15 -10 -15 -2 0 -4 7 -4 15 0 8 4 15 10 15 5 0 7 -7 4 -15z
m-79 -15 c-3 -5 -12 -10 -18 -10 -7 0 -6 4 3 10 19 12 23 12 15 0z m109 -6 c3
-8 2 -12 -4 -9 -6 3 -10 10 -10 16 0 14 7 11 14 -7z m-369 -4 c3 -5 1 -10 -4
-10 -6 0 -11 5 -11 10 0 6 2 10 4 10 3 0 8 -4 11 -10z m300 0 c3 -5 1 -10 -4
-10 -6 0 -11 5 -11 10 0 6 2 10 4 10 3 0 8 -4 11 -10z m209 -2 c-6 -9 -44 -6
-44 3 0 4 11 6 24 5 13 0 22 -4 20 -8z m-54 -18 c0 -5 -5 -10 -11 -10 -5 0 -7
5 -4 10 3 6 8 10 11 10 2 0 4 -4 4 -10z m100 0 c0 -5 -4 -10 -10 -10 -5 0 -10
5 -10 10 0 6 5 10 10 10 6 0 10 -4 10 -10z m-346 -12 c-3 -4 -11 -5 -19 -1
-21 7 -19 12 4 10 11 0 18 -5 15 -9z m281 2 c3 -5 1 -10 -4 -10 -6 0 -11 5
-11 10 0 6 2 10 4 10 3 0 8 -4 11 -10z m-135 -7 c0 -10 -50 -58 -50 -48 0 3 8
17 18 30 17 24 32 32 32 18z m45 -12 c3 -6 -4 -9 -15 -8 -11 1 -20 5 -20 9 0
11 28 10 35 -1z m-542 -16 c-3 -9 -8 -14 -10 -11 -3 3 -2 9 2 15 9 16 15 13 8
-4z m303 -10 c-9 -9 -16 -13 -16 -8 0 12 22 34 28 28 2 -2 -3 -11 -12 -20z
m111 19 c-3 -3 -12 -4 -19 -1 -8 3 -5 6 6 6 11 1 17 -2 13 -5z m103 -25 c0 6
5 11 11 11 8 0 8 -4 0 -14 -9 -10 -9 -16 -1 -21 7 -4 14 2 17 14 5 21 14 26
26 15 4 -4 -3 -16 -16 -27 l-22 -19 23 6 c23 8 28 0 14 -21 -6 -9 -18 -3 -45
21 -35 31 -54 63 -22 36 10 -9 15 -9 15 -1z m-374 -26 c-10 -10 -19 5 -10 18
6 11 8 11 12 0 2 -7 1 -15 -2 -18z m104 23 c0 -3 -4 -8 -10 -11 -5 -3 -10 -1
-10 4 0 6 5 11 10 11 6 0 10 -2 10 -4z m132 -38 c-6 -6 -7 0 -4 19 5 21 7 23
10 9 2 -10 0 -22 -6 -28z m-130 0 c-7 -7 -16 -7 -28 0 -14 8 -13 10 10 10 18
0 24 -4 18 -10z m162 -7 c-10 -10 -21 -16 -24 -14 -3 3 4 11 14 19 28 20 33
17 10 -5z m-368 -13 c-3 -13 -5 -25 -6 -28 -1 -3 -2 -14 -1 -25 l1 -20 -9 20
c-4 11 -4 32 1 48 12 33 19 36 14 5z m-232 -3 c3 -8 1 -15 -4 -15 -6 0 -10 7
-10 15 0 8 2 15 4 15 2 0 6 -7 10 -15z m356 -15 c-14 -11 -29 -20 -35 -20 -5
0 4 9 20 20 38 25 48 25 15 0z m350 10 c19 12 30 12 30 0 0 -5 -11 -12 -23
-16 -19 -4 -23 -11 -20 -29 3 -12 0 -25 -5 -29 -6 -4 -9 8 -7 30 3 27 0 34
-10 30 -9 -3 -12 0 -8 10 3 10 9 11 17 5 7 -6 17 -6 26 -1z m-150 -4 c0 -11
-19 -15 -25 -6 -3 5 1 10 9 10 9 0 16 -2 16 -4z m-363 -28 c-3 -8 -6 -5 -6 6
-1 11 2 17 5 13 3 -3 4 -12 1 -19z m203 13 c0 -6 -4 -12 -8 -15 -5 -3 -9 1 -9
9 0 8 4 15 9 15 4 0 8 -4 8 -9z m30 -16 c0 -8 -2 -15 -4 -15 -2 0 -6 7 -10 15
-3 8 -1 15 4 15 6 0 10 -7 10 -15z m-127 -8 c3 -7 -3 -13 -14 -14 -15 -1 -16
1 -6 12 15 18 14 18 20 2z m251 -3 c3 -7 -2 -10 -15 -7 -22 6 -26 20 -4 20 8
0 16 -6 19 -13z m-544 2 c0 -3 -4 -8 -10 -11 -5 -3 -10 -1 -10 4 0 6 5 11 10
11 6 0 10 -2 10 -4z m360 -6 c0 -5 12 -21 26 -35 14 -14 25 -27 23 -29 -6 -4
-50 21 -50 28 3 21 -1 28 -21 36 l-23 9 23 0 c12 1 22 -3 22 -9z m69 -33 c0
-9 -2 -9 -6 1 -2 6 -8 10 -13 7 -4 -3 -11 2 -14 10 -4 13 -2 14 14 5 11 -6 20
-16 19 -23z m-171 -14 c-18 -17 -54 -11 -42 8 4 8 9 7 16 -2 7 -12 11 -11 21
3 6 9 13 15 16 12 3 -2 -2 -12 -11 -21z m52 -11 c-6 -2 -7 -15 -4 -28 4 -15 2
-24 -6 -24 -7 0 -10 6 -7 13 6 15 -25 19 -34 5 -3 -5 -9 -3 -12 6 -5 12 0 16
19 16 18 0 28 7 31 21 4 16 8 17 14 7 5 -7 4 -14 -1 -16z m260 19 c0 -5 -5
-11 -12 -13 -8 -3 -8 -9 1 -24 12 -18 12 -18 7 0 -6 16 -4 17 9 6 15 -12 15
-14 -1 -23 -13 -7 -21 -4 -35 14 -23 30 -23 36 -1 42 28 8 32 7 32 -2z m-645
-11 c3 -6 -1 -7 -9 -4 -18 7 -21 14 -7 14 6 0 13 -4 16 -10z m-155 -10 c0 -5
-5 -10 -11 -10 -5 0 -7 5 -4 10 3 6 8 10 11 10 2 0 4 -4 4 -10z m357 -32 c-3
-8 -6 -5 -6 6 -1 11 2 17 5 13 3 -3 4 -12 1 -19z m239 7 c-8 -8 -18 -15 -22
-15 -3 0 -1 7 6 15 7 8 17 15 22 15 5 0 3 -7 -6 -15z m255 -18 c-11 -12 -23
-19 -25 -16 -9 9 25 50 36 43 6 -4 2 -14 -11 -27z m-554 8 c0 -8 -4 -12 -9 -9
-5 3 -6 10 -3 15 9 13 12 11 12 -6z m128 5 c3 -6 -1 -7 -9 -4 -18 7 -21 14 -7
14 6 0 13 -4 16 -10z m-275 -10 c0 -5 7 -10 15 -10 8 0 15 -7 15 -15 0 -11 -6
-10 -25 7 -28 24 -30 28 -15 28 6 0 10 -4 10 -10z m-40 -20 c0 -5 -4 -10 -10
-10 -5 0 -10 5 -10 10 0 6 5 10 10 10 6 0 10 -4 10 -10z m246 -36 c-3 -8 -10
-14 -16 -14 -7 0 -8 5 -3 13 4 6 6 21 5 32 -2 19 -2 19 9 2 6 -10 8 -25 5 -33z
m54 26 c0 -10 -10 -24 -22 -30 -21 -10 -21 -10 -5 3 10 8 17 19 16 23 -2 13 0
24 6 24 3 0 5 -9 5 -20z m-105 0 c-3 -5 2 -10 11 -10 10 0 15 -3 11 -6 -10
-10 -39 5 -32 16 3 5 8 10 11 10 3 0 2 -4 -1 -10z m148 -15 c-3 -8 0 -15 6
-15 6 0 11 -7 11 -16 0 -14 -2 -14 -15 0 -16 16 -21 61 -5 51 5 -3 7 -12 3
-20z m-202 -8 c-1 -12 -15 -9 -19 4 -3 6 1 10 8 8 6 -3 11 -8 11 -12z m-96
-35 c-5 -5 -45 22 -45 31 0 4 11 0 24 -10 13 -10 23 -19 21 -21z m62 6 c-3 -8
-6 -5 -6 6 -1 11 2 17 5 13 3 -3 4 -12 1 -19z m124 -42 c15 -17 10 -28 -6 -13
-8 9 -20 17 -27 19 -10 4 -10 9 2 23 14 17 15 17 18 -1 2 -10 8 -23 13 -28z
m29 28 c0 -2 -7 -4 -15 -4 -8 0 -15 4 -15 10 0 5 7 7 15 4 8 -4 15 -8 15 -10z
m75 5 c11 -17 -1 -21 -15 -4 -8 9 -8 15 -2 15 6 0 14 -5 17 -11z m-468 -31
c-3 -7 -5 -2 -5 12 0 14 2 19 5 13 2 -7 2 -19 0 -25z m53 11 c0 -5 -4 -9 -8
-9 -5 0 -9 7 -9 15 0 8 4 12 9 9 4 -3 8 -9 8 -15z m34 5 c3 -8 2 -12 -4 -9 -6
3 -10 10 -10 16 0 14 7 11 14 -7z m130 8 c3 -5 -1 -9 -9 -9 -8 0 -15 4 -15 9
0 4 4 8 9 8 6 0 12 -4 15 -8z m92 -16 c2 -11 1 -12 -3 -2 -2 9 -11 12 -20 9
-11 -4 -14 -3 -9 6 10 16 31 8 32 -13z m-426 -1 c-7 -8 -17 -15 -22 -15 -11 0
14 29 26 30 5 0 3 -7 -4 -15z m565 5 c4 -6 -1 -7 -11 -3 -14 5 -16 2 -12 -15
4 -13 0 -26 -10 -34 -13 -11 -15 -10 -9 12 4 14 7 31 7 38 0 14 26 16 35 2z
m-500 -10 c3 -6 -1 -7 -9 -4 -18 7 -21 14 -7 14 6 0 13 -4 16 -10z m175 -25
c0 -5 -5 -3 -10 5 -5 8 -10 20 -10 25 0 6 5 3 10 -5 5 -8 10 -19 10 -25z m270
25 c0 -5 -2 -10 -4 -10 -3 0 -8 5 -11 10 -3 6 -1 10 4 10 6 0 11 -4 11 -10z
m-640 -4 c0 -3 -4 -8 -10 -11 -5 -3 -10 -1 -10 4 0 6 5 11 10 11 6 0 10 -2 10
-4z m467 -18 c-3 -8 -6 -5 -6 6 -1 11 2 17 5 13 3 -3 4 -12 1 -19z m69 8 c3
-8 13 -12 22 -9 15 4 15 3 2 -6 -12 -9 -10 -11 12 -11 l27 0 -25 -25 c-14 -14
-35 -26 -47 -28 -12 -1 -28 -8 -35 -14 -11 -10 -19 -10 -42 2 -34 18 -40 18
-40 5 0 -5 9 -10 20 -10 11 0 23 -7 26 -15 4 -8 10 -12 15 -9 11 6 12 -29 2
-40 -5 -4 -8 -17 -8 -29 0 -11 -5 -22 -11 -24 -16 -5 -46 27 -40 43 6 16 -11
30 -47 39 -16 4 -27 14 -27 24 0 9 3 12 8 6 4 -5 21 -18 39 -27 27 -14 34 -14
44 -2 6 8 8 15 3 15 -5 1 -15 2 -23 3 -15 1 -25 36 -10 36 5 0 9 6 9 14 0 7 7
20 16 27 15 12 16 11 10 -8 -8 -26 7 -38 24 -18 7 8 20 15 29 16 10 0 11 2 4
6 -10 3 -8 11 5 28 20 28 30 31 38 11z m-252 -4 c2 -4 0 -14 -6 -22 -8 -12 -9
-12 -5 2 3 9 1 19 -6 22 -9 3 -9 5 0 5 6 1 14 -3 17 -7z m153 -8 c-3 -3 -12
-4 -19 -1 -8 3 -5 6 6 6 11 1 17 -2 13 -5z m533 -10 c0 -8 -4 -12 -10 -9 -5 3
-10 10 -10 16 0 5 5 9 10 9 6 0 10 -7 10 -16z m-570 -4 c0 -5 -2 -10 -4 -10
-3 0 -8 5 -11 10 -3 6 -1 10 4 10 6 0 11 -4 11 -10z m-450 -30 c0 -5 -2 -10
-4 -10 -3 0 -8 5 -11 10 -3 6 -1 10 4 10 6 0 11 -4 11 -10z m125 0 c3 -5 1
-10 -4 -10 -6 0 -11 5 -11 10 0 6 2 10 4 10 3 0 8 -4 11 -10z m35 -4 c0 -3 -4
-8 -10 -11 -5 -3 -10 -1 -10 4 0 6 5 11 10 11 6 0 10 -2 10 -4z m137 -2 c-3
-3 -12 -4 -19 -1 -8 3 -5 6 6 6 11 1 17 -2 13 -5z m113 -4 c0 -5 -4 -10 -10
-10 -5 0 -10 5 -10 10 0 6 5 10 10 10 6 0 10 -4 10 -10z m-168 -23 c-8 -10 -6
-16 9 -25 26 -17 24 -25 -12 -41 -17 -7 -34 -21 -37 -30 -6 -13 -32 -28 -32
-18 0 8 38 47 44 47 4 0 14 7 22 15 14 13 14 16 0 21 -19 7 -21 30 -3 37 19 8
20 8 9 -6z m74 -11 c2 -15 -43 -10 -53 7 -3 5 -2 7 3 4 6 -3 16 -2 24 3 16 10
23 6 26 -14z m-296 0 c0 -3 -4 -8 -10 -11 -5 -3 -10 -1 -10 4 0 6 5 11 10 11
6 0 10 -2 10 -4z m190 -30 c0 -3 -4 -8 -10 -11 -5 -3 -10 -1 -10 4 0 6 5 11
10 11 6 0 10 -2 10 -4z m104 -11 c-4 -8 -10 -15 -15 -15 -5 0 -9 7 -9 15 0 8
7 15 15 15 9 0 12 -6 9 -15z m131 -15 c3 -4 -7 -7 -20 -7 -14 0 -25 5 -25 12
0 14 36 9 45 -5z m-715 0 c0 -5 -5 -10 -11 -10 -5 0 -7 5 -4 10 3 6 8 10 11
10 2 0 4 -4 4 -10z m235 0 c-3 -5 -12 -10 -18 -10 -7 0 -6 4 3 10 19 12 23 12
15 0z m369 -1 c-3 -6 0 -15 7 -20 7 -4 10 -12 5 -16 -5 -4 -11 -2 -13 5 -4 10
-8 10 -18 2 -12 -10 -12 -7 -2 14 7 14 16 26 20 26 5 0 5 -5 1 -11z m-187 -5
c-3 -3 -12 -4 -19 -1 -8 3 -5 6 6 6 11 1 17 -2 13 -5z m-490 -26 c-3 -8 -6 -5
-6 6 -1 11 2 17 5 13 3 -3 4 -12 1 -19z m449 0 c-1 -17 4 -22 17 -20 21 4 23
-4 2 -12 -22 -8 -49 23 -34 40 15 18 16 18 15 -8z m277 -14 c-3 -8 -9 -14 -15
-14 -5 0 -6 -6 -2 -12 6 -9 3 -9 -9 0 -15 12 -15 16 -2 29 9 8 12 20 8 26 -4
7 0 7 9 -1 9 -8 14 -20 11 -28z m-118 16 c3 -5 1 -10 -4 -10 -6 0 -11 5 -11
10 0 6 2 10 4 10 3 0 8 -4 11 -10z m-415 -10 c0 -5 -2 -10 -4 -10 -3 0 -8 5
-11 10 -3 6 -1 10 4 10 6 0 11 -4 11 -10z m445 -10 c4 -6 1 -9 -7 -8 -7 2 -12
-5 -12 -14 1 -10 -2 -18 -7 -18 -14 0 -11 38 4 43 6 3 13 6 14 6 1 1 5 -4 8
-9z m-230 -10 c3 -5 2 -10 -4 -10 -5 0 -13 5 -16 10 -3 6 -2 10 4 10 5 0 13
-4 16 -10z m152 -12 c-3 -8 -6 -5 -6 6 -1 11 2 17 5 13 3 -3 4 -12 1 -19z
m-482 2 c3 -5 1 -10 -4 -10 -6 0 -11 5 -11 10 0 6 2 10 4 10 3 0 8 -4 11 -10z
m297 -25 c14 3 15 -1 8 -20 -5 -13 -6 -26 -3 -29 4 -3 1 -6 -6 -6 -7 0 -11 7
-8 15 8 19 -13 31 -24 14 -7 -11 -9 -11 -9 3 0 9 3 24 7 34 6 15 7 15 12 2 3
-8 14 -14 23 -13z m161 14 c-6 -6 -9 -18 -6 -26 4 -11 8 -10 18 3 13 19 51 12
39 -7 -5 -8 -8 -8 -14 0 -9 16 -32 -12 -28 -33 2 -8 -6 -22 -17 -30 -20 -16
-20 -16 -1 -31 15 -11 16 -17 7 -29 -6 -7 -20 -16 -30 -19 -14 -3 -17 0 -13
20 4 19 7 21 18 12 12 -10 13 -9 8 5 -3 9 -16 19 -28 22 -25 6 -28 46 -6 67
10 10 12 8 8 -9 -3 -12 -2 -28 3 -35 7 -11 11 -10 23 6 20 26 20 36 1 29 -21
-8 -20 24 2 48 9 10 19 18 22 18 3 0 0 -5 -6 -11z m-43 -9 c0 -5 -8 -10 -17
-10 -15 0 -16 2 -3 10 19 12 20 12 20 0z m-73 -30 c-3 -11 -1 -18 4 -14 5 3 9
1 9 -5 0 -15 -14 -21 -29 -12 -10 7 -10 12 0 30 17 26 23 27 16 1z m-307 -16
c0 -8 -4 -14 -10 -14 -5 0 -10 9 -10 21 0 11 5 17 10 14 6 -3 10 -13 10 -21z
m350 22 c0 -11 -19 -15 -25 -6 -3 5 1 10 9 10 9 0 16 -2 16 -4z m-320 -16 c0
-5 -2 -10 -4 -10 -3 0 -8 5 -11 10 -3 6 -1 10 4 10 6 0 11 -4 11 -10z m180 -5
c0 -1 -9 -5 -20 -8 -12 -3 -20 0 -20 8 0 8 8 11 20 8 11 -3 20 -7 20 -8z
m-302 -30 c-3 -3 -9 2 -12 12 -6 14 -5 15 5 6 7 -7 10 -15 7 -18z m142 5 c0
-5 -7 -7 -15 -4 -8 4 -15 8 -15 10 0 2 7 4 15 4 8 0 15 -4 15 -10z m-386 -19
c3 -5 -1 -11 -9 -14 -9 -4 -12 -1 -8 9 6 16 10 17 17 5z m169 -6 c-3 -9 -8
-14 -10 -11 -3 3 -2 9 2 15 9 16 15 13 8 -4z m356 -12 c3 -5 15 -13 25 -19 11
-5 20 -18 22 -28 2 -14 0 -15 -12 -5 -7 6 -11 16 -7 22 3 6 1 7 -5 3 -6 -4
-20 2 -32 14 -11 11 -29 20 -40 20 -11 0 -20 4 -20 9 0 11 60 -4 69 -16z m51
6 c10 -18 10 -19 -7 -10 -45 26 -49 31 -26 31 12 0 27 -9 33 -21z m95 -19 c-3
-6 -1 -10 4 -10 6 0 11 5 11 12 0 9 3 9 13 -1 10 -10 8 -15 -7 -27 -11 -8 -14
-14 -8 -14 7 0 12 -5 12 -11 0 -5 -4 -7 -10 -4 -5 3 -10 -2 -10 -12 -1 -25
-26 -57 -35 -44 -3 6 -2 11 4 11 6 0 8 6 5 14 -3 8 -1 17 5 20 6 4 8 28 5 59
-3 40 -2 48 6 34 6 -9 8 -22 5 -27z m-35 18 c0 -4 -9 -8 -21 -8 -11 0 -18 4
-15 8 7 11 36 11 36 0z m-220 -28 c0 -5 -2 -10 -4 -10 -3 0 -8 5 -11 10 -3 6
-1 10 4 10 6 0 11 -4 11 -10z m216 -5 c10 -8 14 -15 7 -15 -19 0 -43 11 -43
21 0 13 14 11 36 -6z m-316 -5 c0 -5 -5 -10 -11 -10 -5 0 -7 5 -4 10 3 6 8 10
11 10 2 0 4 -4 4 -10z m65 0 c3 -5 -1 -10 -10 -10 -9 0 -13 5 -10 10 3 6 8 10
10 10 2 0 7 -4 10 -10z m72 4 c-3 -3 -12 -4 -19 -1 -8 3 -5 6 6 6 11 1 17 -2
13 -5z m23 -19 c-8 -10 -9 -15 -1 -15 6 0 11 -7 11 -15 0 -22 -18 -18 -25 5
-6 20 12 56 23 45 3 -2 -1 -11 -8 -20z m-305 -5 c-3 -5 -12 -10 -18 -10 -7 0
-6 4 3 10 19 12 23 12 15 0z m350 -2 c-7 -17 63 -18 73 -1 5 8 15 8 37 -2 27
-12 26 -15 -10 -19 -22 -3 -75 -29 -75 -37 0 -5 -4 -9 -10 -9 -5 0 -10 7 -10
15 0 8 7 15 15 15 8 0 15 5 15 11 0 6 -9 9 -20 6 -13 -3 -24 1 -30 14 -8 15
-7 19 4 19 9 0 13 -6 11 -12z m-238 -20 c-3 -8 -6 -5 -6 6 -1 11 2 17 5 13 3
-3 4 -12 1 -19z m93 -28 c-6 -12 -14 -19 -17 -16 -3 3 -1 12 5 19 7 8 9 17 5
20 -3 4 -11 -1 -18 -10 -11 -14 -12 -14 -18 1 -4 9 -3 15 2 12 5 -3 12 2 15
11 6 15 8 15 22 1 13 -13 14 -20 4 -38z m49 27 c6 -8 7 -18 3 -22 -4 -5 0 -6
9 -2 14 5 17 -1 15 -34 -2 -32 1 -39 16 -39 10 0 18 -4 18 -10 0 -5 -4 -10
-10 -10 -5 0 -14 -8 -19 -18 -8 -16 -5 -18 21 -18 17 1 33 -4 35 -9 2 -6 -19
-10 -51 -11 -35 0 -52 4 -48 10 3 6 7 17 8 26 1 8 5 24 9 34 6 14 5 17 -3 12
-7 -4 -15 -1 -18 8 -3 9 -12 16 -20 16 -12 0 -12 4 -2 19 7 11 16 17 20 15 4
-3 8 4 8 15 0 10 -6 22 -12 24 -8 4 -9 6 -2 6 6 1 17 -5 23 -12z m-252 -27 c3
-10 2 -11 -4 -4 -4 6 -15 14 -23 17 -11 5 -9 6 4 4 11 -1 21 -9 23 -17z m76 6
c3 -8 -2 -16 -13 -19 -16 -4 -17 -2 -7 14 14 23 13 23 20 5z m37 -26 c0 -4 -6
-10 -14 -13 -10 -4 -12 0 -9 14 5 18 23 18 23 -1z m-186 -16 c4 -11 2 -15 -8
-11 -7 3 -19 0 -25 -6 -15 -15 -14 0 2 18 16 19 24 18 31 -1z m261 -4 c3 -5 1
-10 -4 -10 -6 0 -11 5 -11 10 0 6 2 10 4 10 3 0 8 -4 11 -10z m192 4 c-3 -3
-12 -4 -19 -1 -8 3 -5 6 6 6 11 1 17 -2 13 -5z m-307 -14 c0 -5 -7 -10 -16
-10 -8 0 -12 5 -9 10 3 6 10 10 16 10 5 0 9 -4 9 -10z m50 -5 c0 -8 -2 -15 -4
-15 -2 0 -6 7 -10 15 -3 8 -1 15 4 15 6 0 10 -7 10 -15z m40 -5 c0 -18 3 -19
21 -9 15 8 19 8 15 0 -4 -6 0 -11 9 -11 9 0 13 4 10 10 -3 6 1 7 9 4 9 -3 16
-10 16 -14 0 -13 -38 -18 -49 -7 -19 19 -33 -6 -21 -37 14 -39 13 -46 -11 -46
-17 0 -19 3 -10 14 9 10 9 20 0 40 -7 14 -16 23 -20 20 -5 -3 -9 0 -9 5 0 6 5
11 10 11 6 0 10 9 10 20 0 11 5 20 10 20 6 0 10 -9 10 -20z m-66 -6 c3 -8 2
-12 -4 -9 -6 3 -10 10 -10 16 0 14 7 11 14 -7z m-639 -22 c-3 -3 -11 0 -18 7
-9 10 -8 11 6 5 10 -3 15 -9 12 -12z m495 -9 c0 -19 -13 -9 -16 12 -1 8 2 13
7 9 5 -3 9 -12 9 -21z m75 10 c-11 -3 -22 -9 -25 -13 -3 -4 -11 -2 -18 6 -11
12 -7 14 25 13 22 -1 30 -3 18 -6z m-205 -7 c0 -3 -4 -8 -10 -11 -5 -3 -10 -1
-10 4 0 6 5 11 10 11 6 0 10 -2 10 -4z m95 -6 c3 -5 1 -10 -4 -10 -6 0 -11 5
-11 10 0 6 2 10 4 10 3 0 8 -4 11 -10z m-155 -22 c0 -6 -6 -5 -15 2 -8 7 -15
14 -15 16 0 2 7 1 15 -2 8 -4 15 -11 15 -16z m270 12 c0 -5 -2 -10 -4 -10 -3
0 -8 5 -11 10 -3 6 -1 10 4 10 6 0 11 -4 11 -10z m-31 -21 c-7 -4 -18 -5 -24
-1 -5 3 -4 -2 4 -11 17 -21 8 -34 -12 -16 -22 21 -10 47 20 41 17 -3 21 -7 12
-13z m81 17 c0 -3 -4 -8 -10 -11 -5 -3 -10 -1 -10 4 0 6 5 11 10 11 6 0 10 -2
10 -4z m-875 -26 c3 -6 -1 -7 -9 -4 -18 7 -21 14 -7 14 6 0 13 -4 16 -10z
m495 -5 c10 -12 9 -15 -4 -15 -10 0 -15 4 -11 9 3 5 -3 12 -12 14 -15 4 -15 5
-2 6 9 0 22 -6 29 -14z m-55 -5 c3 -5 1 -10 -4 -10 -6 0 -11 5 -11 10 0 6 2
10 4 10 3 0 8 -4 11 -10z m235 -5 c0 -2 -6 -5 -13 -8 -8 -3 -14 1 -14 8 0 7 6
11 14 8 7 -3 13 -6 13 -8z m140 11 c0 -3 -4 -8 -10 -11 -5 -3 -10 -1 -10 4 0
6 5 11 10 11 6 0 10 -2 10 -4z m-430 -20 c0 -2 -7 -6 -15 -10 -8 -3 -15 -1
-15 4 0 6 7 10 15 10 8 0 15 -2 15 -4z m170 -16 c0 -5 -7 -10 -15 -10 -8 0
-15 5 -15 10 0 6 7 10 15 10 8 0 15 -4 15 -10z m168 1 c10 -6 9 -11 -4 -22
-16 -12 -17 -12 -11 3 3 9 1 19 -6 22 -7 2 -7 5 -2 5 6 0 16 -3 23 -8z m-211
-7 c-3 -3 -12 -4 -19 -1 -8 3 -5 6 6 6 11 1 17 -2 13 -5z m463 -4 c0 -5 -4
-10 -9 -10 -6 0 -13 5 -16 10 -3 6 1 10 9 10 9 0 16 -4 16 -10z m-540 -4 c0
-3 -4 -8 -10 -11 -5 -3 -10 -1 -10 4 0 6 5 11 10 11 6 0 10 -2 10 -4z m-103
-28 c-3 -8 -6 -5 -6 6 -1 11 2 17 5 13 3 -3 4 -12 1 -19z m243 18 c0 -3 -13
-11 -30 -20 -16 -8 -30 -11 -30 -6 0 7 23 18 58 29 1 1 2 -1 2 -3z m100 -8 c0
-4 -8 -8 -19 -8 -10 0 -24 -7 -31 -15 -16 -19 -26 -19 -33 -1 -4 10 0 12 14 9
11 -3 21 1 25 10 6 16 44 20 44 5z m58 -19 c-10 -6 -14 -16 -10 -31 3 -14 1
-19 -6 -14 -6 3 -9 16 -7 28 5 22 25 41 35 32 2 -3 -3 -10 -12 -15z m-384 -14
c-4 -8 -11 -12 -16 -9 -6 4 -5 10 3 15 19 12 19 11 13 -6z m331 1 c13 5 16 4
11 -5 -11 -17 12 -41 40 -41 22 0 29 10 25 33 -1 5 3 6 8 3 5 -3 7 -16 4 -27
-5 -19 -3 -20 14 -10 11 5 24 7 28 3 5 -4 5 -1 1 6 -4 7 -12 10 -17 7 -5 -4
-9 -2 -9 4 0 17 17 21 29 7 6 -7 8 -21 5 -31 -5 -13 -9 -14 -15 -4 -6 10 -10
7 -17 -10 -7 -20 -10 -21 -15 -8 -9 25 -30 21 -44 -8 -8 -17 -8 -25 0 -25 6 0
7 -3 4 -7 -4 -3 -2 -12 3 -18 8 -9 5 -14 -10 -18 -22 -6 -37 8 -20 18 15 9
-12 34 -30 27 -12 -5 -13 -3 -4 9 19 24 25 61 9 55 -9 -3 -12 0 -8 10 3 8 2
14 -3 13 -5 -1 -17 -1 -27 0 -15 1 -16 3 -5 15 7 8 16 10 19 5 3 -6 14 -7 24
-3z m-109 -11 c16 -8 22 -15 14 -15 -8 1 -24 7 -34 15 -25 19 -16 19 20 0z
m-146 -9 c0 -2 -8 -10 -17 -17 -16 -13 -17 -12 -4 4 13 16 21 21 21 13z m115
-16 c-5 -16 -3 -19 12 -14 15 5 16 4 3 -5 -33 -24 -50 -6 -25 26 14 18 17 16
10 -7z m115 6 c0 -3 -4 -8 -10 -11 -5 -3 -10 -1 -10 4 0 6 5 11 10 11 6 0 10
-2 10 -4z m-53 -28 c-3 -8 -6 -5 -6 6 -1 11 2 17 5 13 3 -3 4 -12 1 -19z m53
-18 c-6 -11 -12 -20 -14 -20 -2 0 -2 9 1 20 3 11 9 20 15 20 5 0 4 -9 -2 -20z
m-240 6 c0 -9 -30 -14 -35 -6 -4 6 3 10 14 10 12 0 21 -2 21 -4z m54 -17 c-3
-6 -1 -15 4 -22 14 -17 -4 -58 -28 -64 -11 -3 -17 -9 -14 -14 3 -5 1 -9 -4 -9
-6 0 -13 -7 -16 -16 -5 -12 -2 -15 10 -10 10 4 14 1 12 -6 -9 -27 -36 -19 -40
12 -3 22 -1 29 8 26 7 -3 15 2 18 10 3 8 12 14 20 14 12 0 14 11 11 49 -3 40
-1 49 11 44 7 -3 11 -9 8 -14z m294 -14 c0 -14 -6 -25 -13 -25 -6 0 -11 10 -9
23 1 12 3 26 3 30 2 20 19 -5 19 -28z m-833 15 c3 -5 1 -10 -4 -10 -6 0 -11 5
-11 10 0 6 2 10 4 10 3 0 8 -4 11 -10z m299 -6 c3 -8 2 -12 -4 -9 -6 3 -10 10
-10 16 0 14 7 11 14 -7z m366 12 c0 -3 -4 -8 -10 -11 -5 -3 -10 -1 -10 4 0 6
5 11 10 11 6 0 10 -2 10 -4z m-218 -20 c6 4 5 -2 -1 -15 -15 -27 -16 -27 -18
7 -1 15 1 21 4 14 2 -6 9 -9 15 -6z m138 10 c0 -11 -19 -15 -25 -6 -3 5 1 10
9 10 9 0 16 -2 16 -4z m-100 -20 c0 -3 -4 -8 -10 -11 -5 -3 -10 -1 -10 4 0 6
5 11 10 11 6 0 10 -2 10 -4z m-155 -26 c3 -5 -1 -10 -10 -10 -9 0 -13 5 -10
10 3 6 8 10 10 10 2 0 7 -4 10 -10z m158 -10 c-4 -16 -8 -18 -19 -9 -16 13
-19 23 -5 14 5 -3 12 -1 16 5 10 16 14 12 8 -10z m-108 1 c3 -5 1 -12 -5 -16
-5 -3 -10 1 -10 9 0 18 6 21 15 7z m60 -11 c3 -5 1 -10 -4 -10 -6 0 -11 5 -11
10 0 6 2 10 4 10 3 0 8 -4 11 -10z m-190 -20 c-3 -5 -14 -10 -24 -10 -27 0
-33 -11 -13 -27 15 -13 15 -13 -5 -3 -28 13 -20 38 15 43 15 2 28 5 30 6 2 0
0 -3 -3 -9z m115 -10 c0 -5 -5 -10 -11 -10 -5 0 -7 5 -4 10 3 6 8 10 11 10 2
0 4 -4 4 -10z m345 1 c3 -5 1 -12 -5 -16 -5 -3 -10 1 -10 9 0 18 6 21 15 7z
m-389 -10 c-3 -5 -15 -7 -26 -4 -28 7 -25 13 6 13 14 0 23 -4 20 -9z m79 -1
c3 -5 1 -10 -4 -10 -6 0 -11 5 -11 10 0 6 2 10 4 10 3 0 8 -4 11 -10z m130 0
c3 -5 1 -10 -4 -10 -6 0 -11 5 -11 10 0 6 2 10 4 10 3 0 8 -4 11 -10z m50 0
c3 -5 -1 -10 -9 -10 -8 0 -18 5 -21 10 -3 6 1 10 9 10 8 0 18 -4 21 -10z
m-415 -21 c0 -6 -4 -7 -10 -4 -5 3 -10 11 -10 16 0 6 5 7 10 4 6 -3 10 -11 10
-16z m273 -22 c-8 -5 -17 -6 -20 -3 -4 3 -1 6 6 6 8 0 10 8 6 23 -7 22 -7 22
8 2 14 -18 14 -21 0 -28z m-483 13 c0 -5 -4 -10 -10 -10 -5 0 -10 5 -10 10 0
6 5 10 10 10 6 0 10 -4 10 -10z m307 4 c-3 -3 -12 -4 -19 -1 -8 3 -5 6 6 6 11
1 17 -2 13 -5z m71 -4 c-2 -5 2 -10 7 -11 6 0 14 -7 18 -15 5 -8 12 -12 18 -9
5 4 9 1 9 -5 0 -15 -41 -3 -57 17 -10 12 -12 10 -11 -16 1 -22 5 -30 14 -27 8
3 11 0 7 -10 -11 -30 -33 -6 -33 37 0 10 -6 19 -12 19 -10 0 19 21 40 29 1 1
1 -3 0 -9z m262 -4 c0 -15 -30 -44 -31 -30 0 5 -2 17 -4 27 -2 11 3 17 16 17
10 0 19 -6 19 -14z m-146 -41 c-4 -8 -10 -12 -15 -9 -11 6 -2 24 11 24 5 0 7
-7 4 -15z m56 -1 c0 -21 -22 -42 -38 -36 -10 3 -9 9 5 25 10 11 12 17 4 12
-10 -5 -12 -4 -7 3 11 17 36 15 36 -4z m-256 -6 c4 3 4 -1 1 -10 -6 -15 -8
-15 -26 0 -24 21 -24 26 0 13 10 -6 21 -7 25 -3z m-108 -36 c-18 -16 -18 -16
-6 6 6 13 14 21 18 18 3 -4 -2 -14 -12 -24z m257 16 c4 -10 8 -9 16 2 6 8 11
11 11 5 0 -5 13 -17 28 -26 16 -9 29 -24 29 -33 0 -11 -4 -13 -10 -7 -7 7 -15
7 -24 0 -10 -9 -13 -7 -13 5 0 11 -5 14 -12 10 -6 -4 -8 -3 -5 4 4 5 17 8 30
6 20 -4 19 -3 -3 6 -14 6 -33 9 -42 6 -10 -2 -16 0 -12 5 3 5 0 9 -5 9 -6 0
-11 5 -11 10 0 14 17 12 23 -2z m-433 -14 c0 -2 -7 -4 -15 -4 -8 0 -15 4 -15
10 0 5 7 7 15 4 8 -4 15 -8 15 -10z m-80 -2 c0 -4 -10 -13 -22 -21 -23 -14
-23 -14 -4 8 20 22 26 25 26 13z m394 -7 c-7 -16 -24 -21 -24 -6 0 8 7 13 27
20 1 1 0 -6 -3 -14z m96 -6 c0 -5 -4 -9 -10 -9 -5 0 -10 7 -10 16 0 8 5 12 10
9 6 -3 10 -10 10 -16z m-270 -3 c0 -2 -7 -7 -16 -10 -8 -3 -12 -2 -9 4 6 10
25 14 25 6z m210 0 c0 -2 -7 -7 -16 -10 -8 -3 -12 -2 -9 4 6 10 25 14 25 6z
m-185 -16 c-3 -5 -1 -10 4 -10 6 0 11 5 11 12 0 6 2 9 5 6 3 -3 3 -13 -1 -22
-9 -23 -34 -20 -34 4 0 11 5 20 11 20 5 0 7 -4 4 -10z m91 -5 c10 -8 15 -14 9
-14 -5 0 -19 6 -29 14 -11 8 -15 15 -10 15 6 0 19 -7 30 -15z m-451 -5 c-3 -5
-12 -10 -18 -10 -7 0 -6 4 3 10 19 12 23 12 15 0z m490 -12 c-3 -12 1 -28 7
-35 15 -19 -2 -33 -27 -23 -19 8 -18 9 4 9 17 1 21 4 14 14 -12 16 -14 57 -3
57 5 0 7 -10 5 -22z m-145 -30 c10 -3 7 -6 -9 -11 -13 -3 -20 -3 -17 0 3 3 1
15 -5 27 -9 18 -8 19 3 5 7 -9 20 -18 28 -21z m89 -32 c-9 -8 -10 -8 -5 1 3 6
2 14 -4 18 -5 3 -15 16 -21 28 -9 17 -5 15 15 -7 21 -22 25 -31 15 -40z m181
56 c0 -4 -16 -6 -35 -4 -19 2 -35 6 -35 8 0 2 16 4 35 4 19 0 35 -4 35 -8z
m-82 -28 c2 -32 11 -46 23 -38 5 3 6 11 2 17 -4 7 0 6 10 -2 22 -18 11 -34
-19 -28 -13 2 -24 0 -24 -5 0 -5 -4 -7 -10 -3 -6 4 -6 15 0 31 5 13 9 28 9 32
-2 10 0 22 4 22 1 0 4 -12 5 -26z m-231 -21 c-3 -10 -5 -4 -5 12 0 17 2 24 5
18 2 -7 2 -21 0 -30z m-232 -42 c3 -20 0 -29 -6 -25 -6 3 -9 14 -6 24 3 12 -2
20 -17 24 -17 5 -19 8 -6 16 19 12 30 0 35 -39z m39 34 c-4 -8 -11 -15 -16
-15 -6 0 -5 6 2 15 7 8 14 15 16 15 2 0 1 -7 -2 -15z m82 -31 c-3 -8 1 -14 9
-14 16 0 21 -16 8 -23 -12 -6 -44 31 -32 38 5 4 7 16 4 28 -5 20 -5 20 5 4 7
-10 9 -25 6 -33z m57 31 c0 -6 -7 -11 -16 -13 -12 -3 -15 1 -11 13 7 17 25 17
27 0z m-443 -5 c0 -5 -4 -10 -10 -10 -5 0 -10 5 -10 10 0 6 5 10 10 10 6 0 10
-4 10 -10z m463 -24 c4 -10 1 -13 -9 -9 -9 3 -14 -1 -14 -13 0 -16 -2 -17 -10
-4 -7 11 -5 19 7 28 21 15 20 15 26 -2z m147 0 c0 -19 -39 -31 -54 -16 -8 8
-7 10 7 5 12 -5 17 -2 17 9 0 9 7 16 15 16 8 0 15 -6 15 -14z m62 -1 c17 0 19
-15 1 -15 -22 0 -47 -23 -37 -33 3 -3 1 -14 -5 -24 -9 -16 -10 -15 -11 7 0 18
-3 21 -9 11 -5 -8 -11 -9 -15 -3 -3 5 1 12 9 16 8 3 20 17 27 30 6 15 16 22
22 18 6 -4 14 -7 18 -7z m-652 -5 c0 -5 -4 -10 -10 -10 -5 0 -10 5 -10 10 0 6
5 10 10 10 6 0 10 -4 10 -10z m474 -24 c-3 -14 -12 -26 -18 -26 -24 0 -34 -21
-26 -55 6 -26 5 -32 -6 -28 -9 3 -12 13 -8 29 7 28 -16 33 -37 8 -10 -12 -10
-20 -2 -34 10 -14 7 -19 -13 -29 -15 -6 -24 -7 -24 -1 0 6 6 10 14 10 21 0 8
37 -15 43 -13 4 -19 0 -19 -11 0 -12 -3 -13 -12 -4 -9 9 -6 17 12 37 25 26 40
32 40 15 0 -5 -7 -10 -15 -10 -8 0 -15 -5 -15 -11 0 -22 44 -4 51 21 4 14 7
20 8 13 1 -6 7 -10 14 -9 20 3 38 17 32 26 -3 4 4 10 15 13 11 3 20 13 20 23
0 9 2 15 5 12 4 -3 3 -17 -1 -32z m-197 9 c0 -8 -4 -15 -9 -15 -10 0 -11 14
-1 23 9 10 10 9 10 -8z m36 4 c-8 -8 -8 -20 -3 -35 8 -21 7 -24 -13 -24 -17 0
-19 2 -8 9 8 5 11 16 7 27 -4 10 -1 21 6 26 19 11 24 10 11 -3z m251 -51 c16
-11 -6 -10 -23 1 -8 5 -10 14 -5 22 6 10 9 10 12 -1 3 -8 10 -18 16 -22z
m-304 16 c0 -8 -19 -13 -24 -6 -3 5 1 9 9 9 8 0 15 -2 15 -3z m-180 -24 c8 -5
11 -10 5 -10 -5 0 -17 5 -25 10 -8 5 -10 10 -5 10 6 0 17 -5 25 -10z m464 -16
c29 -29 32 -39 14 -50 -7 -5 -8 -3 -3 6 6 10 4 12 -8 7 -13 -5 -17 -1 -17 14
0 12 -8 23 -20 26 -11 3 -17 9 -14 14 9 15 20 11 48 -17z m-600 0 c5 -14 4
-15 -9 -4 -17 14 -19 20 -6 20 5 0 12 -7 15 -16z m225 7 c10 -7 7 -9 -12 -8
-15 1 -27 5 -27 10 0 10 22 9 39 -2z m71 5 c0 -3 -4 -8 -10 -11 -5 -3 -10 -1
-10 4 0 6 5 11 10 11 6 0 10 -2 10 -4z m230 0 c0 -3 -4 -8 -10 -11 -5 -3 -10
-1 -10 4 0 6 5 11 10 11 6 0 10 -2 10 -4z m-219 -29 c-10 -9 -11 -8 -5 6 3 10
9 15 12 12 3 -3 0 -11 -7 -18z m-136 -6 c-3 -6 -16 -11 -28 -11 -21 0 -21 1 3
13 27 15 36 14 25 -2z m100 9 c3 -5 2 -10 -4 -10 -5 0 -13 5 -16 10 -3 6 -2
10 4 10 5 0 13 -4 16 -10z m185 -10 c0 -5 -5 -10 -11 -10 -5 0 -7 5 -4 10 3 6
8 10 11 10 2 0 4 -4 4 -10z m97 -15 c0 -10 -9 -15 -26 -14 -17 1 -20 3 -8 6 9
2 15 9 12 14 -4 5 0 9 8 9 7 0 14 -7 14 -15z m183 -7 c0 -12 -3 -18 -7 -14
-11 10 -12 36 -2 36 5 0 9 -10 9 -22z m-455 2 c3 -5 1 -10 -4 -10 -6 0 -11 5
-11 10 0 6 2 10 4 10 3 0 8 -4 11 -10z m55 -4 c6 -8 17 -13 25 -10 7 3 16 1
20 -5 3 -7 0 -8 -9 -5 -9 3 -16 2 -16 -4 0 -5 7 -12 15 -16 8 -3 15 -16 14
-28 0 -20 -1 -21 -8 -5 -4 10 -11 18 -16 17 -6 0 -12 7 -14 17 -4 24 -21 44
-31 38 -5 -3 -11 -1 -15 5 -10 16 21 12 35 -4z m299 -47 c-15 -9 -36 0 -21 10
5 3 13 17 18 31 l9 25 3 -29 c2 -16 -2 -32 -9 -37z m-484 41 c-3 -5 -1 -10 5
-10 6 0 8 -5 4 -12 -5 -8 -9 -9 -11 -1 -2 6 -14 9 -26 6 -22 -5 -22 -5 -2 10
23 18 39 22 30 7z m-91 -8 c2 -4 -5 -9 -17 -9 -17 -2 -19 0 -7 7 18 12 18 12
24 2z m221 -22 c9 0 12 -6 8 -16 -4 -10 4 -25 22 -40 22 -18 26 -27 17 -36 -9
-9 -13 -6 -19 10 -8 21 -9 21 -28 -8 -20 -30 -35 -39 -35 -20 0 6 5 10 10 10
6 0 10 7 10 16 0 8 5 12 10 9 15 -10 12 12 -5 28 -11 12 -12 17 -2 21 8 3 7 8
-5 16 -10 6 -18 19 -18 28 1 16 1 16 11 0 5 -10 16 -18 24 -18z m225 9 c0 -9
-5 -11 -32 -13 -6 -1 -12 6 -13 15 -2 12 3 15 21 11 13 -2 24 -8 24 -13z
m-690 1 c0 -5 -2 -10 -4 -10 -3 0 -8 5 -11 10 -3 6 -1 10 4 10 6 0 11 -4 11
-10z m170 -6 c0 -2 -7 -4 -15 -4 -8 0 -15 4 -15 10 0 5 7 7 15 4 8 -4 15 -8
15 -10z m334 1 c3 -8 1 -15 -4 -15 -6 0 -10 7 -10 15 0 8 2 15 4 15 2 0 6 -7
10 -15z m-140 -7 c-5 -8 -2 -9 9 -5 10 3 17 5 17 3 0 -3 3 -12 7 -22 5 -13 3
-15 -7 -9 -9 5 -11 4 -6 -3 4 -7 16 -12 26 -12 10 0 21 -4 24 -8 12 -19 -41
-5 -61 16 -24 24 -28 34 -16 45 10 11 15 8 7 -5z m-223 -31 c-10 -9 -11 -8 -5
6 3 10 9 15 12 12 3 -3 0 -11 -7 -18z m394 -8 c12 -18 -1 -20 -31 -4 l-29 15
27 0 c15 0 30 -5 33 -11z m-355 -26 c0 -10 -4 -14 -8 -8 -4 6 -11 13 -16 18
-5 4 -2 7 7 7 10 0 17 -8 17 -17z m-50 -2 c0 -5 -7 -12 -16 -15 -14 -5 -15 -4
-4 9 14 17 20 19 20 6z m175 -1 c3 -5 1 -10 -4 -10 -6 0 -11 5 -11 10 0 6 2
10 4 10 3 0 8 -4 11 -10z m36 -29 c-7 -12 -16 -21 -21 -21 -12 0 -12 2 0 36 8
19 14 24 21 17 8 -8 7 -17 0 -32z m-101 19 c0 -5 -4 -10 -10 -10 -5 0 -10 5
-10 10 0 6 5 10 10 10 6 0 10 -4 10 -10z m44 -3 c7 -7 11 -18 8 -25 -4 -14
-28 -16 -37 -2 -4 6 1 7 12 3 15 -5 16 -3 6 8 -24 24 -13 40 11 16z m276 -3
c0 -2 -7 -4 -15 -4 -8 0 -15 4 -15 10 0 5 7 7 15 4 8 -4 15 -8 15 -10z m-400
-5 c0 -5 -4 -7 -10 -4 -5 3 -10 1 -10 -6 0 -7 -3 -10 -6 -6 -8 7 4 27 17 27 5
0 9 -5 9 -11z m212 -18 c2 -17 1 -28 -4 -25 -8 5 -12 54 -4 54 2 0 6 -13 8
-29z m-458 -7 c3 -8 2 -12 -4 -9 -6 3 -10 10 -10 16 0 14 7 11 14 -7z m571 6
c-3 -5 -1 -10 6 -10 7 0 10 -2 7 -5 -8 -9 -38 6 -32 16 3 5 10 9 15 9 6 0 7
-4 4 -10z m-265 -21 c0 -5 -5 -7 -11 -3 -8 4 -9 -1 -4 -17 7 -21 6 -22 -9 -10
-12 10 -14 17 -5 27 14 17 29 18 29 3z m383 4 c-7 -2 -19 -2 -25 0 -7 3 -2 5
12 5 14 0 19 -2 13 -5z m-472 -26 c-10 -9 -11 -8 -5 6 3 10 9 15 12 12 3 -3 0
-11 -7 -18z m177 17 c12 -4 22 -10 22 -16 0 -5 -8 -4 -19 2 -27 14 -31 13 -25
-7 5 -15 4 -16 -5 -3 -21 29 -14 35 27 24z m217 -4 c3 -5 1 -10 -4 -10 -6 0
-11 5 -11 10 0 6 2 10 4 10 3 0 8 -4 11 -10z m-468 -32 c-3 -8 -6 -5 -6 6 -1
11 2 17 5 13 3 -3 4 -12 1 -19z m-100 -23 c0 -8 -9 -17 -20 -21 -18 -6 -18 -6
2 -21 12 -8 21 -20 20 -26 0 -9 -2 -9 -6 1 -8 21 -24 13 -35 -19 -8 -23 -13
-27 -19 -17 -7 10 -9 9 -9 -4 0 -10 -5 -18 -11 -18 -5 0 -8 4 -4 9 3 5 1 12
-5 16 -5 3 -10 12 -10 18 0 8 2 9 8 1 4 -6 15 -11 25 -11 12 0 17 8 17 31 0
17 9 40 22 53 25 27 25 27 25 8z m277 0 c-6 -16 -24 -21 -24 -7 0 11 11 22 21
22 5 0 6 -7 3 -15z m-144 1 c0 -2 -8 -10 -17 -17 -16 -13 -17 -12 -4 4 13 16
21 21 21 13z m214 -5 c4 -5 3 -16 0 -25 -5 -12 -10 -14 -19 -6 -9 8 -14 7 -18
-2 -2 -7 -8 -10 -11 -6 -4 3 1 15 11 26 20 23 29 26 37 13z m-167 -23 c-3 -8
-6 -5 -6 6 -1 11 2 17 5 13 3 -3 4 -12 1 -19z m223 18 c0 -2 -9 -6 -20 -9 -11
-3 -20 -1 -20 4 0 5 9 9 20 9 11 0 20 -2 20 -4z m-188 -24 c-7 -2 -9 -9 -6
-14 4 -7 2 -8 -4 -4 -6 4 -9 13 -6 21 4 8 11 12 17 8 8 -5 7 -8 -1 -11z m-187
-2 c3 -5 2 -10 -4 -10 -5 0 -13 5 -16 10 -3 6 -2 10 4 10 5 0 13 -4 16 -10z
m48 -10 c3 -11 1 -18 -4 -14 -5 3 -9 12 -9 20 0 20 7 17 13 -6z m87 17 c0 -2
-8 -12 -19 -21 -17 -16 -19 -16 -25 0 -4 12 -2 15 9 11 8 -4 17 -2 20 3 6 10
15 13 15 7z m114 -18 c-8 -13 -21 -11 -27 5 -4 10 0 12 14 9 10 -3 16 -9 13
-14z m-84 -20 c0 -6 -4 -8 -9 -4 -6 3 -14 -3 -20 -12 -9 -16 -10 -16 -11 4 0
12 6 23 13 26 15 5 27 -1 27 -14z m-94 -48 c1 -17 -2 -31 -7 -31 -5 0 -9 8 -9
18 0 10 -7 27 -15 40 -15 21 -15 21 7 13 16 -6 23 -17 24 -40z m40 15 c18 -18
18 -23 -1 -23 -8 0 -13 3 -10 5 3 3 0 11 -6 19 -15 18 -1 17 17 -1z m194 -56
c0 -6 5 -8 10 -5 6 3 10 1 10 -4 0 -19 -32 -12 -37 9 -3 11 -9 17 -14 14 -5
-3 -6 2 -3 10 5 13 8 13 20 1 8 -7 14 -19 14 -25z m-328 18 c-9 -9 -9 -15 1
-27 6 -9 2 -8 -11 3 -17 15 -19 22 -10 28 20 12 34 10 20 -4z m-46 -13 c-3 -8
0 -15 6 -15 6 0 9 -3 5 -6 -10 -11 -26 6 -20 21 3 8 7 15 10 15 3 0 3 -7 -1
-15z m-33 -19 c4 -10 1 -13 -8 -9 -8 3 -12 9 -9 14 7 12 11 11 17 -5z"/>
<path d="M2612 9524 c-17 -18 -15 -24 6 -18 14 5 14 3 -2 -10 -11 -9 -26 -16
-33 -16 -7 0 -13 -7 -13 -16 0 -15 2 -15 25 0 14 9 29 14 34 12 5 -3 13 0 19
7 7 8 5 18 -7 33 -14 17 -19 18 -29 8z"/>
<path d="M2536 9390 c-11 -3 -15 -9 -10 -13 10 -6 42 9 34 16 -3 3 -14 1 -24
-3z"/>
<path d="M2528 9353 c7 -3 16 -2 19 1 4 3 -2 6 -13 5 -11 0 -14 -3 -6 -6z"/>
<path d="M1897 9054 c-8 -8 1 -24 14 -24 5 0 9 7 9 15 0 15 -12 20 -23 9z"/>
<path d="M1920 8990 c0 -5 5 -10 10 -10 6 0 10 5 10 10 0 6 -4 10 -10 10 -5 0
-10 -4 -10 -10z"/>
<path d="M1560 8770 c0 -13 5 -18 15 -14 8 4 15 10 15 14 0 4 -7 10 -15 14
-10 4 -15 -1 -15 -14z"/>
<path d="M4090 10230 c0 -12 42 -30 68 -30 15 0 15 2 2 10 -8 5 -10 10 -5 10
6 0 2 5 -9 11 -14 9 -20 8 -27 -2 -6 -10 -9 -11 -9 -1 0 6 -4 12 -10 12 -5 0
-10 -5 -10 -10z"/>
<path d="M4212 10228 c-15 -15 -15 -28 0 -28 6 0 8 3 5 7 -4 3 -2 12 4 20 14
16 7 17 -9 1z"/>
<path d="M4237 10209 c-15 -15 -33 -26 -41 -23 -17 7 -28 -9 -32 -49 -3 -24
-1 -27 10 -18 11 9 15 9 19 -1 4 -9 6 -9 6 -1 1 6 -5 18 -13 26 -10 9 -11 18
-4 28 8 11 11 12 15 1 4 -10 11 -8 28 8 23 22 23 22 30 2 7 -23 41 -26 50 -4
4 11 -1 13 -19 8 -15 -4 -26 -1 -29 8 -4 9 4 13 26 12 33 -1 58 -22 50 -42 -2
-7 0 -15 6 -19 7 -4 8 0 4 11 -4 11 -2 15 4 11 14 -9 29 12 31 41 1 19 -2 21
-13 12 -8 -6 -11 -18 -8 -27 4 -11 2 -14 -8 -11 -8 2 -15 17 -17 31 -2 15 -8
27 -13 27 -6 0 -7 -6 -3 -12 6 -10 4 -10 -7 0 -20 18 -41 13 -72 -19z"/>
<path d="M4445 10230 c-3 -5 -1 -10 4 -10 6 0 11 5 11 10 0 6 -2 10 -4 10 -3
0 -8 -4 -11 -10z"/>
<path d="M4680 10230 c0 -5 5 -10 11 -10 5 0 7 5 4 10 -3 6 -8 10 -11 10 -2 0
-4 -4 -4 -10z"/>
<path d="M4416 10199 c3 -6 0 -16 -7 -21 -12 -8 -11 -9 1 -5 18 4 27 37 10 37
-6 0 -8 -5 -4 -11z"/>
<path d="M4445 10190 c8 -13 54 -18 49 -6 -2 6 -15 12 -29 12 -14 1 -23 -2
-20 -6z"/>
<path d="M4625 10179 c-4 -6 -5 -12 -2 -15 2 -3 7 2 10 11 7 17 1 20 -8 4z"/>
<path d="M4120 10169 c0 -5 -4 -7 -10 -4 -5 3 -10 2 -10 -3 0 -5 11 -9 24 -9
17 0 23 4 19 13 -6 16 -23 19 -23 3z"/>
<path d="M4064 10108 c-1 -40 -6 -63 -15 -69 -8 -5 -15 -4 -17 1 -7 19 -19 10
-18 -12 1 -36 46 -56 46 -20 0 14 -2 15 -10 2 -5 -8 -13 -11 -17 -6 -4 4 4 17
20 28 15 11 27 26 27 34 0 23 34 12 46 -14 9 -21 12 -22 23 -8 11 13 11 16 -3
16 -19 0 -19 1 -6 34 6 17 6 26 0 26 -6 0 -10 -7 -10 -15 0 -9 -9 -15 -25 -15
-27 0 -30 7 -15 30 6 10 10 11 10 3 0 -7 5 -13 11 -13 5 0 8 4 5 9 -4 5 0 12
6 14 7 3 3 6 -9 6 -13 1 -23 5 -23 10 0 5 -6 11 -12 14 -10 3 -13 -12 -14 -55z"/>
<path d="M4235 10149 c-4 -6 -5 -12 -2 -15 2 -3 7 2 10 11 7 17 1 20 -8 4z"/>
<path d="M4311 10150 c0 -8 4 -22 9 -30 12 -18 12 -2 0 25 -6 13 -9 15 -9 5z"/>
<path d="M4400 10140 c0 -5 5 -10 11 -10 5 0 7 5 4 10 -3 6 -8 10 -11 10 -2 0
-4 -4 -4 -10z"/>
<path d="M4440 10140 c0 -5 5 -10 11 -10 5 0 7 5 4 10 -3 6 -8 10 -11 10 -2 0
-4 -4 -4 -10z"/>
<path d="M4366 10111 c-4 -7 -5 -15 -2 -18 9 -9 19 4 14 18 -4 11 -6 11 -12 0z"/>
<path d="M4150 10096 c0 -2 7 -9 15 -16 13 -11 14 -10 9 4 -5 14 -24 23 -24
12z"/>
<path d="M4196 10086 c3 -8 12 -17 20 -20 11 -4 12 -2 1 14 -14 23 -29 27 -21
6z"/>
<path d="M4276 10091 c-3 -5 1 -11 9 -14 9 -4 12 -1 8 9 -6 16 -10 17 -17 5z"/>
<path d="M4317 10065 c3 -8 9 -12 14 -9 12 7 11 11 -5 17 -10 4 -13 1 -9 -8z"/>
<path d="M4360 10070 c0 -5 5 -10 11 -10 5 0 7 5 4 10 -3 6 -8 10 -11 10 -2 0
-4 -4 -4 -10z"/>
<path d="M3840 10050 c0 -5 5 -10 10 -10 6 0 10 5 10 10 0 6 -4 10 -10 10 -5
0 -10 -4 -10 -10z"/>
<path d="M3930 10045 c0 -14 25 -55 33 -55 5 0 4 6 -2 14 -10 11 -9 15 3 18
11 2 9 6 -9 15 -14 6 -25 10 -25 8z"/>
<path d="M4087 10026 c-4 -10 0 -12 14 -9 22 6 26 23 5 23 -8 0 -16 -6 -19
-14z"/>
<path d="M4165 10010 c-7 -23 -25 -26 -44 -7 -11 10 -13 10 -7 0 4 -7 2 -13
-3 -13 -6 0 -11 -4 -11 -9 0 -5 15 -8 32 -7 22 1 34 7 36 19 2 9 10 17 18 17
8 0 12 5 9 10 -10 16 -23 12 -30 -10z"/>
<path d="M4322 10010 c0 -14 2 -19 5 -12 2 6 2 18 0 25 -3 6 -5 1 -5 -13z"/>
<path d="M3677 10014 c-3 -3 -3 -13 0 -22 5 -11 2 -14 -10 -9 -13 5 -17 1 -17
-15 0 -16 3 -18 13 -9 8 6 17 8 20 4 4 -3 7 -1 7 5 0 7 4 12 10 12 5 0 7 -6 4
-13 -3 -8 2 -14 10 -14 8 0 13 4 10 9 -3 4 1 8 10 8 8 0 16 6 19 13 4 10 7 10
18 0 9 -10 10 -13 1 -13 -7 0 -12 -5 -12 -12 0 -7 7 -5 18 6 13 14 14 20 4 23
-10 4 -10 8 -1 19 9 11 8 14 -5 14 -9 0 -16 -5 -16 -11 0 -5 -4 -8 -9 -4 -6 3
-14 -3 -20 -12 -9 -16 -10 -16 -11 -2 0 9 -7 20 -16 23 -19 7 -19 7 -27 0z"/>
<path d="M3910 9991 c0 -5 14 -19 30 -31 36 -26 39 -18 5 15 -26 27 -35 31
-35 16z"/>
<path d="M3810 9975 c-17 -20 -23 -52 -12 -59 4 -2 9 5 9 16 1 12 7 24 14 28
6 4 10 13 7 20 -3 9 -8 7 -18 -5z"/>
<path d="M4065 9980 c-3 -5 1 -10 10 -10 9 0 13 5 10 10 -3 6 -8 10 -10 10 -2
0 -7 -4 -10 -10z"/>
<path d="M3991 9964 c0 -11 3 -14 6 -6 3 7 2 16 -1 19 -3 4 -6 -2 -5 -13z"/>
<path d="M4010 9975 c0 -10 29 -24 34 -17 3 6 -3 12 -14 15 -11 3 -20 4 -20 2z"/>
<path d="M3890 9960 c0 -5 5 -10 10 -10 6 0 10 5 10 10 0 6 -4 10 -10 10 -5 0
-10 -4 -10 -10z"/>
<path d="M4209 9958 c14 -19 32 -15 30 5 0 8 -2 8 -6 -1 -4 -10 -8 -10 -21 0
-15 12 -16 11 -3 -4z"/>
<path d="M3845 9940 c-3 -6 1 -7 9 -4 18 7 21 14 7 14 -6 0 -13 -4 -16 -10z"/>
<path d="M3913 9935 c-17 -19 -16 -26 1 -19 15 6 30 34 18 34 -4 -1 -13 -7
-19 -15z"/>
<path d="M3938 9910 c-5 -15 18 -39 37 -39 6 0 3 5 -6 12 -9 7 -18 19 -21 27
-4 13 -5 13 -10 0z"/>
<path d="M4050 9905 c-7 -8 -19 -15 -26 -15 -8 0 -14 -5 -14 -10 0 -7 6 -7 18
-1 19 10 49 41 39 41 -2 0 -10 -7 -17 -15z"/>
<path d="M3789 9873 c-10 -12 -10 -14 -1 -9 8 5 12 0 12 -15 0 -26 9 -21 15 9
5 28 -9 36 -26 15z"/>
<path d="M3855 9880 c-3 -5 -1 -10 4 -10 6 0 11 5 11 10 0 6 -2 10 -4 10 -3 0
-8 -4 -11 -10z"/>
<path d="M3645 9860 c5 -17 3 -18 -25 -10 -17 5 -30 5 -30 0 0 -5 -7 -7 -15
-4 -10 4 -15 0 -15 -15 0 -12 -6 -21 -12 -21 -9 0 -8 -3 2 -10 16 -10 33 7 23
24 -3 5 -1 6 5 2 7 -4 12 -3 12 2 0 5 12 8 27 6 42 -4 71 27 37 40 -12 4 -14
1 -9 -14z"/>
<path d="M3856 9848 c5 -8 2 -9 -10 -5 -9 4 -15 3 -11 -2 3 -5 -1 -12 -7 -14
-8 -4 -7 -6 4 -6 9 -1 20 4 23 9 4 6 10 8 14 6 4 -3 8 1 8 9 0 8 -7 15 -14 15
-8 0 -11 -5 -7 -12z"/>
<path d="M3954 9845 c3 -23 12 -26 13 -5 1 11 -2 20 -7 20 -4 0 -7 -7 -6 -15z"/>
<path d="M3725 9829 c-4 -11 -4 -23 -1 -26 3 -4 6 1 6 10 0 8 5 17 12 19 9 3
9 6 1 11 -7 4 -14 -1 -18 -14z"/>
<path d="M3765 9840 c3 -5 8 -10 11 -10 2 0 4 5 4 10 0 6 -5 10 -11 10 -5 0
-7 -4 -4 -10z"/>
<path d="M3400 9821 c0 -6 4 -12 9 -16 5 -3 8 -19 6 -35 -3 -24 0 -30 15 -30
11 0 20 4 20 10 0 5 -8 7 -17 3 -15 -5 -16 -3 -6 7 10 11 16 10 33 -5 18 -16
20 -16 20 -2 0 12 9 17 27 17 20 0 24 3 16 11 -8 8 -17 7 -34 -2 -17 -9 -24
-9 -27 0 -2 6 -8 9 -13 5 -5 -3 -13 6 -19 20 -9 25 -30 36 -30 17z"/>
<path d="M3604 9812 c-11 -8 -12 -28 -1 -36 4 -3 5 -3 2 1 -3 3 0 12 7 20 12
15 8 25 -8 15z"/>
<path d="M3755 9810 c-3 -5 -2 -10 4 -10 5 0 13 5 16 10 3 6 2 10 -4 10 -5 0
-13 -4 -16 -10z"/>
<path d="M3881 9804 c0 -11 3 -14 6 -6 3 7 2 16 -1 19 -3 4 -6 -2 -5 -13z"/>
<path d="M3795 9800 c3 -5 8 -10 11 -10 2 0 4 5 4 10 0 6 -5 10 -11 10 -5 0
-7 -4 -4 -10z"/>
<path d="M4070 9790 c0 -5 5 -10 11 -10 5 0 7 5 4 10 -3 6 -8 10 -11 10 -2 0
-4 -4 -4 -10z"/>
<path d="M3381 9778 c-1 -11 -6 -15 -16 -12 -11 5 -13 2 -9 -10 7 -18 13 -19
30 -8 7 4 8 15 3 27 -6 17 -8 17 -8 3z"/>
<path d="M3572 9755 c18 -21 38 -26 38 -9 0 3 -5 2 -11 -1 -6 -4 -13 2 -16 14
-3 12 -12 21 -19 21 -10 0 -7 -7 8 -25z"/>
<path d="M3200 9758 c0 -26 4 -33 16 -30 6 1 17 -5 24 -13 14 -17 30 -20 30
-4 0 5 -4 7 -10 4 -5 -3 -10 1 -10 10 0 8 -8 19 -17 22 -10 4 -21 11 -25 17
-5 7 -8 4 -8 -6z"/>
<path d="M3536 9751 c-4 -7 -5 -15 -2 -18 9 -9 19 4 14 18 -4 11 -6 11 -12 0z"/>
<path d="M3627 9753 c-4 -3 -7 -11 -7 -17 0 -6 5 -5 12 2 6 6 9 14 7 17 -3 3
-9 2 -12 -2z"/>
<path d="M3800 9741 c0 -25 6 -27 13 -6 4 8 2 17 -3 20 -6 4 -10 -3 -10 -14z"/>
<path d="M3353 9719 c11 -7 23 -7 28 -2 5 5 -3 9 -19 11 -24 1 -25 0 -9 -9z"/>
<path d="M3400 9720 c0 -5 5 -10 10 -10 6 0 10 5 10 10 0 6 -4 10 -10 10 -5 0
-10 -4 -10 -10z"/>
<path d="M3484 9718 c-4 -6 -3 -8 4 -4 5 3 12 1 14 -6 3 -7 12 -9 23 -4 16 6
17 9 5 16 -20 13 -37 12 -46 -2z"/>
<path d="M3360 9692 c0 -5 10 -17 22 -28 17 -14 20 -15 9 -2 -7 9 -10 22 -6
28 3 5 -1 10 -9 10 -9 0 -16 -4 -16 -8z"/>
<path d="M3400 9684 c0 -8 5 -12 10 -9 6 4 8 11 5 16 -9 14 -15 11 -15 -7z"/>
<path d="M3791 9684 c0 -11 3 -14 6 -6 3 7 2 16 -1 19 -3 4 -6 -2 -5 -13z"/>
<path d="M3930 9696 c0 -2 7 -7 16 -10 8 -3 12 -2 9 4 -6 10 -25 14 -25 6z"/>
<path d="M3339 9682 c8 -6 9 -11 3 -13 -7 -3 -5 -12 4 -24 15 -19 15 -19 12 9
-2 16 -10 31 -18 33 -12 4 -12 3 -1 -5z"/>
<path d="M3607 9683 c-3 -5 6 -9 20 -10 19 -1 22 1 12 8 -17 11 -26 11 -32 2z"/>
<path d="M3681 9674 c0 -11 3 -14 6 -6 3 7 2 16 -1 19 -3 4 -6 -2 -5 -13z"/>
<path d="M3430 9660 c0 -5 5 -10 10 -10 6 0 10 5 10 10 0 6 -4 10 -10 10 -5 0
-10 -4 -10 -10z"/>
<path d="M3526 9655 c4 -8 8 -15 10 -15 2 0 4 7 4 15 0 8 -4 15 -10 15 -5 0
-7 -7 -4 -15z"/>
<path d="M3710 9634 c0 -8 5 -12 10 -9 6 4 8 11 5 16 -9 14 -15 11 -15 -7z"/>
<path d="M3310 9630 c-13 -8 -12 -10 3 -10 9 0 17 -5 17 -12 0 -6 3 -9 6 -5 3
3 2 12 -3 21 -6 10 -13 12 -23 6z"/>
<path d="M3480 9621 c0 -8 -7 -11 -17 -6 -15 5 -16 4 -5 -6 9 -10 15 -10 24
-1 6 6 9 15 5 19 -4 3 -7 1 -7 -6z"/>
<path d="M3191 9603 c-1 -12 -7 -23 -13 -26 -7 -2 -10 -8 -5 -12 4 -5 13 0 21
10 7 10 17 15 23 12 5 -3 10 1 10 9 0 8 -6 13 -13 10 -7 -3 -15 0 -18 7 -2 7
-5 2 -5 -10z"/>
<path d="M3280 9611 c0 -5 5 -13 10 -16 6 -3 10 -2 10 4 0 5 -4 13 -10 16 -5
3 -10 2 -10 -4z"/>
<path d="M2870 9580 c9 -16 8 -20 -5 -20 -8 0 -15 -7 -15 -16 0 -13 4 -13 30
3 17 10 26 19 20 21 -5 2 -10 10 -10 18 0 8 -7 14 -15 14 -13 0 -14 -4 -5 -20z"/>
<path d="M3145 9561 c-1 -24 3 -37 10 -35 11 5 8 74 -4 74 -3 0 -6 -18 -6 -39z"/>
<path d="M3461 9574 c0 -11 3 -14 6 -6 3 7 2 16 -1 19 -3 4 -6 -2 -5 -13z"/>
<path d="M3536 9573 c-6 -14 -5 -15 5 -6 7 7 10 15 7 18 -3 3 -9 -2 -12 -12z"/>
<path d="M3120 9570 c0 -5 5 -10 10 -10 6 0 10 5 10 10 0 6 -4 10 -10 10 -5 0
-10 -4 -10 -10z"/>
<path d="M3316 9564 c-9 -23 -2 -28 13 -10 7 8 8 17 3 20 -6 3 -13 -1 -16 -10z"/>
<path d="M3400 9570 c-13 -8 -13 -10 2 -10 9 0 20 5 23 10 8 13 -5 13 -25 0z"/>
<path d="M3230 9549 c0 -5 5 -7 10 -4 6 3 10 8 10 11 0 2 -4 4 -10 4 -5 0 -10
-5 -10 -11z"/>
<path d="M2910 9540 c-13 -8 -13 -11 -1 -22 9 -8 11 -9 7 -1 -3 6 -2 14 4 18
5 3 10 2 10 -4 0 -5 9 -13 21 -16 16 -5 18 -10 9 -20 -9 -11 -7 -14 9 -12 28
2 26 9 -9 40 -34 31 -30 30 -50 17z"/>
<path d="M2955 9540 c3 -5 10 -10 16 -10 5 0 9 5 9 10 0 6 -7 10 -16 10 -8 0
-12 -4 -9 -10z"/>
<path d="M3486 9542 c-2 -4 4 -8 14 -8 10 0 16 4 14 8 -3 4 -9 8 -14 8 -5 0
-11 -4 -14 -8z"/>
<path d="M3365 9530 c3 -5 8 -10 11 -10 2 0 4 5 4 10 0 6 -5 10 -11 10 -5 0
-7 -4 -4 -10z"/>
<path d="M3238 9523 c7 -3 16 -2 19 1 4 3 -2 6 -13 5 -11 0 -14 -3 -6 -6z"/>
<path d="M3170 9505 c0 -7 30 -13 34 -7 3 4 -4 9 -15 9 -10 1 -19 0 -19 -2z"/>
<path d="M3271 9483 c7 -12 16 -19 19 -15 3 4 10 11 15 15 6 5 3 7 -6 4 -9 -3
-22 0 -29 6 -9 8 -8 5 1 -10z"/>
<path d="M2900 9480 c0 -13 18 -22 24 -11 3 5 -1 11 -9 15 -8 3 -15 1 -15 -4z"/>
<path d="M2970 9472 c0 -6 9 -12 20 -15 11 -3 20 -3 20 -1 0 2 -9 8 -20 14
-11 6 -20 7 -20 2z"/>
<path d="M3134 9461 c21 -23 26 -26 26 -11 0 5 -10 15 -22 21 -23 12 -23 12
-4 -10z"/>
<path d="M2720 9460 c0 -5 -6 -10 -14 -10 -24 0 -26 -15 -2 -16 15 -1 22 4 23
17 1 11 0 19 -3 19 -2 0 -4 -4 -4 -10z"/>
<path d="M3063 9456 c-12 -14 -8 -26 9 -26 4 0 7 6 6 13 -2 7 6 11 20 10 13
-2 21 1 17 7 -9 14 -38 12 -52 -4z"/>
<path d="M2750 9450 c0 -5 5 -10 10 -10 6 0 10 5 10 10 0 6 -4 10 -10 10 -5 0
-10 -4 -10 -10z"/>
<path d="M2951 9444 c0 -11 3 -14 6 -6 3 7 2 16 -1 19 -3 4 -6 -2 -5 -13z"/>
<path d="M3020 9450 c0 -5 5 -10 10 -10 6 0 10 5 10 10 0 6 -4 10 -10 10 -5 0
-10 -4 -10 -10z"/>
<path d="M2804 9439 c-7 -12 12 -29 34 -29 10 0 10 4 0 20 -14 23 -24 25 -34
9z"/>
<path d="M2966 9432 c-4 -7 -18 -12 -31 -12 -13 0 -26 -3 -29 -8 -5 -8 62 -7
71 1 3 3 3 11 1 18 -3 10 -6 10 -12 1z"/>
<path d="M3010 9415 c-11 -13 -10 -14 4 -9 9 3 16 10 16 15 0 13 -6 11 -20 -6z"/>
<path d="M3037 9405 c-4 -8 -3 -16 1 -19 4 -3 9 4 9 15 2 23 -3 25 -10 4z"/>
<path d="M2820 9391 c0 -5 7 -11 15 -15 8 -3 15 -1 15 3 0 5 -7 11 -15 15 -8
3 -15 1 -15 -3z"/>
<path d="M2655 9380 c3 -5 8 -10 11 -10 2 0 4 5 4 10 0 6 -5 10 -11 10 -5 0
-7 -4 -4 -10z"/>
<path d="M3007 9379 c7 -7 15 -10 18 -7 3 3 -2 9 -12 12 -14 6 -15 5 -6 -5z"/>
<path d="M2755 9361 c3 -5 1 -12 -5 -16 -5 -3 -10 0 -11 7 0 7 -4 2 -10 -10
-5 -13 -7 -28 -3 -33 8 -13 -20 -11 -34 3 -7 7 -12 9 -12 4 0 -15 29 -36 42
-31 8 3 20 20 28 38 7 17 15 35 18 40 2 4 -1 7 -8 7 -6 0 -9 -4 -5 -9z"/>
<path d="M2787 9353 c-10 -10 -8 -23 4 -23 5 0 8 4 5 9 -4 5 0 12 6 14 7 3 8
6 2 6 -6 1 -14 -2 -17 -6z"/>
<path d="M2825 9341 c-3 -12 -11 -21 -17 -21 -6 0 -5 -8 4 -17 9 -10 14 -23
11 -29 -2 -6 4 -17 14 -25 16 -13 17 -12 5 2 -7 9 -10 23 -6 32 3 8 1 18 -5
21 -16 10 -1 35 17 29 10 -3 13 -1 7 4 -5 4 -13 12 -17 16 -3 5 -9 -1 -13 -12z"/>
<path d="M2866 9345 c4 -8 11 -15 16 -15 6 0 5 6 -2 15 -7 8 -14 15 -16 15 -2
0 -1 -7 2 -15z"/>
<path d="M3080 9350 c0 -5 7 -7 15 -4 8 4 15 8 15 10 0 2 -7 4 -15 4 -8 0 -15
-4 -15 -10z"/>
<path d="M2700 9339 c0 -5 5 -7 10 -4 6 3 10 8 10 11 0 2 -4 4 -10 4 -5 0 -10
-5 -10 -11z"/>
<path d="M2970 9340 c-9 -6 -10 -10 -3 -10 6 0 15 5 18 10 8 12 4 12 -15 0z"/>
<path d="M3005 9319 c-4 -6 -5 -12 -2 -15 2 -3 7 2 10 11 7 17 1 20 -8 4z"/>
<path d="M2484 9308 c-4 -7 -3 -8 4 -4 7 4 12 1 12 -9 0 -12 -5 -15 -16 -11
-14 6 -15 4 -4 -9 9 -11 15 -13 20 -5 5 8 9 6 14 -5 3 -10 1 -24 -5 -31 -8 -9
-8 -14 -1 -14 6 0 13 8 17 18 3 11 17 24 30 30 14 6 25 16 25 22 0 14 -6 13
-25 -6 -18 -18 -47 -12 -39 9 6 17 -23 31 -32 15z"/>
<path d="M2760 9311 c0 -5 9 -11 21 -14 16 -4 18 -3 8 9 -13 16 -29 19 -29 5z"/>
<path d="M2861 9298 c-1 -11 6 -16 18 -15 11 0 17 5 15 9 -3 5 -9 6 -14 3 -4
-3 -11 1 -13 7 -4 8 -6 7 -6 -4z"/>
<path d="M3040 9300 c0 -5 5 -10 10 -10 6 0 10 5 10 10 0 6 -4 10 -10 10 -5 0
-10 -4 -10 -10z"/>
<path d="M2450 9270 c0 -20 5 -25 27 -27 22 -1 24 1 10 8 -9 5 -21 17 -26 27
-9 15 -10 14 -11 -8z"/>
<path d="M2755 9280 c3 -6 -4 -14 -17 -19 -13 -6 -18 -10 -11 -10 21 -2 43 11
43 25 0 8 -5 14 -11 14 -5 0 -7 -5 -4 -10z"/>
<path d="M2787 9273 c-4 -3 -7 -11 -7 -17 0 -6 5 -5 12 2 6 6 9 14 7 17 -3 3
-9 2 -12 -2z"/>
<path d="M2636 9262 c-3 -5 1 -9 9 -9 8 0 15 4 15 9 0 4 -4 8 -9 8 -6 0 -12
-4 -15 -8z"/>
<path d="M2925 9260 c-3 -5 -1 -10 4 -10 6 0 11 5 11 10 0 6 -2 10 -4 10 -3 0
-8 -4 -11 -10z"/>
<path d="M2307 9253 c-2 -5 -3 -16 -2 -25 2 -10 -1 -18 -6 -18 -5 0 -9 5 -9
12 0 6 -3 8 -6 5 -10 -9 16 -38 28 -31 5 3 12 -3 15 -15 3 -12 11 -21 18 -21
7 0 15 -3 18 -7 2 -5 2 -3 1 4 -2 7 2 15 8 19 6 4 8 3 5 -2 -3 -6 -1 -16 4
-24 8 -11 10 -8 6 12 -3 18 1 29 11 33 8 3 12 8 9 11 -6 6 -48 -16 -59 -31 -5
-6 -8 -6 -8 2 0 6 12 20 27 31 16 11 25 24 21 28 -4 4 -14 2 -22 -5 -8 -7 -16
-8 -18 -4 -3 4 -3 2 -2 -4 2 -7 -4 -13 -12 -13 -12 0 -15 6 -10 25 6 23 -7 36
-17 18z"/>
<path d="M2684 9240 c0 -11 4 -20 8 -20 4 0 8 9 8 20 0 11 -4 20 -8 20 -4 0
-8 -9 -8 -20z"/>
<path d="M2870 9250 c0 -5 5 -10 10 -10 6 0 10 5 10 10 0 6 -4 10 -10 10 -5 0
-10 -4 -10 -10z"/>
<path d="M2616 9225 c-5 -15 28 -13 42 1 8 9 5 11 -14 10 -13 0 -26 -6 -28
-11z"/>
<path d="M2565 9220 c-3 -5 -1 -10 4 -10 6 0 11 5 11 10 0 6 -2 10 -4 10 -3 0
-8 -4 -11 -10z"/>
<path d="M2730 9219 c0 -5 5 -7 10 -4 6 3 10 8 10 11 0 2 -4 4 -10 4 -5 0 -10
-5 -10 -11z"/>
<path d="M2695 9201 c-6 -11 13 -26 22 -17 4 3 1 6 -6 6 -7 0 -9 5 -6 10 3 6
4 10 1 10 -3 0 -7 -4 -11 -9z"/>
<path d="M2890 9195 c-11 -13 -10 -14 4 -9 9 3 16 10 16 15 0 13 -6 11 -20 -6z"/>
<path d="M2270 9185 c0 -9 11 -21 25 -27 22 -10 32 -36 26 -71 -2 -14 19 -47
31 -47 7 0 5 7 -4 18 -16 17 -18 48 -5 69 5 7 0 17 -12 24 -10 7 -17 19 -14
26 4 9 0 11 -11 7 -9 -3 -16 -1 -16 5 0 6 -4 11 -10 11 -5 0 -10 -7 -10 -15z"/>
<path d="M2558 9193 c7 -3 16 -2 19 1 4 3 -2 6 -13 5 -11 0 -14 -3 -6 -6z"/>
<path d="M2657 9179 c7 -7 15 -10 18 -7 3 3 -2 9 -12 12 -14 6 -15 5 -6 -5z"/>
<path d="M2980 9182 c0 -5 7 -9 15 -9 8 0 12 4 9 9 -3 4 -9 8 -15 8 -5 0 -9
-4 -9 -8z"/>
<path d="M2562 9167 c-8 -9 -8 -17 0 -27 8 -12 9 -12 4 3 -4 12 1 21 17 27 15
6 17 9 6 9 -9 1 -21 -5 -27 -12z"/>
<path d="M2790 9170 c0 -5 7 -7 15 -4 8 4 15 8 15 10 0 2 -7 4 -15 4 -8 0 -15
-4 -15 -10z"/>
<path d="M2450 9155 c7 -9 15 -13 17 -11 7 7 -7 26 -19 26 -6 0 -6 -6 2 -15z"/>
<path d="M2614 9139 c0 -10 4 -19 8 -19 4 0 8 6 8 14 0 8 -4 17 -8 20 -4 2 -8
-4 -8 -15z"/>
<path d="M2650 9145 c0 -9 6 -12 15 -9 8 4 12 10 9 15 -8 14 -24 10 -24 -6z"/>
<path d="M2280 9138 c0 -9 -6 -18 -12 -21 -10 -4 -10 -7 0 -18 10 -11 12 -10
12 4 0 20 16 23 23 5 3 -7 6 -8 6 -2 1 5 -6 19 -14 30 -12 16 -14 17 -15 2z"/>
<path d="M2500 9139 c-12 -8 -10 -9 9 -4 15 5 21 3 17 -3 -3 -5 1 -13 10 -16
24 -9 25 -8 7 14 -20 23 -23 23 -43 9z"/>
<path d="M2755 9140 c-3 -5 -2 -10 4 -10 5 0 13 5 16 10 3 6 2 10 -4 10 -5 0
-13 -4 -16 -10z"/>
<path d="M2810 9131 c0 -5 7 -12 16 -15 14 -5 15 -4 4 9 -14 17 -20 19 -20 6z"/>
<path d="M2360 9116 c0 -8 6 -16 14 -19 10 -4 12 0 9 14 -6 22 -23 26 -23 5z"/>
<path d="M2484 9094 c-1 -16 3 -24 15 -24 14 0 14 2 1 10 -10 6 -11 10 -2 10
6 0 12 4 12 9 0 22 -25 17 -26 -5z"/>
<path d="M2583 9113 c4 -3 2 -12 -5 -20 -8 -11 -7 -12 6 -7 18 7 22 34 4 34
-6 0 -8 -3 -5 -7z"/>
<path d="M2700 9116 c0 -2 7 -9 15 -16 13 -11 14 -10 9 4 -5 14 -24 23 -24 12z"/>
<path d="M2400 9099 c0 -5 5 -7 10 -4 6 3 10 8 10 11 0 2 -4 4 -10 4 -5 0 -10
-5 -10 -11z"/>
<path d="M2455 9099 c-4 -6 -5 -12 -2 -15 2 -3 7 2 10 11 7 17 1 20 -8 4z"/>
<path d="M2197 9070 c6 -22 23 -38 23 -21 0 17 -12 41 -20 41 -5 0 -6 -9 -3
-20z"/>
<path d="M2230 9080 c0 -5 5 -10 10 -10 6 0 10 -12 10 -26 0 -14 -4 -23 -9
-19 -6 3 -9 -4 -8 -15 1 -23 17 -28 17 -5 0 8 4 15 9 15 16 0 7 48 -11 59 -12
7 -18 8 -18 1z"/>
<path d="M2355 9080 c3 -5 8 -10 11 -10 2 0 4 5 4 10 0 6 -5 10 -11 10 -5 0
-7 -4 -4 -10z"/>
<path d="M2296 9065 c4 -8 1 -15 -5 -15 -6 0 -11 -5 -11 -11 0 -8 4 -9 13 0 8
6 16 8 20 5 3 -3 3 3 0 15 -3 12 -9 21 -14 21 -5 0 -6 -7 -3 -15z"/>
<path d="M2526 9064 c-5 -14 -4 -15 9 -4 17 14 19 20 6 20 -5 0 -12 -7 -15
-16z"/>
<path d="M1970 9060 c-8 -5 -11 -12 -7 -16 4 -4 13 -2 19 4 15 15 7 24 -12 12z"/>
<path d="M2383 9055 c0 -8 4 -12 9 -9 5 3 6 10 3 15 -9 13 -12 11 -12 -6z"/>
<path d="M2426 9054 c-11 -7 -18 -16 -15 -18 2 -2 13 2 23 10 11 7 18 16 15
18 -2 2 -13 -2 -23 -10z"/>
<path d="M2555 9060 c-3 -5 -3 -10 2 -11 4 0 -1 -4 -12 -9 -17 -8 -17 -8 7 -7
19 1 24 5 18 13 -6 6 -7 14 -3 17 3 4 4 7 0 7 -3 0 -9 -4 -12 -10z"/>
<path d="M2190 9033 c0 -4 5 -15 10 -23 8 -13 10 -13 10 2 0 9 -4 20 -10 23
-5 3 -10 3 -10 -2z"/>
<path d="M2095 9020 c4 -6 11 -8 16 -5 14 9 11 15 -7 15 -8 0 -12 -5 -9 -10z"/>
<path d="M2613 9013 c14 -14 19 -15 29 -4 11 10 10 11 -4 6 -11 -4 -18 -2 -18
4 0 6 -5 11 -12 11 -8 0 -6 -6 5 -17z"/>
<path d="M2055 9010 c3 -5 8 -10 11 -10 2 0 4 5 4 10 0 6 -5 10 -11 10 -5 0
-7 -4 -4 -10z"/>
<path d="M2010 9000 c0 -5 7 -7 15 -4 8 4 15 8 15 10 0 2 -7 4 -15 4 -8 0 -15
-4 -15 -10z"/>
<path d="M2370 8995 c-7 -9 -8 -15 -2 -15 5 0 12 7 16 15 3 8 4 15 2 15 -2 0
-9 -7 -16 -15z"/>
<path d="M2075 8990 c-3 -5 -1 -10 4 -10 6 0 11 5 11 10 0 6 -2 10 -4 10 -3 0
-8 -4 -11 -10z"/>
<path d="M2425 8989 c-4 -6 -5 -12 -2 -15 2 -3 7 2 10 11 7 17 1 20 -8 4z"/>
<path d="M2670 8996 c0 -2 7 -7 16 -10 8 -3 12 -2 9 4 -6 10 -25 14 -25 6z"/>
<path d="M2211 8974 c0 -11 3 -14 6 -6 3 7 2 16 -1 19 -3 4 -6 -2 -5 -13z"/>
<path d="M2267 8975 c-5 -11 0 -15 16 -15 12 0 18 4 12 8 -5 4 -13 11 -16 15
-4 4 -9 1 -12 -8z"/>
<path d="M2645 8960 c-3 -5 -1 -10 4 -10 6 0 11 5 11 10 0 6 -2 10 -4 10 -3 0
-8 -4 -11 -10z"/>
<path d="M2156 8945 c-9 -26 -7 -32 5 -12 6 10 9 21 6 23 -2 3 -7 -2 -11 -11z"/>
<path d="M2365 8949 c-4 -6 -5 -12 -2 -15 2 -3 7 2 10 11 7 17 1 20 -8 4z"/>
<path d="M2186 8927 c-11 -8 -16 -20 -13 -28 4 -11 6 -11 6 2 1 9 11 21 24 27
12 6 17 11 11 11 -5 1 -18 -5 -28 -12z"/>
<path d="M2030 8920 c-8 -5 -10 -10 -5 -10 6 0 17 5 25 10 8 5 11 10 5 10 -5
0 -17 -5 -25 -10z"/>
<path d="M2116 8885 c-3 -8 -1 -15 4 -15 6 0 10 7 10 15 0 8 -2 15 -4 15 -2 0
-6 -7 -10 -15z"/>
<path d="M2458 8888 c5 -5 16 -8 23 -6 8 3 3 7 -10 11 -17 4 -21 3 -13 -5z"/>
<path d="M1880 8876 c0 -8 4 -18 10 -21 6 -3 7 1 4 10 -5 11 -2 14 12 9 16 -5
16 -4 4 5 -21 15 -30 14 -30 -3z"/>
<path d="M1990 8870 c0 -5 5 -10 11 -10 5 0 7 5 4 10 -3 6 -8 10 -11 10 -2 0
-4 -4 -4 -10z"/>
<path d="M2046 8872 c-2 -4 4 -9 15 -9 11 -1 17 2 14 8 -7 11 -22 12 -29 1z"/>
<path d="M2330 8856 c7 -7 13 -7 20 0 6 6 3 10 -10 10 -13 0 -16 -4 -10 -10z"/>
<path d="M2195 8840 c3 -5 8 -10 11 -10 2 0 4 5 4 10 0 6 -5 10 -11 10 -5 0
-7 -4 -4 -10z"/>
<path d="M1818 8815 c-11 -24 -10 -29 7 -42 11 -8 19 -21 17 -29 -2 -8 2 -14
8 -14 5 0 10 14 10 31 0 23 -4 30 -14 26 -20 -8 -27 3 -15 25 6 11 8 22 5 25
-3 3 -11 -7 -18 -22z"/>
<path d="M1940 8830 c0 -5 5 -10 11 -10 5 0 7 5 4 10 -3 6 -8 10 -11 10 -2 0
-4 -4 -4 -10z"/>
<path d="M2038 8833 c6 -2 18 -2 25 0 6 3 1 5 -13 5 -14 0 -19 -2 -12 -5z"/>
<path d="M1975 8819 c-4 -6 -5 -12 -2 -15 2 -3 7 2 10 11 7 17 1 20 -8 4z"/>
<path d="M1840 8810 c0 -5 5 -10 10 -10 6 0 10 5 10 10 0 6 -4 10 -10 10 -5 0
-10 -4 -10 -10z"/>
<path d="M2114 8799 c-19 -22 -19 -22 4 -8 12 8 22 17 22 21 0 12 -6 9 -26
-13z"/>
<path d="M1995 8799 c-11 -17 1 -21 15 -4 8 9 8 15 2 15 -6 0 -14 -5 -17 -11z"/>
<path d="M2030 8801 c0 -10 19 -25 25 -20 1 2 -3 10 -11 17 -8 7 -14 8 -14 3z"/>
<path d="M1780 8789 c0 -5 5 -7 10 -4 6 3 10 8 10 11 0 2 -4 4 -10 4 -5 0 -10
-5 -10 -11z"/>
<path d="M1882 8776 c-10 -22 -7 -36 7 -36 3 0 7 14 8 30 3 36 0 37 -15 6z"/>
<path d="M1935 8780 c-3 -6 1 -7 9 -4 18 7 21 14 7 14 -6 0 -13 -4 -16 -10z"/>
<path d="M1786 8755 c4 -8 16 -14 28 -14 16 1 17 2 4 6 -10 2 -18 9 -18 14 0
5 -4 9 -10 9 -5 0 -7 -7 -4 -15z"/>
<path d="M2271 8754 c0 -11 3 -14 6 -6 3 7 2 16 -1 19 -3 4 -6 -2 -5 -13z"/>
<path d="M1930 8740 c0 -11 4 -20 9 -20 5 0 7 9 4 20 -3 11 -7 20 -9 20 -2 0
-4 -9 -4 -20z"/>
<path d="M1970 8749 c0 -5 5 -7 10 -4 6 3 10 8 10 11 0 2 -4 4 -10 4 -5 0 -10
-5 -10 -11z"/>
<path d="M2025 8730 c3 -5 8 -10 11 -10 2 0 4 5 4 10 0 6 -5 10 -11 10 -5 0
-7 -4 -4 -10z"/>
<path d="M2054 8722 c3 -6 -2 -13 -11 -15 -16 -4 -16 -5 -1 -6 21 -1 32 15 17
25 -7 4 -9 3 -5 -4z"/>
<path d="M1745 8711 c-3 -5 -2 -12 3 -15 5 -3 9 1 9 9 0 17 -3 19 -12 6z"/>
<path d="M1778 8713 c7 -3 16 -2 19 1 4 3 -2 6 -13 5 -11 0 -14 -3 -6 -6z"/>
<path d="M1990 8716 c0 -2 7 -7 16 -10 8 -3 12 -2 9 4 -6 10 -25 14 -25 6z"/>
<path d="M1683 8695 c-17 -19 -16 -21 6 -21 10 0 17 6 14 12 -2 7 4 14 14 17
16 4 16 5 -2 5 -11 1 -26 -5 -32 -13z"/>
<path d="M1800 8691 c0 -5 5 -13 10 -16 6 -3 10 -2 10 4 0 5 -4 13 -10 16 -5
3 -10 2 -10 -4z"/>
<path d="M1883 8694 c4 -4 1 -14 -6 -22 -10 -13 -9 -14 11 -3 27 14 27 17 5
25 -10 4 -14 4 -10 0z"/>
<path d="M1417 8672 c-19 -20 -13 -32 14 -32 25 0 34 19 17 36 -12 13 -17 12
-31 -4z m28 -12 c3 -6 -1 -7 -9 -4 -18 7 -21 14 -7 14 6 0 13 -4 16 -10z"/>
<path d="M1987 8683 c-14 -13 -7 -23 16 -22 17 1 18 2 4 6 -9 2 -15 9 -12 14
7 10 1 12 -8 2z"/>
<path d="M1742 8666 c-12 -7 -19 -15 -16 -19 4 -4 2 -7 -4 -7 -7 0 -12 -6 -12
-12 1 -7 10 -2 21 12 20 24 21 24 35 5 15 -20 17 -12 6 17 -6 14 -11 15 -30 4z"/>
<path d="M1820 8660 c-14 -4 -19 -8 -12 -9 6 -1 12 -13 13 -28 0 -17 3 -22 6
-13 4 8 13 21 22 28 14 10 13 11 -4 5 -18 -6 -18 -5 -6 10 7 9 12 17 10 16 -2
-1 -15 -5 -29 -9z"/>
<path d="M1674 8636 c-9 -20 -9 -26 3 -30 8 -3 11 -1 8 4 -3 5 -1 19 5 30 6
11 7 20 3 20 -4 0 -13 -11 -19 -24z"/>
<path d="M1611 8634 c0 -11 3 -14 6 -6 3 7 2 16 -1 19 -3 4 -6 -2 -5 -13z"/>
<path d="M1560 8623 c0 -13 2 -13 17 -2 15 12 16 12 10 -3 -4 -11 -2 -17 6
-15 7 1 12 -10 12 -30 0 -18 1 -33 2 -33 1 0 8 14 17 30 8 17 11 28 6 25 -5
-3 -16 5 -24 17 -18 26 -46 33 -46 11z"/>
<path d="M2052 8626 c7 -8 15 -12 17 -11 5 6 -10 25 -20 25 -5 0 -4 -6 3 -14z"/>
<path d="M1670 8586 c0 -13 37 -24 51 -15 12 9 12 10 -1 6 -8 -2 -23 0 -32 5
-10 5 -18 6 -18 4z"/>
<path d="M1895 8580 c3 -5 8 -10 11 -10 2 0 4 5 4 10 0 6 -5 10 -11 10 -5 0
-7 -4 -4 -10z"/>
<path d="M1786 8567 c3 -10 9 -15 12 -12 3 3 0 11 -7 18 -10 9 -11 8 -5 -6z"/>
<path d="M1522 8547 c-12 -13 -22 -30 -21 -38 0 -8 4 -4 9 9 9 22 30 31 30 12
0 -5 -4 -10 -10 -10 -5 0 -7 -7 -3 -16 5 -15 7 -15 15 0 5 9 8 24 6 33 -2 11
2 17 10 15 8 -1 11 2 7 8 -9 15 -19 12 -43 -13z"/>
<path d="M1680 8540 c0 -5 5 -10 10 -10 6 0 10 5 10 10 0 6 -4 10 -10 10 -5 0
-10 -4 -10 -10z"/>
<path d="M1755 8540 c3 -5 8 -10 11 -10 2 0 4 5 4 10 0 6 -5 10 -11 10 -5 0
-7 -4 -4 -10z"/>
<path d="M1723 8521 c4 -29 17 -39 17 -13 0 11 -5 24 -10 27 -6 4 -9 -2 -7
-14z"/>
<path d="M1453 8523 c-7 -3 -13 -12 -13 -21 1 -16 2 -16 14 0 10 13 15 15 24
6 9 -9 12 -8 12 3 0 16 -13 20 -37 12z"/>
<path d="M1595 8510 c4 -6 11 -8 16 -5 14 9 11 15 -7 15 -8 0 -12 -5 -9 -10z"/>
<path d="M1796 8505 c4 -8 11 -15 16 -15 6 0 5 6 -2 15 -7 8 -14 15 -16 15 -2
0 -1 -7 2 -15z"/>
<path d="M1495 8480 c-3 -6 1 -7 10 -4 11 5 14 2 9 -10 -3 -9 -1 -16 6 -16 6
0 8 5 4 12 -5 8 -1 9 12 5 18 -7 18 -7 0 8 -23 18 -33 19 -41 5z"/>
<path d="M1386 8465 c4 -8 11 -15 16 -15 6 0 5 6 -2 15 -7 8 -14 15 -16 15 -2
0 -1 -7 2 -15z"/>
<path d="M1447 8461 c-4 -17 -3 -21 5 -13 5 5 8 16 6 23 -3 8 -7 3 -11 -10z"/>
<path d="M1421 8454 c0 -11 3 -14 6 -6 3 7 2 16 -1 19 -3 4 -6 -2 -5 -13z"/>
<path d="M1470 8461 c0 -10 19 -25 25 -20 1 2 -3 10 -11 17 -8 7 -14 8 -14 3z"/>
<path d="M1252 8428 c-6 -6 -12 -19 -13 -27 0 -10 -4 -7 -9 7 -5 12 -16 22
-24 22 -10 0 -13 -6 -10 -15 4 -8 10 -15 16 -15 5 0 8 -10 6 -22 -2 -13 -9
-22 -15 -21 -6 1 -14 -4 -17 -12 -7 -20 8 -19 24 0 10 12 15 13 20 4 4 -6 13
-8 19 -5 6 4 9 12 5 17 -3 5 -10 7 -15 4 -14 -9 -11 5 5 21 9 8 22 11 33 7 15
-5 16 -4 7 8 -6 8 -13 20 -15 27 -3 10 -7 10 -17 0z"/>
<path d="M1347 8426 c-4 -10 1 -12 14 -9 23 6 24 9 5 16 -8 3 -17 0 -19 -7z"/>
<path d="M1505 8430 c-3 -5 -1 -10 4 -10 6 0 11 5 11 10 0 6 -2 10 -4 10 -3 0
-8 -4 -11 -10z"/>
<path d="M1431 8421 c-7 -5 -10 -14 -7 -20 4 -6 2 -11 -3 -11 -6 0 -11 -4 -11
-9 0 -5 11 -4 24 2 14 7 20 15 14 18 -6 4 -7 12 -4 18 9 13 6 14 -13 2z"/>
<path d="M1541 8414 c0 -11 3 -14 6 -6 3 7 2 16 -1 19 -3 4 -6 -2 -5 -13z"/>
<path d="M1301 8384 c-18 -21 -19 -25 -5 -22 9 1 20 13 25 26 11 28 8 28 -20
-4z"/>
<path d="M1370 8400 c-12 -8 -11 -10 8 -10 12 0 22 5 22 10 0 13 -11 13 -30 0z"/>
<path d="M1340 8360 c0 -5 5 -10 11 -10 5 0 7 5 4 10 -3 6 -8 10 -11 10 -2 0
-4 -4 -4 -10z"/>
<path d="M1580 8360 c0 -5 5 -10 11 -10 5 0 7 5 4 10 -3 6 -8 10 -11 10 -2 0
-4 -4 -4 -10z"/>
<path d="M1115 8350 c-3 -5 -2 -10 4 -10 5 0 13 5 16 10 3 6 2 10 -4 10 -5 0
-13 -4 -16 -10z"/>
<path d="M1142 8338 c-17 -17 -15 -28 4 -28 10 0 14 -7 12 -22 -2 -16 -12 -24
-32 -28 -28 -5 -50 -30 -27 -30 6 0 11 -4 11 -10 0 -5 -7 -10 -16 -10 -8 0
-12 -5 -9 -10 5 -8 11 -7 21 1 11 9 14 8 14 -8 0 -20 18 -43 34 -43 5 0 1 6
-10 14 -16 12 -17 18 -7 34 10 17 9 21 -8 25 -24 6 -25 26 -1 26 38 1 51 5 46
13 -3 4 1 8 8 8 10 0 11 2 0 8 -7 5 -10 16 -6 25 4 12 1 17 -10 17 -10 0 -13
6 -10 15 7 18 2 19 -14 3z"/>
<path d="M1456 8335 c-3 -8 -1 -15 4 -15 6 0 10 7 10 15 0 8 -2 15 -4 15 -2 0
-6 -7 -10 -15z"/>
<path d="M1268 8329 c-24 -14 -23 -28 2 -22 11 3 20 12 20 19 0 16 0 16 -22 3z"/>
<path d="M1318 8333 c7 -3 16 -2 19 1 4 3 -2 6 -13 5 -11 0 -14 -3 -6 -6z"/>
<path d="M1359 8324 c-10 -13 -10 -16 -1 -10 8 5 18 1 26 -10 11 -14 14 -15
21 -3 5 8 4 10 0 6 -5 -4 -14 2 -20 13 -11 20 -12 20 -26 4z"/>
<path d="M1076 8323 c12 -2 27 -15 34 -28 7 -14 18 -21 27 -18 23 9 -25 53
-56 52 -22 -1 -22 -2 -5 -6z"/>
<path d="M1216 8315 c4 -8 8 -15 10 -15 2 0 4 7 4 15 0 8 -4 15 -10 15 -5 0
-7 -7 -4 -15z"/>
<path d="M1057 8303 c-4 -3 -7 -11 -7 -17 0 -6 4 -5 9 3 6 9 11 10 15 2 4 -6
12 -11 18 -11 7 0 6 6 -2 15 -14 16 -23 19 -33 8z"/>
<path d="M1340 8279 c0 -5 5 -7 10 -4 6 3 10 8 10 11 0 2 -4 4 -10 4 -5 0 -10
-5 -10 -11z"/>
<path d="M1208 8263 c7 -3 16 -2 19 1 4 3 -2 6 -13 5 -11 0 -14 -3 -6 -6z"/>
<path d="M1361 8254 c0 -11 3 -14 6 -6 3 7 2 16 -1 19 -3 4 -6 -2 -5 -13z"/>
<path d="M1505 8259 c-4 -6 -5 -12 -2 -15 2 -3 7 2 10 11 7 17 1 20 -8 4z"/>
<path d="M1240 8255 c0 -5 5 -17 10 -25 5 -8 10 -10 10 -5 0 6 -5 17 -10 25
-5 8 -10 11 -10 5z"/>
<path d="M1010 8239 c0 -5 5 -7 10 -4 6 3 10 8 10 11 0 2 -4 4 -10 4 -5 0 -10
-5 -10 -11z"/>
<path d="M1210 8239 c0 -5 5 -7 10 -4 6 3 10 8 10 11 0 2 -4 4 -10 4 -5 0 -10
-5 -10 -11z"/>
<path d="M1368 8183 c5 -21 7 -23 10 -9 2 10 0 22 -6 28 -6 6 -7 0 -4 -19z"/>
<path d="M861 8188 c0 -10 -6 -18 -12 -18 -5 0 -7 -6 -3 -12 5 -9 2 -9 -9 1
-13 10 -17 10 -17 1 0 -10 -3 -10 -15 0 -12 10 -15 9 -15 -7 0 -15 6 -19 30
-18 38 2 53 16 47 46 -3 15 -5 17 -6 7z"/>
<path d="M1056 8164 c-4 -10 -1 -14 6 -12 15 5 23 28 10 28 -5 0 -13 -7 -16
-16z"/>
<path d="M1467 8169 c7 -7 15 -10 18 -7 3 3 -2 9 -12 12 -14 6 -15 5 -6 -5z"/>
<path d="M993 8146 c0 -6 14 -12 31 -12 17 -1 23 1 14 3 -10 2 -18 8 -18 12 0
4 -6 8 -13 8 -8 0 -14 -5 -14 -11z"/>
<path d="M1256 8145 c4 -8 8 -15 10 -15 2 0 4 7 4 15 0 8 -4 15 -10 15 -5 0
-7 -7 -4 -15z"/>
<path d="M926 8131 c-4 -6 -12 -9 -17 -6 -5 4 -9 -1 -9 -11 0 -13 3 -14 14 -5
11 10 17 8 25 -6 8 -14 10 -14 11 -3 0 24 -16 44 -24 31z"/>
<path d="M1060 8131 c0 -6 4 -13 10 -16 6 -3 7 1 4 9 -7 18 -14 21 -14 7z"/>
<path d="M848 8117 c-9 -6 -8 -7 5 -3 9 3 17 1 17 -4 0 -6 -7 -10 -15 -10 -8
0 -15 -4 -15 -10 0 -5 10 -9 22 -7 14 1 23 -4 26 -15 3 -16 1 -16 -27 -2 -24
12 -35 13 -48 4 -16 -10 -16 -11 -1 -6 20 6 34 -10 16 -17 -8 -3 -6 -6 5 -6 9
-1 17 4 17 9 0 7 6 7 18 1 10 -5 22 -7 28 -3 15 12 15 32 -1 38 -9 4 -13 13
-10 24 6 18 -15 23 -37 7z"/>
<path d="M1158 8123 c7 -3 16 -2 19 1 4 3 -2 6 -13 5 -11 0 -14 -3 -6 -6z"/>
<path d="M815 8100 c-3 -5 -1 -10 4 -10 6 0 11 5 11 10 0 6 -2 10 -4 10 -3 0
-8 -4 -11 -10z"/>
<path d="M1050 8090 c0 -5 4 -10 8 -10 5 0 13 -12 19 -27 l10 -28 -2 29 c-2
26 -35 61 -35 36z"/>
<path d="M920 8080 c0 -6 7 -10 15 -10 8 0 15 -4 15 -10 0 -5 5 -10 11 -10 6
0 9 5 7 12 -5 14 -48 31 -48 18z"/>
<path d="M985 8080 c3 -5 8 -10 11 -10 2 0 4 5 4 10 0 6 -5 10 -11 10 -5 0 -7
-4 -4 -10z"/>
<path d="M1021 8064 c0 -11 3 -14 6 -6 3 7 2 16 -1 19 -3 4 -6 -2 -5 -13z"/>
<path d="M920 8045 c0 -2 10 -10 23 -16 20 -11 21 -11 8 4 -13 16 -31 23 -31
12z"/>
<path d="M742 8024 c-7 -8 -8 -14 -3 -14 10 0 25 19 20 25 -2 1 -10 -3 -17
-11z"/>
<path d="M775 8032 c3 -3 0 -11 -6 -18 -7 -8 -6 -14 2 -20 8 -5 9 -3 4 6 -6
10 -4 12 8 7 9 -3 19 -2 22 3 8 13 35 0 35 -17 0 -10 -6 -13 -17 -8 -14 5 -16
4 -6 -6 10 -10 17 -9 33 9 12 12 26 22 33 22 7 0 3 -7 -7 -15 -18 -13 -18 -15
-3 -15 10 0 20 7 23 15 4 8 10 15 16 15 5 0 7 -4 4 -9 -3 -5 0 -11 8 -14 9 -4
12 0 9 13 -5 20 -33 36 -33 18 0 -7 -5 -6 -15 2 -10 9 -15 9 -15 1 0 -6 -7
-11 -16 -11 -9 0 -12 5 -8 12 4 7 3 8 -5 4 -6 -4 -17 -3 -24 2 -12 9 -51 13
-42 4z"/>
<path d="M1021 8026 c-9 -11 -8 -15 4 -20 9 -3 13 -10 10 -16 -3 -5 -2 -10 3
-10 5 0 9 14 8 30 -1 33 -8 37 -25 16z"/>
<path d="M700 8010 c0 -5 5 -10 11 -10 5 0 7 5 4 10 -3 6 -8 10 -11 10 -2 0
-4 -4 -4 -10z"/>
<path d="M586 7991 c-5 -8 5 -20 30 -34 7 -4 14 3 16 18 6 28 -8 35 -15 8 -4
-17 -5 -17 -6 0 -1 18 -16 23 -25 8z"/>
<path d="M660 7990 c12 -8 12 -10 -5 -10 -12 -1 -4 -7 19 -15 22 -8 43 -21 48
-29 5 -9 17 -16 26 -15 9 0 12 3 5 5 -7 3 -29 21 -49 40 -21 19 -43 34 -48 34
-6 0 -4 -5 4 -10z"/>
<path d="M910 7971 c0 -10 19 -25 25 -20 1 2 -3 10 -11 17 -8 7 -14 8 -14 3z"/>
<path d="M745 7960 c-3 -5 -1 -10 4 -10 6 0 11 5 11 10 0 6 -2 10 -4 10 -3 0
-8 -4 -11 -10z"/>
<path d="M800 7960 c0 -5 5 -10 11 -10 5 0 7 5 4 10 -3 6 -8 10 -11 10 -2 0
-4 -4 -4 -10z"/>
<path d="M650 7950 c0 -5 -7 -10 -15 -10 -8 0 -15 -7 -15 -15 0 -23 16 -18 34
10 9 14 12 25 6 25 -5 0 -10 -4 -10 -10z"/>
<path d="M891 7944 c0 -11 3 -14 6 -6 3 7 2 16 -1 19 -3 4 -6 -2 -5 -13z"/>
<path d="M683 7930 c1 -11 5 -20 9 -20 11 0 10 28 -1 35 -6 3 -9 -4 -8 -15z"/>
<path d="M1038 7923 c7 -3 16 -2 19 1 4 3 -2 6 -13 5 -11 0 -14 -3 -6 -6z"/>
<path d="M770 7910 c0 -5 -6 -10 -14 -10 -8 0 -17 -8 -20 -17 -8 -19 8 -40 18
-24 4 6 2 11 -4 11 -6 0 -9 4 -5 10 3 5 12 7 21 3 9 -3 14 0 12 8 -2 9 4 13
17 11 16 -2 17 -1 5 7 -19 14 -30 14 -30 1z"/>
<path d="M535 7890 c3 -5 8 -10 11 -10 2 0 4 5 4 10 0 6 -5 10 -11 10 -5 0 -7
-4 -4 -10z"/>
<path d="M701 7874 c0 -11 3 -14 6 -6 3 7 2 16 -1 19 -3 4 -6 -2 -5 -13z"/>
<path d="M1055 7870 c3 -5 8 -10 11 -10 2 0 4 5 4 10 0 6 -5 10 -11 10 -5 0
-7 -4 -4 -10z"/>
<path d="M312 7839 c3 -8 1 -22 -4 -32 -8 -16 -7 -17 9 -9 10 5 24 7 31 5 21
-8 12 11 -15 31 -18 13 -24 15 -21 5z"/>
<path d="M565 7842 c4 -8 0 -19 -11 -27 -18 -14 -18 -14 -1 -15 23 0 34 28 17
43 -10 9 -11 9 -5 -1z"/>
<path d="M678 7843 c7 -3 16 -2 19 1 4 3 -2 6 -13 5 -11 0 -14 -3 -6 -6z"/>
<path d="M157 7832 c-12 -2 -15 -7 -9 -15 12 -15 -17 -62 -38 -62 -8 0 -16 -9
-17 -20 -2 -11 0 -14 3 -7 15 32 21 12 25 -80 1 -29 5 -35 18 -30 13 5 14 3 4
-9 -9 -11 -7 -14 14 -16 15 0 22 2 17 5 -5 4 -16 16 -24 26 -14 18 -13 19 3
13 11 -4 20 -1 23 8 4 8 12 15 19 15 7 0 18 7 25 15 11 13 10 14 -5 9 -13 -5
-16 -4 -11 4 9 16 -14 47 -36 48 -10 1 -15 -2 -12 -7 3 -5 12 -9 20 -9 10 0
14 -8 11 -26 -3 -27 -22 -44 -47 -43 -10 0 -11 2 -2 6 7 2 17 14 23 26 10 21
10 21 -5 3 -9 -11 -16 -18 -17 -15 -7 53 -5 73 12 90 10 10 19 15 19 10 0 -5
7 -12 16 -15 8 -3 12 -2 9 4 -3 6 2 9 12 8 36 -3 54 2 47 13 -4 7 -1 10 7 7 8
-3 15 -12 17 -20 2 -12 -3 -14 -25 -10 -25 5 -27 4 -14 -12 8 -9 20 -15 27
-12 7 2 19 -3 28 -13 18 -20 22 -41 5 -24 -12 12 -49 6 -49 -8 0 -5 10 -7 23
-5 12 2 27 -1 34 -6 7 -5 14 -5 18 2 3 5 3 10 -1 10 -4 0 0 8 9 18 13 14 14
22 4 41 -14 28 -41 42 -31 17 3 -9 10 -16 15 -16 5 0 9 -7 9 -15 0 -19 -24
-19 -39 -1 -8 10 -9 16 -1 21 7 4 7 12 -1 26 -8 15 -7 24 2 35 11 13 8 15 -15
11 -15 -2 -31 -7 -34 -13 -8 -10 -48 -34 -58 -34 -4 0 -1 7 6 16 11 12 11 17
-1 28 -8 7 -22 11 -32 8z"/>
<path d="M480 7836 c0 -2 7 -7 16 -10 8 -3 12 -2 9 4 -6 10 -25 14 -25 6z"/>
<path d="M215 7820 c3 -5 8 -10 11 -10 2 0 4 5 4 10 0 6 -5 10 -11 10 -5 0 -7
-4 -4 -10z"/>
<path d="M655 7820 c-3 -5 -1 -10 4 -10 6 0 11 5 11 10 0 6 -2 10 -4 10 -3 0
-8 -4 -11 -10z"/>
<path d="M366 7805 c-3 -10 -12 -15 -21 -11 -22 8 -19 -20 4 -36 20 -14 21
-17 21 -48 0 -11 5 -20 10 -20 6 0 9 6 8 13 -2 6 4 12 12 12 8 0 18 4 22 9 3
5 17 11 29 13 33 5 37 13 6 13 -14 0 -28 -4 -31 -9 -3 -5 -15 -7 -25 -4 -21 5
-36 44 -21 53 5 3 5 11 1 19 -6 10 -10 9 -15 -4z"/>
<path d="M428 7803 c7 -3 16 -2 19 1 4 3 -2 6 -13 5 -11 0 -14 -3 -6 -6z"/>
<path d="M670 7781 c0 -10 19 -25 25 -20 1 2 -3 10 -11 17 -8 7 -14 8 -14 3z"/>
<path d="M490 7761 c0 -5 5 -13 10 -16 6 -3 10 -2 10 4 0 5 -4 13 -10 16 -5 3
-10 2 -10 -4z"/>
<path d="M800 7711 c0 -25 6 -27 13 -6 4 8 2 17 -3 20 -6 4 -10 -3 -10 -14z"/>
<path d="M450 7710 c0 -5 5 -10 10 -10 6 0 10 5 10 10 0 6 -4 10 -10 10 -5 0
-10 -4 -10 -10z"/>
<path d="M490 7700 c-12 -8 -10 -10 8 -10 13 0 20 4 17 10 -7 12 -6 12 -25 0z"/>
<path d="M540 7699 c0 -5 5 -7 10 -4 6 3 10 8 10 11 0 2 -4 4 -10 4 -5 0 -10
-5 -10 -11z"/>
<path d="M598 7703 c7 -3 16 -2 19 1 4 3 -2 6 -13 5 -11 0 -14 -3 -6 -6z"/>
<path d="M40 7650 c-8 -5 -11 -13 -6 -17 5 -4 11 -2 13 5 4 9 9 10 17 3 9 -8
13 -6 13 4 0 17 -15 19 -37 5z"/>
<path d="M220 7650 c-14 -9 -7 -14 13 -11 11 2 8 -24 -5 -37 -7 -7 -9 -12 -4
-12 4 0 15 7 23 16 13 13 18 13 25 2 8 -10 9 -10 5 2 -2 8 -10 14 -16 13 -22
-5 -11 8 15 18 15 5 24 12 21 15 -3 3 -15 0 -27 -6 -16 -8 -25 -9 -29 -2 -4 7
-12 8 -21 2z"/>
<path d="M4 7629 c-3 -6 -1 -16 5 -22 8 -8 11 -5 11 11 0 24 -5 28 -16 11z"/>
<path d="M86 7625 c-9 -24 -7 -35 5 -35 5 0 8 4 5 9 -4 5 0 11 6 14 10 3 10 8
2 16 -9 10 -13 8 -18 -4z"/>
<path d="M440 7630 c0 -5 7 -7 15 -4 8 4 15 8 15 10 0 2 -7 4 -15 4 -8 0 -15
-4 -15 -10z"/>
<path d="M40 7604 c0 -9 5 -14 12 -12 18 6 21 28 4 28 -9 0 -16 -7 -16 -16z"/>
<path d="M300 7605 c0 -8 5 -15 10 -15 6 0 10 7 10 15 0 8 -4 15 -10 15 -5 0
-10 -7 -10 -15z"/>
<path d="M340 7600 c-10 -19 -10 -20 9 -8 22 13 28 28 11 28 -5 0 -14 -9 -20
-20z"/>
<path d="M10 7570 c-12 -8 -11 -10 5 -10 l20 -1 -20 -15 c-20 -16 -20 -16 2
-10 18 6 21 3 18 -12 -2 -11 2 -19 11 -19 8 0 14 4 14 9 0 4 -5 8 -11 8 -5 0
-8 3 -5 8 2 4 -1 17 -7 29 -9 16 -16 20 -27 13z"/>
<path d="M54 7569 c-3 -6 -1 -16 6 -22 10 -9 12 -8 7 5 -3 9 -1 19 6 22 9 3 9
5 0 5 -6 1 -15 -4 -19 -10z"/>
<path d="M172 7560 c0 -14 2 -19 5 -12 2 6 2 18 0 25 -3 6 -5 1 -5 -13z"/>
<path d="M317 7563 c-4 -3 -7 -11 -7 -17 0 -6 5 -5 12 2 6 6 9 14 7 17 -3 3
-9 2 -12 -2z"/>
<path d="M260 7545 c-7 -9 -8 -15 -2 -15 5 0 12 7 16 15 3 8 4 15 2 15 -2 0
-9 -7 -16 -15z"/>
<path d="M207 7539 c7 -7 15 -10 18 -7 3 3 -2 9 -12 12 -14 6 -15 5 -6 -5z"/>
<path d="M110 7535 c0 -2 10 -10 23 -16 20 -11 21 -11 8 4 -13 16 -31 23 -31
12z"/>
<path d="M290 7530 c0 -5 5 -10 11 -10 5 0 7 5 4 10 -3 6 -8 10 -11 10 -2 0
-4 -4 -4 -10z"/>
<path d="M225 7510 c4 -6 11 -8 16 -5 14 9 11 15 -7 15 -8 0 -12 -5 -9 -10z"/>
<path d="M368 7497 c-3 -19 -2 -25 4 -19 6 6 8 18 6 28 -3 14 -5 12 -10 -9z"/>
<path d="M100 7500 c8 -5 20 -10 25 -10 6 0 3 5 -5 10 -8 5 -19 10 -25 10 -5
0 -3 -5 5 -10z"/>
<path d="M260 7500 c-8 -5 -12 -11 -10 -14 3 -2 14 2 24 10 22 15 10 19 -14 4z"/>
<path d="M740 7490 c0 -5 5 -10 11 -10 5 0 7 5 4 10 -3 6 -8 10 -11 10 -2 0
-4 -4 -4 -10z"/>
<path d="M58 7483 c7 -3 16 -2 19 1 4 3 -2 6 -13 5 -11 0 -14 -3 -6 -6z"/>
<path d="M147 7483 c-4 -3 -7 -11 -7 -17 0 -6 5 -5 12 2 6 6 9 14 7 17 -3 3
-9 2 -12 -2z"/>
<path d="M275 7470 c4 -6 11 -8 16 -5 14 9 11 15 -7 15 -8 0 -12 -5 -9 -10z"/>
<path d="M48 7452 c9 -10 19 -14 21 -9 2 5 -3 13 -10 18 -24 15 -30 10 -11 -9z"/>
<path d="M185 7440 c-3 -5 -1 -10 4 -10 6 0 11 5 11 10 0 6 -2 10 -4 10 -3 0
-8 -4 -11 -10z"/>
<path d="M135 7430 c-3 -5 -1 -10 4 -10 6 0 11 5 11 10 0 6 -2 10 -4 10 -3 0
-8 -4 -11 -10z"/>
<path d="M0 7416 c0 -2 7 -6 15 -10 8 -3 15 -1 15 4 0 6 -7 10 -15 10 -8 0
-15 -2 -15 -4z"/>
<path d="M60 7376 c0 -8 4 -17 9 -20 5 -4 7 3 4 14 -6 23 -13 26 -13 6z"/>
<path d="M75 7319 c-4 -6 -5 -12 -2 -15 2 -3 7 2 10 11 7 17 1 20 -8 4z"/>
<path d="M179 7303 c-13 -16 -12 -17 4 -4 16 13 21 21 13 21 -2 0 -10 -8 -17
-17z"/>
<path d="M81 7164 c0 -11 3 -14 6 -6 3 7 2 16 -1 19 -3 4 -6 -2 -5 -13z"/>
</g>
</svg>
