<?xml version="1.0" standalone="no"?>
<!DOCTYPE svg PUBLIC "-//W3C//DTD SVG 20010904//EN"
 "http://www.w3.org/TR/2001/REC-SVG-20010904/DTD/svg10.dtd">
<svg version="1.0" xmlns="http://www.w3.org/2000/svg"
 width="197.000000pt" height="256.000000pt" viewBox="0 0 197.000000 256.000000"
 preserveAspectRatio="xMidYMid meet">

<g transform="translate(0.000000,256.000000) scale(0.100000,-0.100000)"
fill="#000000" stroke="none">
<path d="M0 1280 l0 -1280 985 0 985 0 0 1280 0 1280 -985 0 -985 0 0 -1280z
m1090 1230 c201 -24 373 -106 518 -244 128 -122 216 -270 259 -435 21 -79 25
-120 25 -226 1 -158 -21 -257 -87 -392 -65 -136 -213 -325 -233 -298 -15 21
-51 14 -76 -15 -13 -17 -30 -30 -37 -30 -8 0 -10 -21 -7 -75 3 -41 1 -72 -4
-69 -4 3 -8 36 -8 74 0 37 -3 75 -6 84 -12 32 -24 3 -26 -62 l-1 -67 -6 59
c-4 38 -11 61 -20 64 -8 3 -11 0 -7 -7 4 -6 2 -11 -3 -11 -6 0 -11 -9 -11 -21
0 -11 4 -18 9 -14 5 3 13 0 17 -6 5 -8 3 -9 -6 -4 -10 6 -11 2 -6 -19 11 -44
-2 -29 -19 22 -15 47 -15 47 -9 7 3 -22 12 -50 20 -62 8 -13 14 -47 14 -78 0
-49 3 -57 24 -65 27 -10 100 -4 130 12 50 25 83 72 97 138 8 32 8 31 4 -9 -5
-56 -48 -120 -97 -144 -23 -11 -60 -18 -97 -18 -57 -1 -61 -2 -56 -22 8 -34
25 -150 25 -167 0 -13 -1 -13 -10 0 -8 12 -10 11 -10 -6 0 -32 -36 -64 -73
-64 -69 0 -102 53 -93 147 20 198 20 189 -5 206 -27 20 -34 16 -20 -11 12 -22
-7 -82 -37 -115 -9 -10 -16 -33 -15 -50 0 -20 -1 -24 -4 -9 -2 12 -9 22 -14
22 -5 0 -3 10 6 23 8 13 16 35 17 49 1 15 7 26 12 25 6 -1 12 8 14 20 3 17 0
21 -12 17 -10 -4 -16 -1 -16 7 0 8 -16 -9 -36 -36 l-36 -50 6 -95 c4 -52 14
-125 22 -163 11 -45 14 -87 9 -122 -12 -103 -22 -110 -17 -14 4 94 -8 169 -29
169 -5 0 -9 8 -9 18 0 9 -9 28 -19 41 l-19 24 -12 -74 -13 -74 -12 40 -13 40
-2 -50 c-2 -27 -4 -39 -6 -25 -2 14 -10 50 -16 80 -12 51 -13 53 -19 25 -3
-16 -6 11 -5 60 1 80 -2 94 -23 124 -20 27 -22 37 -13 52 18 28 15 55 -5 55
-10 1 -26 5 -37 9 -16 7 -17 5 -11 -16 5 -13 16 -60 26 -104 10 -44 22 -81 26
-82 11 -4 8 -222 -3 -233 -5 -5 -9 38 -9 103 0 69 -6 129 -14 157 l-15 45 -7
-45 c-4 -25 -8 -64 -8 -88 -1 -27 -5 -41 -11 -37 -7 4 -9 -14 -6 -52 3 -37 2
-45 -2 -23 l-7 35 -21 -50 c-12 -27 -25 -60 -29 -73 -4 -13 -9 -21 -11 -19 -3
2 11 51 31 108 19 57 35 116 35 131 0 14 -12 50 -27 78 -22 43 -28 49 -34 34
-6 -15 -8 -13 -9 11 -2 18 -4 23 -7 12 -2 -9 -9 -15 -14 -12 -7 5 -11 -22 -9
-70 1 -16 -34 -67 -55 -81 -16 -10 -25 -26 -25 -41 0 -32 -30 -83 -49 -83 -11
0 -9 6 6 22 28 30 34 71 11 76 -11 2 -18 -5 -21 -20 -4 -22 -4 -21 -6 3 -1 17
-10 30 -27 38 -15 6 -24 14 -21 17 3 3 14 1 25 -5 39 -21 73 -13 108 25 19 19
34 41 34 47 0 7 -5 6 -11 -3 -8 -12 -9 -10 -5 10 18 72 19 83 8 76 -9 -5 -12
7 -12 39 0 28 -4 44 -10 40 -6 -4 -10 7 -10 27 0 44 -13 62 -38 54 -20 -7 -57
-81 -51 -102 2 -5 -5 -23 -14 -41 -9 -18 -17 -36 -16 -40 1 -4 1 -17 0 -28 -1
-16 -3 -17 -11 -5 -8 12 -12 11 -32 -7 -13 -12 -39 -26 -60 -31 -30 -8 -42 -7
-67 9 -26 16 -31 25 -31 59 0 70 51 120 121 120 37 0 33 -10 -5 -14 -61 -7
-118 -78 -97 -123 13 -29 53 -46 84 -34 24 10 69 55 85 86 5 11 12 36 13 55 2
19 12 43 22 52 25 26 21 35 -16 36 -49 2 -81 16 -127 58 -49 44 -70 82 -70
123 0 16 -5 33 -11 37 -25 15 -135 174 -165 239 -35 76 -69 186 -77 250 -3 22
-3 34 0 27 4 -10 10 -9 25 5 16 14 20 15 18 3 -1 -8 -2 -24 0 -35 l1 -20 10
20 c7 16 8 13 4 -13 -2 -18 -1 -31 3 -28 5 3 16 -4 25 -15 19 -21 22 -33 7
-24 -16 10 -12 -3 10 -33 11 -15 20 -43 22 -63 1 -26 6 -35 15 -32 7 3 13 11
13 19 0 31 34 9 44 -28 3 -16 11 -28 17 -28 6 0 7 -4 4 -10 -4 -6 -16 -4 -31
6 -23 16 -24 15 -24 -5 0 -14 5 -19 15 -15 11 5 15 -1 15 -24 0 -17 5 -34 10
-37 6 -4 8 -10 5 -15 -3 -5 4 -14 15 -20 11 -6 20 -15 20 -21 0 -6 -4 -8 -9
-4 -5 3 -12 1 -15 -4 -4 -5 5 -8 19 -7 14 2 30 -3 37 -11 15 -19 22 -56 8 -48
-5 3 -10 2 -10 -4 0 -5 5 -13 10 -16 6 -4 8 -10 5 -15 -3 -4 1 -10 8 -13 8 -3
13 3 13 14 0 11 -3 19 -6 19 -3 0 -4 16 -2 36 3 28 1 35 -8 29 -8 -5 -11 -3
-8 6 3 8 -4 26 -14 41 -11 16 -15 28 -9 28 6 0 17 -12 24 -26 10 -19 16 -23
22 -14 5 8 -4 21 -24 38 -22 17 -31 31 -28 43 3 11 1 17 -4 13 -16 -9 -31 6
-19 21 7 9 6 16 -5 25 -28 23 -18 45 20 46 19 0 35 -4 35 -10 0 -6 4 -5 9 3 5
8 6 21 3 30 -5 14 -3 14 11 2 15 -12 17 -11 17 5 0 11 -9 25 -20 32 -12 7 -20
8 -20 2 0 -6 -12 -15 -26 -20 -21 -8 -29 -7 -39 7 -15 20 -9 43 11 43 8 0 14
7 14 16 0 8 -5 12 -10 9 -6 -3 -10 -1 -10 4 0 6 8 11 18 11 15 0 18 -6 14 -30
-5 -35 10 -39 32 -8 l16 22 39 -39 c28 -28 37 -43 30 -52 -7 -8 -5 -14 8 -21
10 -6 14 -14 9 -19 -5 -4 -11 -2 -13 5 -3 6 -9 12 -14 12 -6 0 -8 -4 -4 -9 3
-5 0 -13 -6 -17 -8 -5 -10 1 -7 20 4 18 2 24 -5 17 -15 -15 0 -56 25 -68 27
-12 48 4 48 37 0 20 1 20 16 6 17 -18 39 -22 29 -6 -3 5 0 7 8 4 18 -7 31 37
14 49 -7 4 -26 6 -44 3 -29 -4 -38 2 -88 55 l-55 60 19 37 c11 20 27 53 37 73
15 31 44 50 44 28 0 -20 32 -36 69 -35 36 1 41 -2 41 -22 0 -25 35 -44 69 -37
18 3 21 -1 21 -37 0 -35 -2 -39 -15 -28 -8 7 -16 22 -16 34 -1 15 -2 17 -6 4
-3 -13 -13 -16 -49 -13 -33 3 -44 1 -44 -10 0 -8 6 -12 14 -9 8 3 28 -8 45
-25 18 -17 28 -31 24 -31 -4 0 1 -6 10 -13 10 -6 21 -26 25 -42 5 -17 13 -29
18 -28 5 0 17 -3 27 -8 13 -8 17 -6 17 10 0 14 5 18 20 14 10 -3 24 -11 30
-18 8 -9 4 -11 -17 -8 -19 3 -24 2 -15 -5 7 -5 12 -13 11 -18 -4 -21 2 -35 11
-29 6 3 10 2 10 -4 0 -5 3 -18 6 -28 4 -11 -4 -6 -20 12 -14 17 -25 26 -26 21
0 -5 -8 -2 -17 5 -11 9 -8 1 7 -21 13 -19 28 -36 32 -38 4 -2 8 -13 9 -25 0
-14 3 -17 6 -8 3 8 13 22 21 32 13 15 19 16 30 6 13 -10 14 -8 7 12 -6 20 -4
22 13 17 11 -4 23 -2 27 4 3 6 11 8 16 5 5 -4 9 -1 9 4 0 14 -23 14 -37 0 -7
-7 -15 -6 -26 5 -9 9 -24 16 -34 16 -14 0 -15 2 -4 9 8 5 11 16 6 30 -4 12 -2
21 4 21 6 0 11 -5 11 -11 0 -6 7 -17 15 -26 8 -8 12 -19 9 -25 -5 -7 2 -9 22
-4 31 8 58 33 60 54 2 27 4 32 14 32 6 0 10 -7 10 -17 0 -9 3 -14 6 -10 4 3 3
14 -1 24 -17 38 -15 48 10 48 14 0 25 -4 25 -8 0 -5 5 -5 11 -2 20 13 56 -4
54 -25 -1 -11 -4 -23 -8 -26 -4 -4 -2 -13 4 -21 9 -9 8 -13 0 -13 -6 0 -14 7
-17 15 -4 8 -11 15 -16 15 -6 0 -3 -11 6 -25 11 -17 13 -25 5 -25 -7 0 -9 -3
-6 -7 4 -3 3 -11 -3 -18 -6 -7 -4 -21 5 -38 8 -15 10 -25 5 -22 -12 7 -12 3
-4 -19 9 -22 24 -10 24 20 0 13 4 24 10 24 5 0 7 7 4 15 -4 11 1 15 17 16 24
2 24 2 2 6 -14 3 -23 11 -22 21 0 11 3 12 6 5 2 -7 12 -13 21 -13 15 0 15 2 2
10 -12 8 -10 10 11 10 14 0 31 -6 38 -13 11 -10 13 -9 9 3 -2 8 -19 18 -38 23
-23 6 -30 11 -22 19 8 8 8 17 0 32 -7 12 -11 53 -11 91 1 39 -1 62 -4 53 -2
-10 -8 -18 -13 -18 -5 0 -7 -6 -4 -14 6 -16 -33 -29 -40 -12 -3 8 -7 7 -14 -2
-8 -11 -41 -22 -82 -26 -10 -1 -16 10 -18 37 -3 36 -3 37 33 37 20 0 34 -4 30
-9 -3 -5 -1 -12 5 -16 5 -3 10 3 10 15 0 12 4 19 9 15 5 -3 13 4 16 16 4 12
12 18 21 15 11 -4 12 -1 5 13 -25 45 -38 45 -91 0 l-50 -42 0 -63 c0 -35 -5
-74 -11 -88 l-11 -24 -34 20 c-32 19 -49 37 -21 23 6 -4 4 0 -5 8 -24 19 -23
27 5 28 12 0 16 3 10 6 -10 3 -13 50 -13 183 0 144 -3 180 -15 190 -12 10 -15
-4 -17 -111 -2 -90 -6 -124 -16 -127 -10 -3 -12 25 -10 137 3 135 2 141 -20
163 l-22 23 2 -205 c2 -148 6 -204 15 -203 6 1 14 -4 17 -13 4 -10 0 -14 -11
-12 -12 2 -19 -6 -23 -27 -11 -62 -19 7 -26 228 l-7 223 -63 -63 c-43 -41 -64
-57 -64 -45 0 15 266 292 280 292 4 0 6 -57 5 -126 0 -103 3 -130 17 -152 16
-24 18 -25 24 -7 4 11 15 31 24 45 12 17 15 32 9 45 -11 28 -11 45 0 45 5 0
14 -14 20 -32 15 -43 20 -33 12 24 -6 34 -4 45 5 41 8 -3 13 9 16 36 2 21 0
37 -4 35 -5 -3 -8 2 -8 10 0 9 -5 16 -10 16 -6 0 -5 8 2 20 7 12 22 20 33 19
41 -3 81 12 82 32 1 10 -2 19 -7 19 -6 0 -6 10 -1 23 4 12 6 27 4 33 -2 7 13
14 37 18 43 7 56 27 16 24 -14 -1 -22 -6 -20 -10 10 -16 -62 5 -78 23 -20 23
-28 24 -28 4 0 -8 -5 -15 -11 -15 -5 0 -8 4 -5 9 3 5 -1 11 -9 15 -8 3 -15 10
-15 16 0 6 6 8 13 5 6 -4 -1 5 -17 20 -16 15 -30 36 -31 48 -1 12 -3 27 -4 32
0 6 -16 9 -36 7 -19 -2 -32 -8 -30 -13 3 -4 -4 -13 -15 -19 -12 -6 -20 -7 -20
-1 0 5 -7 11 -16 13 -13 3 -13 6 -1 22 9 13 25 19 48 18 23 0 29 2 19 8 -12 7
-12 12 3 27 16 18 15 19 -21 21 -20 2 -38 7 -40 12 -2 6 -11 10 -20 10 -15 0
-15 2 -2 10 8 5 11 10 5 10 -5 0 -21 -9 -35 -20 -14 -11 -29 -20 -34 -20 -6 0
-1 7 10 15 25 19 14 19 -36 -1 -22 -9 -40 -23 -40 -31 0 -8 -4 -12 -9 -9 -14
9 -42 -5 -34 -17 3 -5 2 -8 -3 -4 -5 3 -20 -1 -34 -9 -14 -7 -21 -13 -16 -14
4 0 -7 -14 -24 -30 -18 -17 -38 -29 -44 -27 -6 2 -26 -11 -43 -30 -18 -19 -33
-31 -33 -26 -1 4 -10 -3 -21 -17 -22 -26 -28 -28 -38 -12 -3 5 -14 -1 -24 -14
-10 -14 -15 -24 -10 -23 17 3 24 -1 18 -11 -5 -8 -12 -7 -22 1 -12 10 -16 10
-23 -1 -4 -7 -6 -20 -3 -29 4 -12 3 -13 -5 -3 -5 8 -13 13 -18 11 -16 -4 -33
-34 -24 -43 10 -10 1 -38 -10 -31 -4 3 -13 -9 -20 -26 -7 -16 -22 -36 -32 -44
-11 -7 -17 -19 -13 -25 4 -6 0 -19 -8 -28 -13 -16 -28 -60 -47 -142 -6 -26 -8
-29 -9 -11 -1 33 38 161 49 161 5 0 7 6 4 14 -7 18 14 59 26 51 5 -3 8 3 7 13
-4 54 161 254 277 337 147 104 332 166 521 174 17 0 69 -4 115 -9z m-180 -282
c0 -12 -1 -19 -3 -17 -1 2 -9 12 -16 22 -12 14 -11 17 3 17 10 0 16 -8 16 -22z
m-85 2 c-3 -5 -11 -10 -16 -10 -6 0 -7 5 -4 10 3 6 11 10 16 10 6 0 7 -4 4
-10z m-41 -56 c20 -8 9 -34 -14 -34 -10 0 -20 -5 -22 -11 -2 -7 -9 -5 -18 5
-11 15 -11 17 0 14 8 -2 15 3 16 10 1 6 2 14 3 17 1 7 16 6 35 -1z m36 -64 c0
-5 -5 -10 -11 -10 -5 0 -7 5 -4 10 3 6 8 10 11 10 2 0 4 -4 4 -10z m-720 -412
c0 -34 -15 -25 -17 10 -2 26 1 32 7 22 5 -8 10 -23 10 -32z m-3 -79 c3 -23 1
-30 -6 -20 -7 11 -10 10 -14 -5 -2 -10 -4 0 -3 24 0 50 18 51 23 1z m0 -71
c-3 -8 -6 -5 -6 6 -1 11 2 17 5 13 3 -3 4 -12 1 -19z m23 -8 c0 -11 -4 -20 -9
-20 -5 0 -7 9 -4 20 3 11 7 20 9 20 2 0 4 -9 4 -20z m-33 -32 c-3 -8 -6 -5 -6
6 -1 11 2 17 5 13 3 -3 4 -12 1 -19z m805 -220 c-7 -7 -12 -8 -12 -2 0 14 12
26 19 19 2 -3 -1 -11 -7 -17z m623 -469 c41 -38 59 -79 35 -79 -5 0 -7 7 -4
15 4 10 -11 31 -42 60 -26 25 -44 45 -40 45 3 0 27 -19 51 -41z m-48 -31 c-3
-7 -5 -2 -5 12 0 14 2 19 5 13 2 -7 2 -19 0 -25z m-847 -72 c0 -2 -8 -10 -17
-17 -16 -13 -17 -12 -4 4 13 16 21 21 21 13z m235 -256 c3 -5 1 -10 -4 -10 -6
0 -11 5 -11 10 0 6 2 10 4 10 3 0 8 -4 11 -10z m-133 -288 c-12 -16 -29 -35
-38 -43 -10 -8 -2 7 17 32 37 50 55 59 21 11z m365 -114 c-3 -8 -6 -5 -6 6 -1
11 2 17 5 13 3 -3 4 -12 1 -19z"/>
<path d="M1000 2430 c0 -6 7 -10 15 -10 8 0 15 2 15 4 0 2 -7 6 -15 10 -8 3
-15 1 -15 -4z"/>
<path d="M980 2399 c-14 -4 -45 -13 -70 -18 l-45 -10 45 4 c30 2 50 -1 61 -11
19 -17 68 -9 76 13 3 7 4 15 2 17 -11 10 -47 13 -69 5z"/>
<path d="M1108 2393 c6 -2 18 -2 25 0 6 3 1 5 -13 5 -14 0 -19 -2 -12 -5z"/>
<path d="M1190 2351 c13 -9 13 -12 1 -20 -22 -14 -17 -61 13 -126 15 -33 24
-57 20 -53 -4 4 -14 2 -22 -5 -13 -9 -14 -9 -8 1 4 6 2 12 -3 12 -6 0 -12 -4
-12 -10 -1 -5 -2 -15 -3 -20 0 -6 -8 -15 -16 -21 -12 -9 -12 -10 3 -5 10 3 28
6 38 6 11 0 18 4 15 9 -3 5 0 11 8 14 21 8 26 -15 21 -84 -5 -57 12 -122 36
-139 5 -3 4 -12 -1 -20 -7 -11 -23 2 -74 54 l-66 68 0 -124 c0 -68 -5 -130
-10 -138 -7 -10 -10 -11 -10 -2 0 7 -12 18 -26 24 -22 10 -25 16 -19 45 7 38
-6 43 -27 12 -13 -20 -13 -18 -10 22 4 39 3 42 -12 30 -9 -7 -17 -23 -18 -35
0 -11 -4 0 -7 27 -6 46 -25 62 -27 22 0 -11 -2 -25 -5 -30 -3 -6 -2 -23 2 -40
5 -21 7 -24 9 -10 1 11 4 15 7 8 2 -7 11 -13 18 -13 8 0 36 -22 63 -49 37 -37
52 -47 61 -38 6 6 11 16 11 23 0 6 7 17 15 24 11 9 15 34 15 92 0 71 2 79 15
68 12 -10 15 -29 13 -72 -2 -32 -7 -58 -11 -58 -5 0 -5 -10 -2 -21 4 -12 1
-32 -6 -45 -10 -19 -10 -27 -1 -36 7 -7 12 -17 12 -22 0 -6 -5 -4 -11 4 -9 12
-10 12 -5 -4 4 -10 1 -26 -6 -35 -12 -14 -11 -14 5 -2 16 13 25 2 10 -13 -4
-3 -7 -15 -8 -26 -1 -15 1 -17 12 -9 10 9 13 6 12 -17 0 -16 -3 -23 -6 -16 -6
16 -23 6 -23 -15 0 -9 6 -13 14 -10 8 3 17 -3 21 -16 l8 -22 4 23 c3 15 11 22
29 22 30 0 32 18 2 22 -22 3 -23 7 -25 113 -3 107 -2 110 22 128 l25 18 0 -44
c0 -33 -5 -47 -17 -52 -16 -6 -16 -8 3 -15 19 -8 22 -18 26 -90 3 -66 7 -84
22 -96 17 -12 17 -14 3 -20 -10 -3 -17 -14 -17 -23 0 -12 2 -13 8 -3 12 18 54
9 63 -14 4 -10 8 -15 8 -10 1 11 31 -13 31 -25 0 -14 -28 -11 -33 4 -4 8 -8 9
-14 1 -9 -12 -47 -34 -60 -34 -4 0 -2 4 6 9 12 7 12 13 3 24 -7 7 -8 18 -4 22
4 5 1 5 -5 1 -8 -4 -13 -27 -13 -53 0 -69 -9 -47 -12 29 -2 56 -4 65 -17 58
-9 -5 -16 -22 -17 -39 -1 -17 2 -28 7 -25 5 3 9 2 10 -3 0 -4 2 -17 4 -27 5
-29 -7 -43 -17 -20 -6 14 -7 12 -3 -8 3 -16 1 -28 -5 -28 -5 0 -10 8 -10 19 0
10 -7 24 -15 31 -12 10 -15 9 -15 -7 0 -10 7 -29 16 -42 13 -18 22 -21 43 -16
14 4 31 8 38 8 7 0 10 4 7 9 -3 4 0 8 7 8 6 0 17 7 23 16 7 9 18 13 30 8 14
-5 15 -9 4 -15 -10 -7 -9 -9 5 -9 9 0 17 -5 17 -12 0 -6 3 -8 6 -5 4 3 15 2
24 -3 13 -7 20 -5 24 6 4 9 13 14 21 10 8 -3 15 -1 15 5 0 5 12 1 27 -8 21
-14 25 -15 18 -3 -8 13 -7 13 8 1 20 -16 22 -42 5 -59 -8 -8 -8 -12 -1 -12 36
0 6 -107 -36 -129 -13 -8 -18 -20 -16 -43 3 -35 22 -46 53 -32 9 4 20 6 24 6
5 -1 7 3 5 10 -1 6 11 18 26 26 27 13 27 14 10 30 -19 18 -23 45 -9 59 5 5 6
2 1 -7 -5 -8 -5 -12 0 -8 11 10 15 69 4 62 -5 -3 -9 -12 -9 -20 0 -8 -5 -12
-11 -9 -6 4 -8 13 -5 20 2 7 -1 19 -7 26 -10 11 -9 11 4 1 20 -15 60 -7 76 15
7 9 16 31 19 50 3 18 12 33 20 33 17 0 17 -5 2 -47 -10 -27 -10 -38 1 -55 11
-18 11 -22 -3 -30 -9 -5 -14 -13 -11 -19 4 -5 2 -9 -4 -9 -6 0 -8 -7 -5 -15 4
-8 1 -15 -5 -15 -8 0 -8 -4 1 -13 10 -12 16 -11 32 4 10 10 23 16 28 13 4 -3
8 1 8 9 0 8 7 20 15 27 13 11 15 10 9 -6 -5 -15 -4 -16 4 -4 6 8 9 18 6 22 -3
4 2 18 10 30 8 13 15 25 14 28 0 3 7 21 15 41 16 38 19 159 4 159 -4 0 -1 13
8 30 18 35 19 41 3 37 -9 -1 -12 7 -9 23 1 14 3 40 4 58 0 23 5 31 13 28 22
-9 26 12 10 59 -9 25 -15 49 -15 53 1 4 1 14 -1 22 -1 11 -4 9 -10 -5 -8 -18
-9 -18 -10 5 -1 14 -4 20 -6 13 -8 -20 -32 -3 -27 18 4 15 8 17 19 8 8 -7 17
-9 20 -6 9 8 -5 27 -20 27 -7 0 -18 12 -25 26 -6 15 -14 24 -17 21 -3 -3 0
-16 7 -29 l12 -23 -27 25 c-15 13 -24 30 -21 38 2 7 1 11 -4 8 -5 -3 -11 9
-15 26 -3 17 -14 40 -23 50 -10 11 -11 18 -5 18 7 0 12 -4 12 -9 0 -5 6 -11
14 -14 11 -5 11 0 -2 24 -9 16 -25 32 -35 35 -11 3 -16 12 -13 20 3 7 2 13 -2
12 -12 -3 -71 36 -77 51 -3 8 0 11 9 8 12 -5 13 -2 5 16 -5 12 -12 30 -15 40
-5 14 -9 15 -20 6 -11 -9 -12 -15 -2 -26 9 -11 8 -13 -3 -11 -8 2 -17 7 -21
12 -3 5 -14 2 -23 -7 -9 -10 -23 -17 -31 -17 -8 0 -14 -4 -14 -10 0 -5 -8 -10
-17 -10 -25 1 -137 63 -136 75 1 6 -3 18 -8 27 -7 13 -5 25 7 43 15 24 15 25
-2 26 -11 1 -23 1 -27 0 -5 -1 -6 3 -3 7 7 12 -23 38 -54 46 -19 6 -22 5 -10
-3z m60 -121 c0 -13 67 -81 82 -83 8 -2 31 -13 51 -25 21 -12 44 -22 50 -22 7
0 6 -4 -3 -10 -9 -5 -19 -5 -27 2 -7 6 -13 7 -13 4 0 -14 25 -31 49 -34 19 -3
23 0 19 15 -6 22 18 28 40 10 8 -6 17 -5 27 3 14 12 18 9 13 -7 -2 -5 -6 -7
-10 -6 -3 1 -12 -4 -18 -12 -10 -12 -9 -15 3 -15 9 0 19 5 22 10 5 8 11 8 19
1 7 -6 22 -8 34 -4 16 4 22 1 22 -11 0 -9 -4 -16 -10 -16 -5 0 -10 4 -10 8 0
4 -9 8 -20 8 -11 0 -20 -4 -20 -9 0 -4 -4 -6 -9 -3 -16 10 -19 -19 -3 -34 14
-13 15 -12 10 2 -4 9 -1 18 6 21 8 3 12 -3 10 -16 -1 -12 8 -30 20 -40 l21
-19 -22 5 c-13 3 -23 1 -23 -4 0 -5 7 -9 15 -9 14 0 13 -3 -1 -25 -13 -20 -19
-23 -31 -14 -16 14 -17 13 -37 -26 -13 -25 -16 -26 -17 -10 -1 16 -2 15 -8 -5
-5 -16 -2 -33 7 -47 13 -22 13 -23 -11 -23 -24 0 -42 23 -32 40 3 5 -4 14 -16
20 -19 11 -20 10 -14 -12 10 -33 35 -58 57 -58 11 0 26 -6 33 -14 12 -12 12
-16 0 -26 -13 -11 -13 -14 2 -25 10 -8 15 -17 10 -21 -4 -4 -7 -2 -7 6 0 10
-3 10 -15 0 -13 -11 -14 -10 -10 3 8 18 -4 26 -42 29 -15 1 -30 5 -33 8 -3 3
-17 15 -32 26 -37 28 -95 107 -91 121 5 13 31 6 51 -14 14 -14 44 -17 55 -7 7
8 -11 27 -39 42 -15 8 -24 8 -31 1 -7 -7 -13 -7 -17 -1 -3 6 3 13 13 17 12 4
18 12 14 21 -3 7 0 14 6 14 6 0 11 -7 11 -16 0 -13 2 -13 13 -2 21 20 16 48
-9 54 -15 4 -20 11 -17 23 5 19 -25 57 -35 46 -4 -3 0 -11 8 -16 13 -9 13 -10
0 -6 -8 2 -15 13 -15 24 0 12 -3 25 -7 29 -5 4 -8 12 -8 18 0 6 5 4 10 -4 7
-11 10 -11 10 -2 0 7 -10 17 -22 22 -13 5 -18 9 -13 9 6 1 -2 11 -17 24 -24
20 -32 44 -29 86 1 11 4 11 16 1 8 -7 15 -16 15 -20z m390 -200 c0 -5 -2 -10
-4 -10 -3 0 -8 5 -11 10 -3 6 -1 10 4 10 6 0 11 -4 11 -10z m-11 -117 c-3 -20
2 -26 11 -13 8 13 10 13 10 -1 0 -19 -26 -33 -35 -19 -10 16 -25 11 -25 -7 0
-14 2 -15 9 -5 6 11 10 10 15 -4 9 -24 -8 -38 -24 -19 -7 8 -19 15 -26 15 -26
0 -14 19 24 39 43 23 42 23 41 14z m-383 -72 c-7 -9 -16 -23 -19 -31 -3 -8 -6
7 -6 34 -1 49 -1 49 19 31 17 -16 18 -20 6 -34z m449 18 c11 -17 2 -18 -19 -3
-17 12 -17 14 -4 14 9 0 20 -5 23 -11z m-137 -31 c17 -17 15 -29 -3 -22 -9 4
-15 0 -16 -7 0 -13 -17 17 -18 34 -1 11 24 8 37 -5z m133 -5 c12 -14 12 -17 0
-21 -11 -4 -11 -6 0 -13 10 -6 11 -9 2 -9 -7 0 -13 -4 -13 -10 0 -5 7 -10 15
-10 33 0 9 -33 -32 -42 -15 -4 -20 -2 -17 7 3 7 13 11 24 8 10 -3 21 0 25 6 3
6 3 11 -2 10 -18 -3 -47 3 -35 8 19 7 14 23 -5 17 -17 -5 -17 -5 0 6 9 6 14
16 11 22 -4 6 -2 8 4 4 6 -3 13 -2 17 3 3 5 -3 14 -12 20 -10 6 -13 11 -7 11
6 0 18 -7 25 -17z m-263 -119 c3 16 23 21 35 10 3 -4 2 -15 -4 -25 -7 -14 -6
-25 6 -41 13 -19 15 -20 15 -5 0 27 29 33 46 9 9 -14 24 -20 42 -19 15 2 33
-3 39 -9 15 -15 7 -44 -12 -44 -16 0 -25 -43 -13 -64 7 -12 5 -16 -7 -16 -24
0 -18 -26 11 -44 17 -12 24 -25 22 -40 -1 -13 4 -31 11 -40 13 -15 12 -18 -7
-23 -12 -3 -22 -9 -22 -14 0 -20 -20 -7 -21 14 -1 21 -1 21 -9 -3 -9 -27 -11
-22 -15 43 -3 36 -14 46 -29 25 -12 -16 -15 -15 -34 12 -12 16 -22 34 -22 41
0 9 -3 9 -14 0 -11 -9 -15 -7 -20 13 -4 17 -15 26 -36 31 -23 5 -27 9 -18 19
6 6 23 12 37 11 40 -1 71 23 70 54 -1 21 -3 22 -6 5 -4 -23 -31 -39 -78 -48
-16 -3 -39 -8 -51 -12 -37 -10 -54 19 -54 97 0 59 3 69 18 69 16 1 16 1 0 11
-13 7 -18 23 -18 57 l0 46 68 -68 c46 -47 68 -63 70 -52z m343 56 c3 -19 5
-25 18 -48 7 -13 10 -27 6 -30 -3 -3 -8 4 -12 17 -4 17 -8 19 -14 9 -6 -9 -8
-5 -5 12 2 14 -1 31 -6 38 -7 8 -7 12 1 12 6 0 12 -4 12 -10z m-163 -41 c-26
-17 -40 -11 -28 12 9 16 14 18 26 8 12 -10 12 -14 2 -20z m9 -41 c-3 -8 -6 -5
-6 6 -1 11 2 17 5 13 3 -3 4 -12 1 -19z m117 -14 c8 -29 -2 -92 -15 -100 -5
-3 -9 -14 -9 -25 0 -10 -4 -19 -8 -19 -15 0 -30 23 -25 37 5 12 7 12 14 1 7
-10 9 -9 9 5 0 9 -5 17 -10 17 -10 0 -12 57 -3 93 7 27 40 21 47 -9z m-94 -19
c0 -8 -4 -15 -10 -15 -5 0 -7 7 -4 15 4 8 8 15 10 15 2 0 4 -7 4 -15z m4 -84
c9 -14 -4 -41 -20 -41 -15 0 -17 10 -8 34 7 18 20 21 28 7z m-184 -125 c0 -16
-21 -56 -30 -56 -16 0 -12 30 6 37 13 5 13 7 2 14 -10 7 -9 9 5 9 9 0 17 -2
17 -4z m65 -66 c3 -5 1 -10 -4 -10 -6 0 -11 5 -11 10 0 6 2 10 4 10 3 0 8 -4
11 -10z m229 -5 c-4 -11 -2 -13 9 -9 12 4 14 1 10 -16 -4 -15 -8 -18 -13 -10
-6 9 -9 9 -13 -1 -3 -11 -6 -10 -12 4 -4 10 -2 24 5 32 16 19 21 19 14 0z"/>
<path d="M1387 2033 c6 -14 29 -13 58 4 17 10 14 12 -21 10 -29 -1 -40 -5 -37
-14z"/>
<path d="M1330 1580 c0 -5 5 -10 11 -10 5 0 7 5 4 10 -3 6 -8 10 -11 10 -2 0
-4 -4 -4 -10z"/>
<path d="M1490 1571 c0 -6 5 -13 10 -16 6 -3 10 1 10 9 0 9 -4 16 -10 16 -5 0
-10 -4 -10 -9z"/>
<path d="M1510 1511 c0 -6 5 -13 10 -16 6 -3 10 1 10 9 0 9 -4 16 -10 16 -5 0
-10 -4 -10 -9z"/>
<path d="M1385 2340 c-3 -5 -1 -10 4 -10 6 0 11 5 11 10 0 6 -2 10 -4 10 -3 0
-8 -4 -11 -10z"/>
<path d="M1310 2335 c0 -2 14 -14 31 -26 30 -21 30 -21 18 -1 -11 17 -49 38
-49 27z"/>
<path d="M406 2255 c-11 -8 -17 -17 -14 -20 2 -3 13 4 23 15 21 23 18 25 -9 5z"/>
<path d="M1527 2239 c7 -7 15 -10 18 -7 3 3 -2 9 -12 12 -14 6 -15 5 -6 -5z"/>
<path d="M1486 2221 c-18 -7 -18 -8 -2 -14 19 -8 36 -1 36 14 0 10 -7 11 -34
0z"/>
<path d="M1147 2193 c-9 -9 -9 -43 1 -43 16 1 44 29 37 39 -7 12 -28 14 -38 4z"/>
<path d="M1606 2151 c-4 -5 -2 -12 3 -15 5 -4 12 -2 15 3 4 5 2 12 -3 15 -5 4
-12 2 -15 -3z"/>
<path d="M210 2070 c0 -5 5 -10 11 -10 5 0 7 5 4 10 -3 6 -8 10 -11 10 -2 0
-4 -4 -4 -10z"/>
<path d="M1725 1950 c11 -14 20 -26 21 -28 1 -2 1 10 1 25 0 15 -2 22 -4 15
-4 -10 -8 -10 -21 0 -12 9 -11 5 3 -12z"/>
<path d="M784 1927 c-10 -27 1 -150 14 -155 9 -3 12 18 12 82 0 52 -4 86 -10
86 -6 0 -13 -6 -16 -13z"/>
<path d="M733 1879 c-17 -17 -16 -34 1 -48 17 -14 25 3 17 37 -5 18 -8 21 -18
11z"/>
<path d="M951 1762 c-21 -10 -40 -30 -48 -48 -12 -30 -10 -34 30 -78 24 -25
47 -46 52 -46 16 0 81 77 77 90 -3 8 0 10 7 6 14 -9 14 6 0 38 -7 14 -26 32
-44 41 -40 18 -33 19 -74 -3z"/>
<path d="M833 1565 c-1 -69 2 -125 7 -125 19 0 27 32 29 123 2 91 -6 127 -28
127 -3 0 -7 -56 -8 -125z"/>
<path d="M1112 1664 c-8 -14 -6 -26 6 -49 l17 -30 3 32 c2 18 -1 40 -6 49 -9
15 -10 15 -20 -2z"/>
<path d="M900 1563 l0 -67 35 34 35 34 -32 33 c-18 18 -33 33 -35 33 -2 0 -3
-30 -3 -67z"/>
<path d="M1820 1620 c0 -5 5 -10 11 -10 5 0 7 5 4 10 -3 6 -8 10 -11 10 -2 0
-4 -4 -4 -10z"/>
<path d="M1015 1570 c-4 -6 -2 -17 4 -23 15 -15 25 -2 13 19 -7 12 -11 13 -17
4z"/>
<path d="M1117 1516 c-21 -21 -21 -24 -3 -42 11 -10 17 -11 22 -3 3 6 1 15 -6
19 -10 6 -10 8 0 12 7 2 11 10 9 17 -4 11 -9 10 -22 -3z"/>
<path d="M1161 1497 c0 -15 -14 -46 -31 -68 -16 -23 -26 -47 -23 -53 5 -7 9
-4 11 7 3 17 6 17 27 3 22 -14 23 -14 27 13 2 16 1 51 -3 77 -3 28 -7 37 -8
21z"/>
<path d="M520 1478 c0 -12 1 -19 3 -17 1 2 9 12 16 22 12 14 11 17 -3 17 -10
0 -16 -8 -16 -22z"/>
<path d="M553 1461 c1 -11 7 -23 14 -25 18 -7 16 19 -1 34 -12 9 -15 8 -13 -9z"/>
<path d="M465 1440 c-3 -5 1 -10 10 -10 9 0 13 5 10 10 -3 6 -8 10 -10 10 -2
0 -7 -4 -10 -10z"/>
<path d="M1200 1436 c0 -8 -6 -16 -12 -19 -7 -3 -4 -5 7 -4 13 1 21 8 21 19 0
10 -4 18 -8 18 -4 0 -8 -6 -8 -14z"/>
<path d="M405 1410 c10 -11 20 -20 23 -20 3 0 -3 9 -13 20 -10 11 -20 20 -23
20 -3 0 3 -9 13 -20z"/>
<path d="M466 1375 c5 -13 4 -16 -4 -11 -7 4 -12 5 -12 2 0 -9 34 -46 42 -46
16 0 7 37 -12 55 -20 18 -21 18 -14 0z"/>
<path d="M530 1380 c0 -5 5 -10 10 -10 6 0 10 5 10 10 0 6 -4 10 -10 10 -5 0
-10 -4 -10 -10z"/>
<path d="M840 1372 c0 -6 6 -13 13 -16 9 -5 9 -7 -1 -12 -13 -6 -7 -24 9 -24
15 0 7 53 -8 58 -7 2 -13 -1 -13 -6z"/>
<path d="M564 1354 c3 -9 6 -20 6 -25 0 -5 9 -1 20 8 27 23 25 33 -6 33 -20 0
-25 -4 -20 -16z"/>
<path d="M1117 1348 c-12 -9 -14 -17 -7 -28 6 -9 10 -10 10 -3 0 6 7 19 16 27
18 19 5 21 -19 4z"/>
<path d="M1015 1320 c3 -5 10 -10 16 -10 5 0 9 5 9 10 0 6 -7 10 -16 10 -8 0
-12 -4 -9 -10z"/>
<path d="M1120 1300 c-18 -12 -2 -12 25 0 13 6 15 9 5 9 -8 0 -22 -4 -30 -9z"/>
<path d="M1210 1285 c0 -15 6 -25 14 -25 19 0 30 32 14 42 -21 13 -28 9 -28
-17z"/>
<path d="M1495 1290 c-3 -5 -1 -10 4 -10 6 0 11 5 11 10 0 6 -2 10 -4 10 -3 0
-8 -4 -11 -10z"/>
<path d="M1496 1263 c-3 -4 3 -13 15 -21 11 -8 23 -11 26 -8 4 3 1 6 -6 6 -7
0 -10 4 -7 9 7 10 -19 23 -28 14z"/>
<path d="M325 1240 c3 -5 8 -10 11 -10 2 0 4 5 4 10 0 6 -5 10 -11 10 -5 0 -7
-4 -4 -10z"/>
<path d="M500 1200 c0 -5 5 -10 10 -10 6 0 10 5 10 10 0 6 -4 10 -10 10 -5 0
-10 -4 -10 -10z"/>
<path d="M605 1192 c3 -8 5 -17 5 -22 0 -10 45 -21 62 -15 7 3 14 16 14 28 1
21 -3 23 -42 23 -33 -1 -43 -4 -39 -14z"/>
<path d="M1120 1200 c20 -13 33 -13 25 0 -3 6 -14 10 -23 10 -15 0 -15 -2 -2
-10z"/>
<path d="M710 1178 c0 -9 5 -20 10 -23 13 -8 13 5 0 25 -8 13 -10 13 -10 -2z"/>
<path d="M1100 1180 c0 -5 5 -10 10 -10 6 0 10 5 10 10 0 6 -4 10 -10 10 -5 0
-10 -4 -10 -10z"/>
<path d="M485 1170 c3 -5 8 -10 11 -10 2 0 4 5 4 10 0 6 -5 10 -11 10 -5 0 -7
-4 -4 -10z"/>
<path d="M850 1157 c0 -9 -4 -17 -9 -17 -6 0 -9 -9 -8 -20 1 -11 4 -20 8 -20
8 0 21 61 14 68 -3 3 -5 -2 -5 -11z"/>
<path d="M975 1161 c-6 -11 20 -33 28 -24 4 3 7 10 7 14 0 11 -29 19 -35 10z"/>
<path d="M510 1150 c0 -5 5 -10 10 -10 6 0 10 5 10 10 0 6 -4 10 -10 10 -5 0
-10 -4 -10 -10z"/>
<path d="M895 1140 c-14 -16 -16 -23 -7 -32 9 -9 12 -7 12 8 0 11 5 25 12 32
7 7 10 12 7 12 -3 0 -14 -9 -24 -20z"/>
<path d="M1076 1147 c3 -10 9 -15 12 -12 3 3 0 11 -7 18 -10 9 -11 8 -5 -6z"/>
<path d="M465 1125 c-3 -8 -7 -22 -10 -31 -3 -9 -11 -14 -19 -11 -8 3 -22 -3
-32 -14 -16 -17 -13 -24 9 -20 5 1 6 -3 2 -9 -6 -10 52 -108 87 -147 24 -26
18 -53 -11 -50 -11 0 -18 4 -15 9 2 4 -5 12 -16 18 -15 8 -20 8 -20 -2 0 -7
-6 -4 -12 6 -14 25 -58 66 -70 66 -15 0 4 -54 32 -90 31 -40 112 -85 135 -77
11 5 15 21 15 55 0 41 -5 54 -34 85 -18 20 -32 37 -29 37 3 0 -5 15 -16 34
-27 44 -26 56 4 56 15 0 29 8 36 21 8 16 13 18 19 9 11 -17 51 -3 43 15 -3 8
-9 12 -14 9 -5 -3 -9 2 -9 10 0 9 -8 16 -19 16 -11 0 -23 5 -26 10 -9 15 -25
12 -30 -5z m15 -58 c0 -7 -9 -13 -21 -13 -19 0 -19 1 -3 13 10 7 19 13 21 13
2 0 3 -6 3 -13z"/>
<path d="M707 1129 c7 -7 15 -10 18 -7 3 3 -2 9 -12 12 -14 6 -15 5 -6 -5z"/>
<path d="M926 1124 c6 -2 9 -17 6 -33 -3 -19 1 -30 12 -34 13 -5 15 -1 10 21
-10 46 -13 52 -26 51 -8 0 -9 -2 -2 -5z"/>
<path d="M980 1118 c0 -4 7 -8 15 -8 8 0 15 4 15 8 0 5 -7 9 -15 9 -8 0 -15
-4 -15 -9z"/>
<path d="M1206 1112 c-4 -7 -11 -10 -16 -7 -18 11 -20 -16 -3 -34 18 -19 19
-19 41 -1 13 11 18 21 12 25 -5 3 -10 3 -11 -2 0 -4 -4 1 -8 11 -5 14 -10 16
-15 8z"/>
<path d="M797 1099 c7 -7 15 -10 18 -7 3 3 -2 9 -12 12 -14 6 -15 5 -6 -5z"/>
<path d="M969 1093 c17 -32 31 -37 46 -17 7 11 11 21 9 24 -3 2 -9 -2 -14 -10
-7 -12 -12 -11 -31 5 l-22 20 12 -22z"/>
<path d="M1054 1084 c4 -12 2 -15 -9 -11 -8 4 -17 2 -20 -3 -3 -5 4 -11 15
-15 11 -3 20 -11 20 -16 0 -6 -4 -8 -9 -5 -5 4 -17 3 -26 -1 -16 -5 -15 -8 6
-25 17 -14 19 -18 7 -14 -11 3 -18 0 -18 -8 0 -21 11 -26 31 -13 18 11 18 12
-4 35 l-22 24 26 -7 c31 -8 47 9 29 30 -9 10 -8 13 5 11 9 -1 20 -8 24 -15 6
-9 10 -7 14 8 4 17 1 21 -18 21 -13 0 -27 5 -30 10 -10 16 -28 11 -21 -6z"/>
<path d="M840 1082 c-19 -6 -30 -22 -29 -42 0 -10 2 -11 6 -2 7 17 28 15 43
-3 11 -13 15 -13 21 -3 6 9 9 5 10 -12 0 -14 1 -44 2 -66 1 -24 -2 -40 -8 -38
-5 2 -10 23 -10 47 0 36 -3 42 -20 39 -15 -2 -17 0 -6 6 9 7 10 12 2 16 -6 4
-11 4 -12 -1 -4 -43 -7 -54 -14 -60 -4 -5 -5 0 -2 10 4 9 2 17 -3 17 -6 0 -10
-18 -10 -40 0 -30 4 -40 16 -40 9 0 13 5 9 13 -4 6 2 3 12 -9 10 -11 26 -20
36 -18 9 1 17 -4 17 -11 0 -7 7 -15 15 -19 10 -3 15 1 15 13 0 10 7 24 15 31
27 22 16 80 -16 80 -14 0 -19 7 -19 26 0 17 4 23 13 18 6 -4 3 2 -8 13 -22 21
-44 26 -46 9 -1 -6 -4 -2 -7 10 -4 13 -13 19 -22 16z m23 -132 c-7 -28 -13
-25 -13 6 0 14 4 23 9 20 5 -3 7 -15 4 -26z m87 4 c0 -2 -11 -3 -24 -2 -14 1
-23 5 -20 9 4 7 44 0 44 -7z"/>
<path d="M786 1035 c3 -27 7 -52 10 -54 8 -8 3 64 -6 84 -6 13 -7 3 -4 -30z"/>
<path d="M720 1050 c11 -11 20 -32 20 -47 0 -14 3 -24 6 -20 3 3 3 24 -1 46
-5 31 -11 41 -26 41 -18 0 -18 -1 1 -20z"/>
<path d="M1150 1050 c-6 -11 -8 -20 -6 -20 3 0 10 9 16 20 6 11 8 20 6 20 -3
0 -10 -9 -16 -20z"/>
<path d="M1225 1050 c3 -5 11 -10 16 -10 6 0 7 5 4 10 -3 6 -11 10 -16 10 -6
0 -7 -4 -4 -10z"/>
<path d="M505 1040 c-3 -5 3 -10 14 -10 14 0 21 -6 21 -20 0 -13 5 -18 15 -14
8 4 15 13 15 21 0 8 -5 11 -12 7 -8 -5 -9 -2 -5 9 5 13 1 17 -18 17 -13 0 -27
-4 -30 -10z"/>
<path d="M651 1024 c0 -11 3 -14 6 -6 3 7 2 16 -1 19 -3 4 -6 -2 -5 -13z"/>
<path d="M690 1021 c0 -21 11 -35 29 -39 12 -3 12 0 2 12 -7 9 -11 22 -8 29 3
8 -1 14 -9 14 -8 0 -14 -7 -14 -16z"/>
<path d="M1191 1024 c0 -11 3 -14 6 -6 3 7 2 16 -1 19 -3 4 -6 -2 -5 -13z"/>
<path d="M950 1014 c0 -8 5 -12 10 -9 6 3 10 10 10 16 0 5 -4 9 -10 9 -5 0
-10 -7 -10 -16z"/>
<path d="M992 1010 c0 -14 2 -19 5 -12 2 6 2 18 0 25 -3 6 -5 1 -5 -13z"/>
<path d="M1171 1017 c0 -10 -7 -17 -13 -14 -7 2 -19 -5 -26 -17 -13 -21 -13
-21 -9 2 3 14 0 22 -8 22 -23 0 -25 -29 -2 -45 20 -15 22 -14 25 5 2 11 11 20
20 20 14 0 15 -2 2 -10 -8 -5 -11 -12 -7 -16 13 -14 29 13 24 42 -2 16 -5 21
-6 11z"/>
<path d="M1216 1021 c8 -8 44 -8 44 1 0 4 -11 7 -25 6 -13 -1 -22 -4 -19 -7z"/>
<path d="M583 1008 c2 -7 9 -13 15 -13 24 0 11 -18 -14 -21 -30 -3 -41 -11
-30 -21 3 -4 12 -1 18 5 9 9 16 8 29 -4 16 -14 16 -17 1 -34 -8 -11 -19 -17
-24 -14 -4 3 -8 -1 -8 -9 0 -8 9 -13 23 -12 12 1 33 -7 46 -19 13 -11 21 -16
17 -9 -3 6 -2 14 4 18 13 8 13 25 -1 25 -5 0 -8 -4 -4 -9 3 -5 1 -12 -4 -15
-5 -3 -11 0 -14 7 -3 8 4 19 15 26 20 13 20 13 -1 27 -16 11 -19 20 -12 32 9
17 -11 47 -23 35 -3 -4 -6 -1 -6 5 0 7 -7 12 -16 12 -9 0 -14 -6 -11 -12z"/>
<path d="M660 985 c-12 -30 -6 -45 17 -45 12 0 13 -3 3 -15 -6 -8 -8 -20 -4
-26 13 -21 24 28 14 57 -6 14 -8 29 -5 34 3 5 1 11 -5 15 -5 3 -15 -6 -20 -20z"/>
<path d="M1291 994 c0 -11 3 -14 6 -6 3 7 2 16 -1 19 -3 4 -6 -2 -5 -13z"/>
<path d="M1214 966 c1 -12 6 -24 11 -28 15 -11 45 -10 45 2 0 6 -10 10 -22 10
-21 1 -21 2 -5 11 24 14 21 25 -6 25 -17 0 -23 -6 -23 -20z"/>
<path d="M773 945 c0 -22 2 -30 4 -17 2 12 2 30 0 40 -3 9 -5 -1 -4 -23z"/>
<path d="M980 965 c0 -2 4 -15 10 -29 6 -17 6 -26 0 -26 -6 0 -10 -4 -10 -9 0
-5 13 -4 29 2 23 8 28 15 22 30 -6 17 -51 45 -51 32z"/>
<path d="M1433 955 c-11 -8 -22 -13 -24 -12 -2 1 4 -6 13 -15 21 -22 24 -22
32 -2 3 8 2 12 -4 9 -6 -3 -10 -2 -10 4 0 5 6 11 13 14 6 2 9 7 6 10 -3 4 -14
0 -26 -8z"/>
<path d="M1290 940 c0 -11 2 -20 4 -20 2 0 6 9 9 20 3 11 1 20 -4 20 -5 0 -9
-9 -9 -20z"/>
<path d="M570 940 c0 -5 7 -10 16 -10 8 0 12 5 9 10 -3 6 -10 10 -16 10 -5 0
-9 -4 -9 -10z"/>
<path d="M792 915 c0 -16 2 -22 5 -12 2 9 2 23 0 30 -3 6 -5 -1 -5 -18z"/>
<path d="M520 922 c0 -5 7 -9 15 -9 8 0 12 4 9 9 -3 4 -9 8 -15 8 -5 0 -9 -4
-9 -8z"/>
<path d="M1210 910 c0 -5 5 -10 10 -10 6 0 10 -8 10 -17 0 -14 2 -15 9 -4 7
11 9 11 14 0 2 -8 4 -2 3 13 -1 22 -6 28 -23 28 -13 0 -23 -4 -23 -10z"/>
<path d="M1068 893 c-21 -5 -23 -19 -6 -29 7 -5 8 -3 3 6 -5 9 -4 11 3 6 7 -4
12 -16 12 -28 0 -17 2 -18 15 -8 19 16 19 0 0 -26 -20 -26 -19 -33 5 -27 11 3
20 12 20 20 0 13 3 13 15 3 9 -7 19 -9 23 -5 4 4 1 10 -6 12 -6 3 -10 9 -7 13
3 5 1 11 -5 15 -5 3 -10 0 -10 -7 0 -8 -5 -6 -11 5 -5 9 -7 21 -4 27 7 12 -25
28 -47 23z"/>
<path d="M1160 879 c0 -5 5 -7 10 -4 6 3 10 8 10 11 0 2 -4 4 -10 4 -5 0 -10
-5 -10 -11z"/>
<path d="M575 860 c-4 -6 -11 -8 -16 -5 -5 4 -9 -13 -9 -38 0 -35 4 -46 19
-50 23 -6 50 41 31 53 -6 4 -12 17 -13 28 -1 25 -3 26 -12 12z"/>
<path d="M938 854 c-5 -4 -8 -26 -8 -48 1 -33 3 -38 11 -23 11 19 8 83 -3 71z"/>
<path d="M991 836 c-8 -20 -9 -32 -1 -40 16 -16 12 -26 -7 -19 -14 5 -15 3 -6
-7 15 -16 32 -5 30 20 -1 10 -5 16 -9 14 -4 -3 -8 -1 -8 5 0 5 5 11 11 13 6 2
9 13 7 23 -4 17 -7 16 -17 -9z"/>
<path d="M713 843 c-17 -6 -16 -25 3 -49 15 -18 15 -17 10 14 -4 23 -2 31 6
26 7 -4 8 -3 4 4 -4 7 -8 12 -9 11 -1 0 -8 -3 -14 -6z"/>
<path d="M1210 829 c-13 -9 -13 -10 2 -5 12 3 18 -2 20 -17 2 -13 6 -18 10
-11 4 6 2 18 -5 27 -9 13 -16 14 -27 6z"/>
<path d="M890 826 c0 -2 7 -7 16 -10 8 -3 12 -2 9 4 -6 10 -25 14 -25 6z"/>
<path d="M1022 805 c0 -16 2 -22 5 -12 2 9 2 23 0 30 -3 6 -5 -1 -5 -18z"/>
<path d="M1288 814 c-7 -7 -2 -76 9 -124 4 -20 8 -12 18 35 7 35 9 66 4 75 -7
13 -9 13 -9 0 -1 -11 -3 -10 -9 3 -3 10 -10 15 -13 11z"/>
<path d="M1205 800 c-3 -5 -1 -10 4 -10 6 0 11 5 11 10 0 6 -2 10 -4 10 -3 0
-8 -4 -11 -10z"/>
<path d="M787 780 c3 -11 9 -20 14 -20 11 0 11 3 3 24 -9 23 -23 20 -17 -4z"/>
<path d="M887 786 c-3 -8 1 -17 10 -20 22 -9 24 -4 8 17 -10 14 -14 15 -18 3z"/>
<path d="M840 773 c0 -13 5 -23 10 -23 13 0 13 11 0 30 -8 12 -10 11 -10 -7z"/>
<path d="M1202 758 c-7 -7 -12 -19 -12 -27 0 -8 3 -12 6 -8 4 3 15 -4 24 -16
18 -22 18 -22 17 20 -2 43 -13 53 -35 31z"/>
<path d="M672 730 c0 -19 2 -27 5 -17 2 9 2 25 0 35 -3 9 -5 1 -5 -18z"/>
<path d="M1332 740 c0 -14 2 -19 5 -12 2 6 2 18 0 25 -3 6 -5 1 -5 -13z"/>
<path d="M928 743 c7 -3 16 -2 19 1 4 3 -2 6 -13 5 -11 0 -14 -3 -6 -6z"/>
<path d="M1151 742 c0 -7 -5 -11 -10 -7 -5 3 -16 -4 -24 -15 -7 -11 -17 -17
-20 -14 -9 9 -19 -39 -15 -72 3 -27 4 -26 41 28 23 33 37 63 34 74 -3 11 -5
13 -6 6z"/>
<path d="M730 718 c0 -19 2 -20 10 -8 13 19 13 30 0 30 -5 0 -10 -10 -10 -22z"/>
<path d="M764 674 c-10 -50 -9 -62 4 -77 12 -14 18 -15 25 -5 6 9 7 8 3 -5 -6
-17 21 -84 30 -75 9 10 6 97 -5 145 -9 36 -17 50 -26 47 -7 -3 -15 2 -17 12
-1 10 -8 -9 -14 -42z m33 -26 c-3 -7 -5 -2 -5 12 0 14 2 19 5 13 2 -7 2 -19 0
-25z"/>
<path d="M1000 694 c0 -8 -7 -23 -16 -32 -13 -13 -15 -28 -10 -76 7 -73 26
-100 26 -37 0 23 4 40 9 37 9 -6 21 91 14 111 -7 18 -23 16 -23 -3z"/>
<path d="M1337 685 c-3 -19 0 -35 9 -45 12 -12 14 -11 13 10 0 14 -4 34 -8 45
-7 17 -9 16 -14 -10z"/>
<path d="M1061 700 c-2 -3 -4 -34 -6 -70 -3 -59 -3 -61 6 -25 8 33 8 111 0 95z"/>
<path d="M731 644 c0 -11 3 -14 6 -6 3 7 2 16 -1 19 -3 4 -6 -2 -5 -13z"/>
<path d="M1291 619 c1 -19 5 -45 9 -59 6 -18 7 -11 6 27 -1 29 -5 56 -9 59 -4
4 -7 -8 -6 -27z"/>
<path d="M952 610 c0 -14 2 -19 5 -12 2 6 2 18 0 25 -3 6 -5 1 -5 -13z"/>
<path d="M921 604 c0 -11 3 -14 6 -6 3 7 2 16 -1 19 -3 4 -6 -2 -5 -13z"/>
<path d="M1031 604 c0 -11 3 -14 6 -6 3 7 2 16 -1 19 -3 4 -6 -2 -5 -13z"/>
<path d="M1327 613 c-3 -5 -8 -35 -12 -68 -4 -33 -10 -53 -12 -45 -12 42 -17
43 -23 10 l-7 -35 -2 38 c0 20 -5 37 -10 37 -25 0 -29 -141 -5 -161 18 -15 21
-12 64 75 23 45 27 62 18 73 -8 10 -8 12 4 8 20 -8 34 55 16 67 -16 10 -26 10
-31 1z"/>
<path d="M1041 510 c0 -19 6 -46 14 -60 14 -24 15 -23 9 20 -9 61 -23 86 -23
40z"/>
<path d="M1368 534 c-4 -5 0 -18 8 -29 15 -20 17 -12 5 19 -4 11 -10 15 -13
10z"/>
<path d="M1317 438 c-29 -55 -35 -73 -25 -80 22 -13 38 -9 65 18 22 22 25 32
20 71 -2 24 -9 49 -13 53 -5 5 -26 -23 -47 -62z"/>
<path d="M940 486 c0 -8 -3 -23 -7 -33 -6 -17 -6 -17 10 -1 19 18 23 48 7 48
-5 0 -10 -6 -10 -14z"/>
<path d="M985 419 c7 -95 16 -102 13 -10 -1 40 -6 75 -10 77 -4 3 -5 -28 -3
-67z"/>
</g>
</svg>
