<?xml version="1.0" standalone="no"?>
<!DOCTYPE svg PUBLIC "-//W3C//DTD SVG 20010904//EN"
 "http://www.w3.org/TR/2001/REC-SVG-20010904/DTD/svg10.dtd">
<svg version="1.0" xmlns="http://www.w3.org/2000/svg"
 width="197.000000pt" height="256.000000pt" viewBox="0 0 197.000000 256.000000"
 preserveAspectRatio="xMidYMid meet">

<g transform="translate(0.000000,256.000000) scale(0.100000,-0.100000)"
fill="#000000" stroke="none">
<path d="M874 2509 c-138 -16 -300 -80 -420 -164 -116 -83 -281 -283 -277
-337 1 -10 -2 -16 -7 -13 -12 8 -33 -33 -26 -51 3 -8 1 -14 -4 -14 -11 0 -50
-128 -49 -161 1 -18 3 -15 9 11 19 82 34 126 47 142 8 9 12 22 8 28 -4 6 2 18
13 25 10 8 25 28 32 44 7 17 16 29 20 26 11 -7 20 21 10 31 -9 9 8 39 24 43 5
2 13 -3 18 -11 8 -10 9 -9 5 3 -3 9 -1 22 3 29 7 11 11 11 23 1 10 -8 17 -9
22 -1 6 10 -1 14 -18 11 -5 -1 0 9 10 23 10 13 21 19 24 14 10 -16 16 -14 38
12 11 14 20 21 21 17 0 -5 15 7 33 26 17 19 37 32 43 30 6 -2 26 10 44 27 17
16 28 30 24 30 -5 1 2 7 16 14 14 8 29 12 34 9 5 -4 6 -1 3 4 -8 12 20 26 34
17 5 -3 9 1 9 9 0 8 18 22 40 31 50 20 61 20 36 1 -11 -8 -16 -15 -10 -15 5 0
20 9 34 20 14 11 30 20 35 20 6 0 3 -5 -5 -10 -13 -8 -13 -10 2 -10 9 0 18 -4
20 -10 2 -5 20 -10 40 -12 36 -2 37 -3 21 -21 -15 -15 -15 -20 -3 -27 10 -6 4
-8 -19 -8 -23 1 -39 -5 -48 -18 -12 -16 -12 -19 1 -22 9 -2 16 -8 16 -13 0 -6
8 -5 20 1 11 6 18 15 15 19 -2 5 11 11 30 13 20 2 36 -1 36 -7 1 -5 3 -20 4
-32 1 -12 15 -33 31 -48 16 -15 23 -24 17 -20 -7 3 -13 1 -13 -5 0 -6 7 -13
15 -16 8 -4 12 -10 9 -15 -3 -5 0 -9 5 -9 6 0 11 7 11 15 0 20 8 19 28 -4 16
-18 88 -39 78 -23 -2 4 6 9 20 10 40 3 27 -17 -16 -24 -24 -4 -39 -11 -37 -18
2 -6 0 -21 -4 -33 -5 -13 -5 -23 1 -23 5 0 8 -9 7 -19 -1 -20 -41 -35 -82 -32
-11 1 -26 -7 -33 -19 -7 -12 -8 -20 -2 -20 5 0 10 -7 10 -16 0 -8 3 -13 8 -10
4 2 6 -14 4 -35 -3 -27 -8 -39 -16 -36 -9 4 -11 -7 -5 -41 8 -57 3 -67 -12
-24 -6 18 -15 32 -20 32 -11 0 -11 -17 0 -45 6 -13 3 -28 -9 -45 -9 -14 -20
-34 -24 -45 -6 -18 -8 -17 -24 7 -14 22 -17 49 -17 152 1 69 -1 126 -5 126
-14 0 -280 -277 -280 -292 0 -12 21 4 64 45 l63 63 7 -223 c7 -221 15 -290 26
-228 4 21 11 29 23 27 11 -2 15 2 11 12 -3 9 -11 14 -17 13 -9 -1 -13 55 -15
203 l-2 205 22 -23 c22 -22 23 -28 20 -163 -2 -112 0 -140 10 -137 10 3 14 37
16 127 2 107 5 121 17 111 12 -10 15 -46 15 -190 0 -133 3 -180 13 -183 6 -3
2 -6 -10 -6 -28 -1 -29 -9 -5 -28 9 -8 11 -12 5 -8 -28 14 -11 -4 21 -23 l34
-20 11 24 c6 14 11 53 11 88 l0 63 50 42 c53 45 66 45 91 0 7 -14 6 -17 -5
-13 -9 3 -17 -3 -21 -15 -3 -12 -11 -19 -16 -16 -5 4 -9 -3 -9 -15 0 -12 -5
-18 -10 -15 -6 4 -8 11 -5 16 4 5 -10 9 -30 9 -36 0 -36 -1 -33 -37 2 -27 8
-38 18 -37 41 4 74 15 82 26 7 9 11 10 14 2 7 -17 46 -4 40 12 -3 8 -1 14 4
14 5 0 11 8 13 18 3 9 5 -14 4 -53 0 -38 4 -79 11 -91 8 -15 8 -24 0 -32 -8
-8 -1 -13 22 -19 19 -5 36 -15 38 -23 4 -12 2 -13 -9 -3 -7 7 -24 13 -38 13
-21 0 -23 -2 -11 -10 13 -8 13 -10 -2 -10 -9 0 -19 6 -21 13 -3 7 -6 6 -6 -5
-1 -10 8 -18 22 -21 22 -4 22 -4 -2 -6 -16 -1 -21 -5 -17 -16 3 -8 1 -15 -4
-15 -6 0 -10 -11 -10 -24 0 -30 -15 -42 -24 -20 -8 22 -8 26 4 19 5 -3 3 7 -5
22 -9 17 -11 31 -5 38 6 7 7 15 3 18 -3 4 -1 7 6 7 8 0 6 8 -5 25 -9 14 -12
25 -6 25 5 0 12 -7 16 -15 3 -8 11 -15 17 -15 8 0 9 4 0 13 -6 8 -8 17 -4 21
4 3 7 15 8 26 2 21 -34 38 -54 25 -6 -3 -11 -3 -11 2 0 4 -11 8 -25 8 -25 0
-27 -10 -10 -48 4 -10 5 -21 1 -24 -3 -4 -6 1 -6 10 0 10 -4 17 -10 17 -10 0
-12 -5 -14 -32 -2 -21 -29 -46 -60 -54 -20 -5 -27 -3 -22 4 3 6 -1 17 -9 25
-8 9 -15 20 -15 26 0 6 -5 11 -11 11 -6 0 -8 -9 -4 -21 5 -14 2 -25 -6 -30
-11 -7 -10 -9 4 -9 10 0 25 -7 34 -16 11 -11 19 -12 26 -5 14 14 37 14 37 0 0
-5 -4 -8 -9 -4 -5 3 -13 1 -16 -5 -4 -6 -16 -8 -27 -4 -17 5 -19 3 -13 -17 7
-20 6 -22 -7 -12 -11 10 -17 9 -30 -6 -8 -10 -18 -24 -21 -32 -3 -9 -6 -6 -6
8 -1 12 -5 23 -9 25 -4 2 -19 19 -32 38 -15 22 -18 30 -7 21 9 -7 17 -10 17
-5 1 5 12 -4 26 -21 16 -18 24 -23 20 -12 -3 10 -6 23 -6 28 0 6 -4 7 -10 4
-9 -6 -15 8 -11 29 1 5 -4 13 -11 18 -9 7 -4 8 15 5 21 -3 25 -1 17 8 -6 7
-20 15 -30 18 -15 4 -20 0 -20 -14 0 -16 -4 -18 -17 -10 -10 5 -22 8 -27 8 -5
-1 -13 11 -18 28 -4 16 -15 36 -25 42 -9 7 -14 13 -10 13 4 0 -6 14 -24 31
-17 17 -37 28 -45 25 -8 -3 -14 1 -14 9 0 11 11 13 44 10 36 -3 46 0 49 13 4
13 5 11 6 -4 0 -12 8 -27 16 -34 13 -11 15 -7 15 28 0 36 -3 40 -21 37 -34 -7
-69 12 -69 37 0 20 -5 23 -41 22 -37 -1 -69 15 -69 35 0 22 -29 3 -44 -28 -10
-20 -26 -53 -37 -73 l-19 -37 55 -60 c50 -53 59 -59 88 -55 18 3 37 1 44 -3
17 -12 4 -56 -14 -49 -8 3 -11 1 -8 -4 10 -16 -12 -12 -29 6 -15 14 -16 14
-16 -6 0 -33 -21 -49 -48 -37 -25 12 -40 53 -25 68 7 7 9 1 5 -17 -3 -19 -1
-25 7 -20 6 4 9 12 6 17 -4 5 -2 9 4 9 5 0 11 -6 14 -12 2 -7 8 -9 13 -5 5 5
1 13 -9 19 -13 7 -15 13 -8 21 7 9 -2 24 -30 52 l-39 39 -16 -22 c-22 -31 -37
-27 -32 8 4 24 1 30 -14 30 -10 0 -18 -5 -18 -11 0 -5 4 -7 10 -4 5 3 10 -1
10 -9 0 -9 -6 -16 -14 -16 -20 0 -26 -23 -11 -43 10 -14 18 -15 39 -7 14 5 26
14 26 20 0 6 8 5 20 -2 11 -7 20 -21 20 -32 0 -16 -2 -17 -17 -5 -14 12 -16
12 -11 -2 3 -9 2 -22 -3 -30 -5 -8 -9 -9 -9 -3 0 6 -16 10 -35 10 -38 -1 -48
-23 -20 -46 11 -9 12 -16 5 -25 -12 -15 3 -30 19 -21 5 4 7 -2 4 -13 -3 -12 6
-26 28 -43 20 -17 29 -30 24 -38 -6 -9 -12 -5 -22 14 -7 14 -18 26 -24 26 -6
0 -2 -12 9 -28 10 -15 17 -33 14 -41 -3 -9 0 -11 8 -6 9 6 11 -1 8 -29 -2 -20
-1 -36 2 -36 3 0 6 -8 6 -19 0 -11 -5 -17 -13 -14 -7 3 -11 9 -8 13 3 5 1 11
-5 15 -5 3 -10 11 -10 16 0 6 5 7 10 4 14 -8 7 29 -8 48 -7 8 -23 13 -37 11
-14 -1 -23 2 -19 7 3 5 10 7 15 4 5 -4 9 -2 9 4 0 6 -9 15 -20 21 -11 6 -18
15 -15 20 3 5 1 11 -5 15 -5 3 -10 20 -10 37 0 23 -4 29 -15 24 -10 -4 -15 1
-15 15 0 20 1 21 24 5 15 -10 27 -12 31 -6 3 6 2 10 -4 10 -6 0 -14 12 -17 28
-10 37 -44 59 -44 28 0 -8 -6 -16 -13 -19 -9 -3 -14 6 -15 32 -2 20 -11 48
-22 63 -22 30 -26 43 -10 33 15 -9 12 3 -7 24 -9 11 -20 18 -25 15 -4 -3 -5
10 -3 28 4 26 3 29 -4 13 l-10 -20 -1 20 c-2 11 -1 27 0 35 2 12 -2 11 -18 -3
-15 -14 -21 -15 -25 -5 -3 7 -3 -5 0 -27 8 -64 42 -174 77 -250 30 -65 140
-224 165 -239 6 -4 11 -21 11 -37 0 -41 21 -79 70 -123 46 -42 78 -56 127 -58
37 -1 41 -10 16 -36 -10 -9 -20 -33 -22 -52 -1 -19 -8 -44 -13 -55 -16 -31
-61 -76 -85 -86 -31 -12 -71 5 -84 34 -21 45 36 116 97 123 38 4 42 14 5 14
-70 0 -121 -50 -121 -120 0 -34 5 -43 31 -59 25 -16 37 -17 67 -9 21 5 47 19
60 31 20 18 24 19 32 7 8 -12 10 -11 11 5 1 11 1 24 0 28 -1 4 7 22 16 40 9
18 16 36 14 41 -6 21 31 95 51 102 25 8 38 -10 38 -54 0 -20 4 -31 10 -27 6 4
10 -12 10 -40 0 -32 3 -44 12 -39 11 7 10 -4 -8 -76 -4 -20 -3 -22 5 -10 6 9
11 10 11 3 0 -6 -15 -28 -34 -47 -35 -38 -69 -46 -108 -25 -11 6 -22 8 -25 5
-3 -3 6 -11 21 -17 17 -8 26 -21 27 -38 2 -24 2 -25 6 -3 3 15 10 22 21 20 23
-5 17 -46 -11 -76 -15 -16 -17 -22 -6 -22 19 0 49 51 49 83 0 15 9 31 25 41
21 14 56 65 55 81 -2 48 2 75 9 70 5 -3 12 3 14 12 3 11 5 6 7 -12 1 -24 3
-26 9 -11 6 15 12 9 34 -34 15 -28 27 -64 27 -78 0 -15 -16 -74 -35 -131 -20
-57 -34 -106 -31 -108 2 -2 7 6 11 19 4 13 17 46 29 73 l21 50 7 -35 c4 -22 5
-14 2 23 -3 38 -1 56 6 52 6 -4 10 10 11 37 0 24 4 63 8 88 l7 45 15 -45 c8
-28 14 -88 14 -157 0 -65 4 -108 9 -103 11 11 14 229 3 233 -4 1 -16 38 -26
82 -10 44 -21 91 -26 104 -6 21 -5 23 11 16 11 -4 27 -8 37 -9 20 0 23 -27 5
-55 -9 -15 -7 -25 13 -52 21 -30 24 -44 23 -124 -1 -49 2 -76 5 -60 6 28 7 26
19 -25 6 -30 14 -66 16 -80 2 -14 4 -2 6 25 l2 50 13 -40 12 -40 13 74 12 74
19 -24 c10 -13 19 -32 19 -41 0 -10 4 -18 9 -18 21 0 33 -75 29 -169 -5 -96 5
-89 17 14 5 35 2 77 -9 122 -8 38 -18 111 -22 163 l-6 95 36 50 c20 27 36 44
36 36 0 -8 6 -11 16 -7 12 4 15 0 12 -17 -2 -12 -8 -21 -14 -20 -5 1 -11 -10
-12 -25 -1 -14 -9 -36 -17 -49 -9 -13 -11 -23 -6 -23 5 0 12 -10 14 -22 3 -15
4 -11 4 9 -1 17 6 40 15 50 30 33 49 93 37 115 -14 27 -7 31 20 11 25 -17 25
-8 5 -206 -9 -94 24 -147 93 -147 37 0 73 32 73 64 0 17 2 18 10 6 9 -13 10
-13 10 0 0 17 -17 133 -25 167 -5 20 -1 21 56 22 37 0 74 7 97 18 49 24 92 88
97 144 4 40 4 41 -4 9 -14 -66 -47 -113 -97 -138 -30 -16 -103 -22 -130 -12
-21 8 -24 16 -24 65 0 31 -6 65 -14 78 -8 12 -17 40 -20 62 -6 40 -6 40 9 -7
17 -51 30 -66 19 -22 -5 21 -4 25 6 19 9 -5 11 -4 6 4 -4 6 -12 9 -17 6 -5 -4
-9 3 -9 14 0 12 5 21 11 21 5 0 7 5 3 11 -4 7 -1 10 7 7 9 -3 16 -26 20 -64
l6 -59 1 67 c2 65 14 94 26 62 3 -9 6 -47 6 -84 0 -38 4 -71 8 -74 5 -3 7 28
4 69 -3 54 -1 75 7 75 7 0 24 13 37 30 25 29 61 36 76 15 20 -27 168 162 233
298 66 135 88 234 87 392 0 106 -4 147 -25 226 -95 364 -404 634 -777 679 -94
11 -114 11 -216 -1z m156 -85 c0 -2 -7 -4 -15 -4 -8 0 -15 4 -15 10 0 5 7 7
15 4 8 -4 15 -8 15 -10z m19 -30 c2 -2 1 -10 -2 -17 -8 -22 -57 -30 -76 -13
-11 10 -31 13 -61 11 l-45 -4 45 10 c25 5 56 14 70 18 22 8 58 5 69 -5z m84
-1 c-7 -2 -19 -2 -25 0 -7 3 -2 5 12 5 14 0 19 -2 13 -5z m109 -61 c10 -8 15
-19 12 -24 -3 -4 -2 -8 3 -7 4 1 16 1 27 0 17 -1 17 -2 2 -26 -12 -18 -14 -30
-7 -43 5 -9 9 -21 8 -27 -1 -12 111 -74 136 -75 9 0 17 5 17 10 0 6 6 10 14
10 8 0 22 7 31 17 9 9 20 12 23 7 4 -5 13 -10 21 -12 11 -2 12 0 3 11 -10 11
-9 17 2 26 11 9 15 8 20 -6 3 -10 10 -28 15 -40 8 -18 7 -21 -5 -16 -9 3 -12
0 -9 -8 6 -15 65 -54 77 -51 4 1 5 -5 2 -12 -3 -8 2 -17 13 -20 10 -3 26 -19
35 -35 13 -24 13 -29 2 -24 -8 3 -14 9 -14 14 0 5 -5 9 -12 9 -6 0 -5 -7 5
-18 9 -10 20 -33 23 -50 4 -17 10 -29 15 -26 5 3 6 -1 4 -8 -3 -8 6 -25 21
-38 l27 -25 -12 23 c-7 13 -10 26 -7 29 3 3 11 -6 17 -21 7 -14 18 -26 25 -26
15 0 29 -19 20 -27 -3 -3 -12 -1 -20 6 -11 9 -15 7 -19 -8 -5 -21 19 -38 27
-18 2 7 5 1 6 -13 1 -23 2 -23 10 -5 6 14 9 16 10 5 2 -8 2 -18 1 -22 0 -4 6
-28 15 -53 16 -47 12 -68 -10 -59 -8 3 -13 -5 -13 -28 -1 -18 -3 -44 -4 -58
-3 -16 0 -24 9 -23 16 4 15 -2 -3 -37 -9 -17 -12 -30 -8 -30 15 0 12 -121 -4
-159 -8 -20 -15 -38 -15 -41 1 -3 -6 -15 -14 -28 -8 -12 -13 -26 -10 -30 3 -4
0 -14 -6 -22 -8 -12 -9 -11 -4 4 6 16 4 17 -9 6 -8 -7 -15 -19 -15 -27 0 -8
-4 -12 -8 -9 -5 3 -18 -3 -28 -13 -16 -15 -22 -16 -32 -4 -9 9 -9 13 -1 13 6
0 9 7 5 15 -3 8 -1 15 5 15 6 0 8 4 4 9 -3 6 2 14 11 19 14 8 14 12 3 30 -11
17 -11 28 -1 55 15 42 15 47 -2 47 -8 0 -17 -15 -20 -33 -3 -19 -12 -41 -19
-50 -16 -22 -56 -30 -76 -15 -13 10 -14 10 -4 -1 6 -7 9 -19 7 -26 -3 -7 -1
-16 5 -20 6 -3 11 1 11 9 0 8 4 17 9 20 11 7 7 -52 -4 -62 -5 -4 -5 0 0 8 5 9
4 12 -1 7 -14 -14 -10 -41 9 -59 17 -16 17 -17 -10 -30 -15 -8 -27 -20 -26
-26 2 -7 0 -11 -5 -10 -4 0 -15 -2 -24 -6 -31 -14 -50 -3 -53 32 -2 23 3 35
16 43 42 22 72 129 36 129 -7 0 -7 4 1 12 17 17 15 43 -5 59 -15 12 -16 12 -8
-1 7 -12 3 -11 -18 3 -15 9 -27 13 -27 8 0 -6 -7 -8 -15 -5 -8 4 -17 -1 -21
-10 -4 -11 -11 -13 -24 -6 -9 5 -20 6 -24 3 -3 -3 -6 -1 -6 5 0 7 -8 12 -17
12 -14 0 -15 2 -5 9 11 6 10 10 -4 15 -12 5 -23 1 -30 -8 -6 -9 -17 -16 -23
-16 -7 0 -10 -4 -7 -8 3 -5 0 -9 -7 -9 -7 0 -24 -4 -38 -8 -21 -5 -30 -2 -43
16 -9 13 -16 32 -16 42 0 16 3 17 15 7 8 -7 15 -21 15 -31 0 -11 5 -19 10 -19
6 0 8 12 5 28 -4 20 -3 22 3 8 10 -23 22 -9 17 20 -2 10 -4 23 -4 27 -1 5 -5
6 -10 3 -5 -3 -8 8 -7 25 1 17 8 34 17 39 13 7 15 -2 17 -58 3 -76 12 -98 12
-29 0 26 5 49 13 53 6 4 9 4 5 -1 -4 -4 -3 -15 4 -22 9 -11 9 -17 -3 -24 -8
-5 -10 -9 -6 -9 13 0 51 22 60 34 6 8 10 7 14 -1 5 -15 33 -18 33 -4 0 12 -30
36 -31 25 0 -5 -4 0 -8 10 -9 23 -51 32 -63 14 -6 -10 -8 -9 -8 3 0 9 7 20 17
23 14 6 14 8 -3 20 -15 12 -19 30 -22 96 -4 72 -7 82 -26 90 -19 7 -19 9 -3
15 12 5 17 19 17 52 l0 44 -25 -18 c-24 -18 -25 -21 -22 -128 2 -106 3 -110
25 -113 30 -4 28 -22 -2 -22 -18 0 -26 -7 -29 -22 l-4 -23 -8 22 c-4 13 -13
19 -21 16 -8 -3 -14 1 -14 10 0 21 17 31 23 15 3 -7 6 0 6 16 1 23 -2 26 -12
17 -11 -8 -13 -6 -12 9 1 11 4 23 8 26 15 15 6 26 -10 13 -16 -12 -17 -12 -5
2 7 9 10 25 6 35 -5 16 -4 16 5 4 6 -8 11 -10 11 -4 0 5 -5 15 -12 22 -9 9 -9
17 1 36 7 13 10 33 6 45 -3 11 -3 21 2 21 4 0 9 26 11 58 2 43 -1 62 -13 72
-13 11 -15 3 -15 -68 0 -58 -4 -83 -15 -92 -8 -7 -15 -18 -15 -24 0 -7 -5 -17
-11 -23 -9 -9 -24 1 -61 38 -27 27 -55 49 -63 49 -7 0 -16 6 -18 13 -3 7 -6 3
-7 -8 -2 -14 -4 -11 -9 10 -4 17 -5 34 -2 40 3 5 5 19 5 30 2 40 21 24 27 -22
3 -27 7 -38 7 -27 1 12 9 28 18 35 15 12 16 9 12 -30 -3 -40 -3 -42 10 -22 21
31 34 26 27 -12 -6 -29 -3 -35 19 -45 14 -6 26 -17 26 -24 0 -9 3 -8 10 2 5 8
10 70 10 138 l0 124 66 -68 c51 -52 67 -65 74 -54 5 8 6 17 1 20 -24 17 -41
82 -36 139 5 69 0 92 -21 84 -8 -3 -11 -9 -8 -14 3 -5 -4 -9 -15 -9 -10 0 -28
-3 -38 -6 -15 -5 -15 -4 -3 5 8 6 16 15 16 21 1 5 2 15 3 20 0 6 6 10 12 10 5
0 7 -6 3 -12 -6 -10 -5 -10 8 -1 8 7 18 9 22 5 4 -4 -5 20 -20 53 -30 65 -35
112 -13 126 12 8 12 11 -1 20 -12 8 -9 9 10 3 14 -3 33 -13 42 -22z m158 8 c0
-5 -5 -10 -11 -10 -5 0 -7 5 -4 10 3 6 8 10 11 10 2 0 4 -4 4 -10z m-41 -32
c12 -20 12 -20 -18 1 -36 26 -38 31 -13 24 10 -2 24 -14 31 -25z m-944 -58
c-10 -11 -21 -18 -23 -15 -3 3 3 12 14 20 27 20 30 18 9 -5z m1130 -18 c-3 -3
-11 0 -18 7 -9 10 -8 11 6 5 10 -3 15 -9 12 -12z m-25 -11 c0 -15 -17 -22 -36
-14 -16 6 -16 7 2 14 27 11 34 10 34 0z m-335 -32 c7 -10 -21 -38 -37 -39 -10
0 -10 34 -1 43 10 10 31 8 38 -4z m439 -50 c-3 -5 -10 -7 -15 -3 -5 3 -7 10
-3 15 3 5 10 7 15 3 5 -3 7 -10 3 -15z m-1399 -69 c3 -5 1 -10 -4 -10 -6 0
-11 5 -11 10 0 6 2 10 4 10 3 0 8 -4 11 -10z m1518 -108 c2 7 4 0 4 -15 0 -15
0 -27 -1 -25 -1 2 -10 14 -21 28 -14 17 -15 21 -3 12 13 -10 17 -10 21 0z
m-933 -108 c0 -64 -3 -85 -12 -82 -8 3 -14 29 -16 73 -3 72 1 95 18 95 6 0 10
-34 10 -86z m-58 -22 c-3 -9 -8 -10 -18 -1 -17 14 -18 31 -1 48 10 10 13 7 18
-11 3 -13 4 -29 1 -36z m273 -67 c18 -9 37 -27 44 -41 14 -32 14 -47 0 -38 -7
4 -10 2 -7 -6 4 -13 -61 -90 -77 -90 -5 0 -28 21 -52 46 -40 44 -42 48 -30 78
8 18 27 38 48 48 41 22 34 21 74 3z m-166 -89 c15 -17 13 -205 -2 -223 -21
-28 -25 -8 -24 112 1 69 5 125 8 125 4 0 12 -6 18 -14z m279 -59 l-3 -32 -17
30 c-12 23 -14 35 -6 49 10 17 11 17 20 2 5 -9 8 -31 6 -49z m-200 -20 l32
-33 -35 -34 -35 -34 0 67 c0 37 1 67 3 67 2 0 17 -15 35 -33z m897 23 c3 -5 1
-10 -4 -10 -6 0 -11 5 -11 10 0 6 2 10 4 10 3 0 8 -4 11 -10z m-799 -78 c-10
-10 -29 15 -21 28 6 9 10 8 17 -4 6 -10 7 -20 4 -24z m94 -40 c-10 -4 -10 -6
0 -12 7 -4 9 -13 6 -19 -5 -8 -11 -7 -22 3 -18 18 -18 21 3 42 13 13 18 14 22
3 2 -7 -2 -15 -9 -17z m42 -103 c-4 -27 -5 -27 -27 -13 -21 14 -24 14 -27 -3
-2 -11 -6 -14 -11 -7 -3 6 7 30 23 53 17 22 31 53 31 68 1 16 5 7 8 -21 4 -26
5 -61 3 -77z m-633 84 c-7 -10 -15 -20 -16 -22 -2 -2 -3 5 -3 17 0 14 6 22 16
22 14 0 15 -3 3 -17z m41 -39 c0 -21 -26 -6 -27 17 -2 17 1 18 13 9 8 -7 14
-19 14 -26z m-95 -4 c3 -5 -1 -10 -10 -10 -9 0 -13 5 -10 10 3 6 8 10 10 10 2
0 7 -4 10 -10z m731 -8 c0 -11 -8 -18 -21 -19 -11 -1 -14 1 -7 4 6 3 12 11 12
19 0 8 4 14 8 14 4 0 8 -8 8 -18z m-801 -22 c10 -11 16 -20 13 -20 -3 0 -13 9
-23 20 -10 11 -16 20 -13 20 3 0 13 -9 23 -20z m85 -72 c0 -24 -11 -23 -33 2
-20 23 -22 34 -5 24 8 -5 9 -2 4 11 -7 18 -6 18 14 0 11 -10 20 -26 20 -37z
m50 42 c0 -5 -4 -10 -10 -10 -5 0 -10 5 -10 10 0 6 5 10 10 10 6 0 10 -4 10
-10z m318 -33 c2 -15 -1 -27 -7 -27 -16 0 -22 18 -9 24 10 5 10 7 1 12 -7 3
-13 10 -13 16 0 22 25 0 28 -25z m-258 15 c0 -4 -9 -15 -20 -25 -11 -9 -20
-13 -20 -8 0 5 -3 16 -6 25 -5 12 0 16 20 16 14 0 26 -3 26 -8z m526 -18 c-9
-8 -16 -21 -16 -27 0 -7 -4 -6 -10 3 -7 11 -5 19 7 28 24 17 37 15 19 -4z
m-96 -24 c0 -5 -4 -10 -9 -10 -6 0 -13 5 -16 10 -3 6 1 10 9 10 9 0 16 -4 16
-10z m105 -20 c-27 -12 -43 -12 -25 0 8 5 22 9 30 9 10 0 8 -3 -5 -9z m93 2
c16 -10 5 -42 -14 -42 -8 0 -14 10 -14 25 0 26 7 30 28 17z m272 -12 c0 -5 -5
-10 -11 -10 -5 0 -7 5 -4 10 3 6 8 10 11 10 2 0 4 -4 4 -10z m14 -41 c-3 -5 0
-9 7 -9 7 0 10 -3 6 -6 -3 -3 -15 0 -26 8 -12 8 -18 17 -15 21 9 9 35 -4 28
-14z m-1184 -9 c0 -5 -2 -10 -4 -10 -3 0 -8 5 -11 10 -3 6 -1 10 4 10 6 0 11
-4 11 -10z m180 -40 c0 -5 -4 -10 -10 -10 -5 0 -10 5 -10 10 0 6 5 10 10 10 6
0 10 -4 10 -10z m166 -17 c0 -12 -7 -25 -14 -28 -17 -6 -62 5 -62 15 0 5 -2
14 -5 22 -4 10 6 13 39 14 39 0 43 -2 42 -23z m459 17 c8 -13 -5 -13 -25 0
-13 8 -13 10 2 10 9 0 20 -4 23 -10z m-415 -43 c0 -5 -4 -5 -10 -2 -5 3 -10
14 -10 23 0 15 2 15 10 2 5 -8 10 -19 10 -23z m390 23 c0 -5 -4 -10 -10 -10
-5 0 -10 5 -10 10 0 6 5 10 10 10 6 0 10 -4 10 -10z m-620 -10 c0 -5 -2 -10
-4 -10 -3 0 -8 5 -11 10 -3 6 -1 10 4 10 6 0 11 -4 11 -10z m354 -38 c-7 -36
-19 -42 -21 -12 -1 11 2 20 8 20 5 0 9 8 9 17 0 9 2 14 5 11 3 -3 2 -19 -1
-36z m156 19 c0 -4 -3 -11 -7 -14 -8 -9 -34 13 -28 24 6 9 35 1 35 -10z m-480
-1 c0 -5 -4 -10 -10 -10 -5 0 -10 5 -10 10 0 6 5 10 10 10 6 0 10 -4 10 -10z
m382 -2 c-7 -7 -12 -21 -12 -32 0 -15 -3 -17 -12 -8 -9 9 -7 16 7 32 10 11 21
20 24 20 3 0 0 -5 -7 -12z m176 -13 c-3 -3 -9 2 -12 12 -6 14 -5 15 5 6 7 -7
10 -15 7 -18z m-593 -5 c3 -5 15 -10 26 -10 11 0 19 -7 19 -16 0 -8 4 -13 9
-10 5 3 11 -1 14 -9 8 -18 -32 -32 -43 -15 -6 9 -11 7 -19 -9 -7 -13 -21 -21
-36 -21 -30 0 -31 -12 -4 -56 11 -19 19 -34 16 -34 -3 0 11 -17 29 -37 29 -31
34 -44 34 -85 0 -34 -4 -50 -15 -55 -23 -8 -104 37 -135 77 -28 36 -47 90 -32
90 12 0 56 -41 70 -66 6 -10 12 -13 12 -6 0 10 5 10 20 2 11 -6 18 -14 16 -18
-3 -5 4 -9 15 -9 29 -3 35 24 11 50 -35 39 -93 137 -87 147 4 6 3 10 -2 9 -22
-4 -25 3 -9 20 10 11 24 17 32 14 8 -3 16 2 19 11 3 9 7 23 10 31 5 17 21 20
30 5z m230 -8 c-3 -3 -11 0 -18 7 -9 10 -8 11 6 5 10 -3 15 -9 12 -12z m219
-4 c16 -51 16 -67 0 -61 -11 4 -15 15 -12 34 3 16 0 31 -6 33 -7 3 -6 5 2 5 7
1 14 -5 16 -11z m66 0 c0 -4 -7 -8 -15 -8 -8 0 -15 4 -15 8 0 5 7 9 15 9 8 0
15 -4 15 -9z m219 -25 c1 5 6 5 11 2 6 -4 1 -14 -12 -25 -22 -18 -23 -18 -41
1 -17 18 -15 45 3 34 5 -3 12 0 16 7 5 8 10 6 15 -8 4 -10 8 -15 8 -11z m-414
-1 c-3 -3 -11 0 -18 7 -9 10 -8 11 6 5 10 -3 15 -9 12 -12z m195 -2 c5 8 11
12 14 10 2 -3 -2 -13 -9 -24 -15 -20 -29 -15 -46 17 l-12 22 22 -20 c19 -16
24 -17 31 -5z m65 0 c3 -5 17 -10 30 -10 19 0 22 -4 18 -21 -4 -15 -8 -17 -14
-8 -4 7 -15 14 -24 15 -13 2 -14 -1 -5 -11 18 -21 2 -38 -29 -30 l-26 7 22
-24 c22 -23 22 -24 4 -35 -20 -13 -31 -8 -31 13 0 8 7 11 18 8 12 -4 10 0 -7
14 -21 17 -22 20 -6 25 9 4 21 5 26 1 5 -3 9 -1 9 5 0 5 -9 13 -20 16 -11 4
-18 10 -15 15 3 5 12 7 20 3 11 -4 13 -1 9 11 -7 17 11 22 21 6z m-206 -34 c2
17 24 12 46 -9 11 -11 14 -17 8 -13 -9 5 -13 -1 -13 -18 0 -19 5 -26 19 -26
32 0 43 -58 16 -80 -8 -7 -15 -21 -15 -31 0 -12 -5 -16 -15 -13 -8 4 -15 12
-15 19 0 7 -8 12 -17 11 -10 -2 -26 7 -36 18 -10 12 -16 15 -12 9 4 -8 0 -13
-9 -13 -12 0 -16 10 -16 40 0 22 4 40 10 40 5 0 7 -8 3 -17 -3 -10 -2 -15 2
-10 7 6 10 17 14 60 1 5 6 5 12 1 8 -4 7 -9 -2 -16 -11 -6 -9 -8 6 -6 17 3 20
-3 20 -39 0 -24 5 -45 10 -47 6 -2 9 14 8 38 -1 22 -2 52 -2 66 -1 17 -4 21
-10 12 -6 -10 -10 -10 -21 3 -15 18 -36 20 -43 3 -4 -9 -6 -8 -6 2 -2 37 40
59 51 26 3 -12 6 -16 7 -10z m-70 -45 c1 -49 -7 -34 -13 24 -3 33 -2 43 4 30
5 -11 9 -35 9 -54z m-54 18 c4 -22 4 -43 1 -46 -3 -4 -6 6 -6 20 0 15 -9 36
-20 47 -19 19 -19 20 -1 20 15 0 21 -10 26 -41z m415 21 c-6 -11 -13 -20 -16
-20 -2 0 0 9 6 20 6 11 13 20 16 20 2 0 0 -9 -6 -20z m85 0 c3 -5 2 -10 -4
-10 -5 0 -13 5 -16 10 -3 6 -2 10 4 10 5 0 13 -4 16 -10z m-692 -17 c-4 -11
-3 -14 5 -9 7 4 12 1 12 -7 0 -8 -7 -17 -15 -21 -10 -4 -15 1 -15 14 0 14 -7
20 -21 20 -11 0 -17 5 -14 10 3 6 17 10 30 10 19 0 23 -4 18 -17z m104 -15
c-3 -8 -6 -5 -6 6 -1 11 2 17 5 13 3 -3 4 -12 1 -19z m56 5 c-3 -7 1 -20 8
-29 10 -12 10 -15 -2 -12 -28 6 -42 55 -15 55 8 0 12 -6 9 -14z m484 -5 c-3
-8 -6 -5 -6 6 -1 11 2 17 5 13 3 -3 4 -12 1 -19z m-227 3 c0 -6 -4 -13 -10
-16 -5 -3 -10 1 -10 9 0 9 5 16 10 16 6 0 10 -4 10 -9z m27 -23 c-3 -7 -5 -2
-5 12 0 14 2 19 5 13 2 -7 2 -19 0 -25z m174 -31 c-6 -6 -14 -7 -18 -3 -4 4
-1 11 7 16 13 8 12 10 -2 10 -9 0 -18 -9 -20 -20 -3 -19 -5 -20 -25 -5 -23 16
-21 45 2 45 8 0 11 -8 8 -22 -4 -23 -4 -23 9 -2 7 12 19 19 26 17 6 -3 13 4
13 14 1 10 4 5 6 -11 3 -16 0 -33 -6 -39z m89 55 c0 -5 -9 -8 -20 -7 -29 2
-33 10 -5 13 14 1 25 -2 25 -6z m-650 -14 c0 -6 3 -9 6 -5 12 12 32 -18 23
-35 -7 -12 -4 -21 12 -32 21 -14 21 -14 1 -27 -11 -7 -18 -18 -15 -26 3 -7 9
-10 14 -7 5 3 7 10 4 15 -4 5 -1 9 4 9 14 0 14 -17 1 -25 -6 -4 -7 -12 -4 -18
4 -7 -4 -2 -17 9 -13 12 -34 20 -46 19 -14 -1 -23 4 -23 12 0 8 4 12 8 9 5 -3
16 3 24 14 15 17 15 20 -1 34 -13 12 -20 13 -29 4 -6 -6 -15 -9 -18 -5 -11 10
0 18 30 21 25 3 38 21 14 21 -6 0 -13 6 -15 13 -3 6 2 12 11 12 9 0 16 -5 16
-12z m75 -18 c-3 -5 -1 -20 5 -34 10 -29 -1 -78 -14 -57 -4 6 -2 18 4 26 10
12 9 15 -3 15 -9 0 -18 4 -21 9 -9 14 13 63 24 56 6 -4 8 -10 5 -15z m612 -2
c-3 -8 -6 -5 -6 6 -1 11 2 17 5 13 3 -3 4 -12 1 -19z m-37 -10 c0 -4 -8 -12
-17 -17 -16 -9 -16 -10 5 -11 12 0 22 -4 22 -10 0 -12 -30 -13 -45 -2 -5 4
-10 16 -11 28 0 14 6 20 23 20 13 0 23 -3 23 -8z m-483 -50 c-2 -13 -4 -5 -4
17 -1 22 1 32 4 23 2 -10 2 -28 0 -40z m254 5 c6 -15 1 -22 -22 -30 -16 -6
-29 -7 -29 -2 0 5 4 9 10 9 6 0 6 9 0 26 -13 34 -13 35 12 25 12 -4 25 -17 29
-28z m422 20 c-7 -3 -13 -9 -13 -14 0 -6 4 -7 10 -4 6 3 7 -1 4 -9 -8 -20 -11
-20 -32 2 -9 9 -15 16 -13 15 2 -1 13 4 24 12 12 8 23 12 26 8 3 -3 0 -8 -6
-10z m-150 -13 c-3 -11 -7 -20 -9 -20 -2 0 -4 9 -4 20 0 11 4 20 9 20 5 0 7
-9 4 -20z m-708 0 c3 -5 -1 -10 -9 -10 -9 0 -16 5 -16 10 0 6 4 10 9 10 6 0
13 -4 16 -10z m202 -37 c-3 -10 -5 -4 -5 12 0 17 2 24 5 18 2 -7 2 -21 0 -30z
m-253 19 c3 -5 -1 -9 -9 -9 -8 0 -15 4 -15 9 0 4 4 8 9 8 6 0 12 -4 15 -8z
m712 -30 c1 -15 -1 -21 -3 -13 -5 11 -7 11 -14 0 -7 -11 -9 -10 -9 4 0 9 -4
17 -10 17 -5 0 -10 5 -10 10 0 6 10 10 23 10 17 0 22 -6 23 -28z m-141 -22
c-3 -6 -1 -18 4 -27 6 -11 11 -13 11 -5 0 7 5 10 10 7 6 -4 8 -10 5 -15 -3 -4
1 -10 7 -13 7 -2 10 -8 6 -12 -4 -4 -14 -2 -23 5 -12 10 -15 10 -15 -3 0 -8
-9 -17 -20 -20 -24 -6 -25 1 -5 27 19 26 19 42 0 26 -13 -10 -15 -9 -15 8 0
12 -5 24 -12 28 -7 5 -8 3 -3 -6 5 -9 4 -11 -3 -6 -17 10 -15 24 6 29 22 5 54
-11 47 -23z m65 16 c0 -3 -4 -8 -10 -11 -5 -3 -10 -1 -10 4 0 6 5 11 10 11 6
0 10 -2 10 -4z m-593 -38 c1 -11 7 -24 13 -28 19 -12 -8 -59 -31 -53 -15 4
-19 15 -19 50 0 25 4 42 9 38 5 -3 12 -1 16 5 9 14 11 13 12 -12z m354 -65
c-8 -15 -10 -10 -11 23 0 22 3 44 8 48 11 12 14 -52 3 -71z m60 39 c-6 -2 -11
-8 -11 -13 0 -6 4 -8 8 -5 4 2 8 -4 9 -14 2 -25 -15 -36 -30 -20 -9 10 -8 12
6 7 19 -7 23 3 7 19 -8 8 -7 20 1 40 10 25 13 26 17 9 2 -10 -1 -21 -7 -23z
m-265 16 c4 -7 3 -8 -4 -4 -8 5 -10 -3 -6 -26 5 -31 5 -32 -10 -14 -19 24 -20
43 -3 49 6 3 13 6 14 6 1 1 5 -4 9 -11z m506 -42 c-4 -7 -8 -2 -10 11 -2 15
-8 20 -20 17 -15 -5 -15 -4 -2 5 11 8 18 7 27 -6 7 -9 9 -21 5 -27z m-327 24
c3 -6 -1 -7 -9 -4 -18 7 -21 14 -7 14 6 0 13 -4 16 -10z m112 -27 c-3 -10 -5
-4 -5 12 0 17 2 24 5 18 2 -7 2 -21 0 -30z m283 7 c0 13 2 13 9 0 5 -9 3 -40
-4 -75 -10 -47 -14 -55 -18 -35 -18 80 -15 162 4 113 6 -13 8 -14 9 -3z m-90
0 c0 -5 -5 -10 -11 -10 -5 0 -7 5 -4 10 3 6 8 10 11 10 2 0 4 -4 4 -10z m-416
-16 c8 -21 8 -24 -3 -24 -5 0 -11 9 -14 20 -6 24 8 27 17 4z m112 -22 c-9 -8
-34 12 -29 24 4 12 8 11 18 -3 8 -10 12 -19 11 -21z m-56 -4 c0 -5 -4 -8 -10
-8 -5 0 -10 10 -10 23 0 18 2 19 10 7 5 -8 10 -18 10 -22z m377 -31 c1 -42 1
-42 -17 -20 -9 12 -20 19 -24 16 -3 -4 -6 0 -6 8 0 17 19 39 35 39 5 0 11 -19
12 -43z m-560 -14 c-3 -10 -5 -2 -5 17 0 19 2 27 5 18 2 -10 2 -26 0 -35z
m660 15 c-3 -7 -5 -2 -5 12 0 14 2 19 5 13 2 -7 2 -19 0 -25z m-390 16 c-3 -3
-12 -4 -19 -1 -8 3 -5 6 6 6 11 1 17 -2 13 -5z m176 -82 c-37 -54 -38 -55 -41
-28 -4 33 6 81 15 72 3 -3 13 3 20 14 8 11 19 18 24 15 5 -4 10 0 10 7 1 7 3
5 6 -6 3 -11 -11 -41 -34 -74z m-373 71 c0 -5 -5 -15 -10 -23 -8 -12 -10 -11
-10 8 0 12 5 22 10 22 6 0 10 -3 10 -7z m45 -29 c9 3 17 -11 26 -47 11 -48 14
-135 5 -145 -9 -9 -36 58 -30 75 4 13 3 14 -3 5 -7 -10 -13 -9 -25 5 -13 15
-14 27 -4 77 6 33 13 52 14 42 2 -10 10 -15 17 -12z m228 -7 c7 -20 -5 -117
-14 -111 -5 3 -9 -14 -9 -37 0 -63 -19 -36 -26 37 -5 48 -3 63 10 76 9 9 16
24 16 32 0 19 16 21 23 3z m336 -47 c1 -21 -1 -22 -13 -10 -9 10 -12 26 -9 45
5 26 7 27 14 10 4 -11 8 -31 8 -45z m-298 -45 c-9 -36 -9 -34 -6 25 4 76 7 86
12 45 2 -16 -1 -48 -6 -70z m-324 33 c-3 -8 -6 -5 -6 6 -1 11 2 17 5 13 3 -3
4 -12 1 -19z m569 -51 c1 -38 0 -45 -6 -27 -10 31 -12 96 -3 86 4 -3 8 -30 9
-59z m-349 11 c-3 -7 -5 -2 -5 12 0 14 2 19 5 13 2 -7 2 -19 0 -25z m-30 0
c-3 -8 -6 -5 -6 6 -1 11 2 17 5 13 3 -3 4 -12 1 -19z m110 0 c-3 -8 -6 -5 -6
6 -1 11 2 17 5 13 3 -3 4 -12 1 -19z m321 14 c18 -12 4 -75 -16 -67 -12 4 -12
2 -4 -8 9 -11 5 -28 -18 -73 -43 -87 -46 -90 -64 -75 -24 20 -20 161 5 161 5
0 10 -17 10 -37 l2 -38 7 35 c6 33 11 32 23 -10 2 -8 8 12 12 45 10 78 14 85
43 67z m-294 -142 c6 -43 5 -44 -9 -20 -8 14 -14 41 -14 60 0 46 14 21 23 -40z
m325 26 c1 -6 -5 -1 -13 9 -8 11 -12 24 -8 29 5 9 20 -17 21 -38z m-12 -49 c5
-39 2 -49 -20 -71 -27 -27 -43 -31 -65 -18 -10 7 -4 25 25 80 21 39 42 67 47
62 4 -4 11 -29 13 -53z m-417 37 c0 -8 -8 -23 -17 -32 -16 -16 -16 -16 -10 1
4 10 7 25 7 33 0 8 5 14 10 14 6 0 10 -7 10 -16z m38 -75 c1 -40 0 -70 -3 -67
-8 8 -15 149 -7 144 4 -2 9 -37 10 -77z"/>
<path d="M1219 2249 c-3 -42 5 -66 29 -86 15 -13 23 -23 17 -24 -5 0 0 -4 13
-9 12 -5 22 -15 22 -22 0 -9 -3 -9 -10 2 -5 8 -10 10 -10 4 0 -6 3 -14 8 -18
4 -4 7 -17 7 -29 0 -11 7 -22 15 -24 13 -4 13 -3 0 6 -8 5 -12 13 -8 16 10 11
40 -27 35 -46 -3 -12 2 -19 17 -23 25 -6 30 -34 9 -54 -11 -11 -13 -11 -13 2
0 9 -5 16 -11 16 -6 0 -9 -7 -6 -14 4 -9 -2 -17 -14 -21 -10 -4 -16 -11 -13
-17 4 -6 10 -6 17 1 7 7 16 7 31 -1 28 -15 46 -34 39 -42 -11 -10 -41 -7 -55
7 -20 20 -46 27 -51 14 -4 -14 54 -93 91 -121 15 -11 29 -23 32 -26 3 -3 18
-7 33 -8 38 -3 50 -11 42 -29 -4 -13 -3 -14 10 -3 12 10 15 10 15 0 0 -8 3
-10 7 -6 5 4 0 13 -10 21 -15 11 -15 14 -2 25 12 10 12 14 0 26 -7 8 -22 14
-33 14 -22 0 -47 25 -57 58 -6 22 -5 23 14 12 12 -6 19 -15 16 -20 -10 -17 8
-40 32 -40 24 0 24 1 11 23 -9 14 -12 31 -7 47 6 20 7 21 8 5 1 -16 4 -15 17
10 20 39 21 40 37 26 12 -9 18 -6 31 14 14 22 15 25 1 25 -8 0 -15 4 -15 9 0
5 10 7 23 4 l22 -5 -21 19 c-12 10 -21 28 -20 40 2 13 -2 19 -10 16 -7 -3 -10
-12 -6 -21 5 -14 4 -15 -10 -2 -16 15 -13 44 3 34 5 -3 9 -1 9 3 0 5 9 9 20 9
11 0 20 -4 20 -8 0 -4 5 -8 10 -8 6 0 10 7 10 16 0 12 -6 15 -22 11 -12 -4
-27 -2 -34 4 -8 7 -14 7 -19 -1 -3 -5 -13 -10 -22 -10 -12 0 -13 3 -3 15 6 8
15 13 18 12 4 -1 8 1 10 6 5 16 1 19 -13 7 -10 -8 -19 -9 -27 -3 -22 18 -46
12 -40 -10 4 -15 0 -18 -19 -15 -24 3 -49 20 -49 34 0 3 6 2 13 -4 8 -7 18 -7
27 -2 9 6 10 10 3 10 -6 0 -29 10 -50 22 -20 12 -43 23 -51 25 -15 2 -82 70
-82 83 0 4 -7 13 -15 20 -12 10 -15 10 -16 -1z m226 -212 c-29 -17 -52 -18
-58 -4 -3 9 8 13 37 14 35 2 38 0 21 -10z"/>
<path d="M1625 2030 c3 -5 8 -10 11 -10 2 0 4 5 4 10 0 6 -5 10 -11 10 -5 0
-7 -4 -4 -10z"/>
<path d="M1588 1899 c-38 -20 -50 -39 -24 -39 7 0 19 -7 26 -15 16 -19 33 -5
24 19 -5 14 -9 15 -15 4 -7 -10 -9 -9 -9 5 0 18 15 23 25 7 9 -14 35 0 35 19
0 14 -2 14 -10 1 -9 -13 -14 -7 -11 13 1 9 2 9 -41 -14z"/>
<path d="M1221 1844 c0 -27 3 -42 6 -34 3 8 12 22 19 31 12 14 11 18 -6 34
-20 18 -20 18 -19 -31z"/>
<path d="M1676 1856 c21 -15 30 -14 19 3 -3 6 -14 11 -23 11 -13 0 -13 -2 4
-14z"/>
<path d="M1521 1833 c1 -17 18 -47 18 -34 1 7 7 11 16 7 18 -7 20 5 3 22 -13
13 -38 16 -37 5z"/>
<path d="M1673 1829 c9 -6 15 -15 12 -20 -4 -5 -11 -6 -17 -3 -6 4 -8 2 -4 -4
3 -6 -2 -16 -11 -22 -17 -11 -17 -11 0 -6 19 6 24 -10 5 -17 -12 -5 17 -11 35
-8 5 1 5 -4 2 -10 -4 -6 -15 -9 -25 -6 -11 3 -21 -1 -24 -8 -3 -9 2 -11 17 -7
41 9 65 42 32 42 -8 0 -15 5 -15 10 0 6 6 10 13 10 9 0 8 3 -2 9 -11 7 -11 9
0 13 12 4 12 7 0 21 -7 10 -19 17 -25 17 -6 0 -3 -5 7 -11z"/>
<path d="M1290 1778 c0 -34 5 -50 18 -57 16 -10 16 -10 0 -11 -15 0 -18 -10
-18 -69 0 -78 17 -107 54 -97 12 4 35 9 51 12 47 9 74 25 78 48 3 17 5 16 6
-5 1 -31 -30 -55 -70 -54 -14 1 -31 -5 -37 -11 -9 -10 -5 -14 18 -19 21 -5 32
-14 36 -31 5 -20 9 -22 20 -13 11 9 14 9 14 0 0 -7 10 -25 22 -41 19 -27 22
-28 34 -12 15 21 26 11 29 -25 4 -65 6 -70 15 -43 8 24 8 24 9 3 1 -21 21 -34
21 -14 0 5 10 11 22 14 19 5 20 8 7 23 -7 9 -12 27 -11 40 2 15 -5 28 -22 40
-29 18 -35 44 -11 44 12 0 14 4 7 16 -12 21 -3 64 13 64 19 0 27 29 12 44 -6
6 -24 11 -39 9 -18 -1 -33 5 -42 19 -17 24 -46 18 -46 -9 0 -15 -2 -14 -15 5
-12 16 -13 27 -6 41 6 10 7 21 4 25 -12 11 -32 6 -35 -10 -2 -11 -24 5 -70 52
l-68 68 0 -46z m55 -198 c3 -5 1 -10 -4 -10 -6 0 -11 5 -11 10 0 6 2 10 4 10
3 0 8 -4 11 -10z m165 -16 c0 -8 -4 -12 -10 -9 -5 3 -10 10 -10 16 0 5 5 9 10
9 6 0 10 -7 10 -16z m20 -60 c0 -8 -4 -12 -10 -9 -5 3 -10 10 -10 16 0 5 5 9
10 9 6 0 10 -7 10 -16z"/>
<path d="M1758 1758 c5 -7 8 -24 6 -38 -3 -17 -1 -21 5 -12 6 10 10 8 14 -9 4
-13 9 -20 12 -17 4 3 1 17 -6 30 -13 23 -15 29 -18 48 0 6 -6 10 -12 10 -8 0
-8 -4 -1 -12z"/>
<path d="M1580 1731 c-12 -23 2 -29 28 -12 10 6 10 10 -2 20 -12 10 -17 8 -26
-8z"/>
<path d="M1611 1684 c0 -11 3 -14 6 -6 3 7 2 16 -1 19 -3 4 -6 -2 -5 -13z"/>
<path d="M1687 1673 c-9 -36 -7 -93 3 -93 5 0 10 -8 10 -17 0 -14 -2 -15 -9
-5 -7 11 -9 11 -14 -1 -5 -14 10 -37 25 -37 4 0 8 9 8 19 0 11 4 22 9 25 13 8
23 71 15 100 -7 30 -40 36 -47 9z"/>
<path d="M1626 1645 c-3 -8 -1 -15 4 -15 6 0 10 7 10 15 0 8 -2 15 -4 15 -2 0
-6 -7 -10 -15z"/>
<path d="M1616 1554 c-9 -24 -7 -34 8 -34 16 0 29 27 20 41 -8 14 -21 11 -28
-7z"/>
<path d="M1438 1431 c11 -7 11 -9 -2 -14 -9 -4 -16 -13 -16 -22 0 -24 20 -17
30 11 13 33 13 34 -7 34 -14 0 -15 -2 -5 -9z"/>
<path d="M1510 1370 c0 -5 5 -10 11 -10 5 0 7 5 4 10 -3 6 -8 10 -11 10 -2 0
-4 -4 -4 -10z"/>
<path d="M1740 1365 c-7 -8 -9 -22 -5 -32 6 -14 9 -15 12 -4 4 10 7 10 13 1 5
-8 9 -5 13 10 4 17 2 20 -10 16 -11 -4 -13 -2 -9 9 7 19 2 19 -14 0z"/>
<path d="M456 1067 c-16 -12 -16 -13 3 -13 12 0 21 6 21 13 0 7 -1 13 -3 13
-2 0 -11 -6 -21 -13z"/>
<path d="M850 956 c0 -31 6 -34 13 -6 3 11 1 23 -4 26 -5 3 -9 -6 -9 -20z"/>
<path d="M906 961 c-3 -4 6 -8 20 -9 13 -1 24 0 24 2 0 7 -40 14 -44 7z"/>
<path d="M792 660 c0 -14 2 -19 5 -12 2 6 2 18 0 25 -3 6 -5 1 -5 -13z"/>
<path d="M891 2233 c7 -10 15 -20 16 -22 2 -2 3 5 3 17 0 14 -6 22 -16 22 -14
0 -15 -3 -3 -17z"/>
<path d="M805 2230 c-3 -5 -2 -10 4 -10 5 0 13 5 16 10 3 6 2 10 -4 10 -5 0
-13 -4 -16 -10z"/>
<path d="M749 2175 c-1 -3 -2 -11 -3 -17 -1 -7 -8 -12 -16 -10 -11 3 -11 1 0
-14 9 -10 16 -12 18 -5 2 6 12 11 22 11 23 0 34 26 14 34 -19 7 -34 8 -35 1z"/>
<path d="M805 2110 c-3 -5 -1 -10 4 -10 6 0 11 5 11 10 0 6 -2 10 -4 10 -3 0
-8 -4 -11 -10z"/>
<path d="M83 1708 c1 -20 5 -34 10 -31 10 6 9 35 -3 53 -6 10 -9 4 -7 -22z"/>
<path d="M74 1618 c-1 -24 1 -34 3 -24 4 15 7 16 14 5 7 -10 9 -3 6 20 -5 50
-23 49 -23 -1z"/>
<path d="M91 1554 c0 -11 3 -14 6 -6 3 7 2 16 -1 19 -3 4 -6 -2 -5 -13z"/>
<path d="M107 1540 c-3 -11 -1 -20 4 -20 5 0 9 9 9 20 0 11 -2 20 -4 20 -2 0
-6 -9 -9 -20z"/>
<path d="M81 1514 c0 -11 3 -14 6 -6 3 7 2 16 -1 19 -3 4 -6 -2 -5 -13z"/>
<path d="M887 1303 c-4 -3 -7 -11 -7 -17 0 -6 5 -5 12 2 6 6 9 14 7 17 -3 3
-9 2 -12 -2z"/>
<path d="M1504 815 c31 -29 46 -50 42 -60 -3 -8 -1 -15 4 -15 24 0 6 41 -35
79 -24 22 -48 41 -51 41 -4 0 14 -20 40 -45z"/>
<path d="M1462 800 c0 -14 2 -19 5 -12 2 6 2 18 0 25 -3 6 -5 1 -5 -13z"/>
<path d="M599 703 c-13 -16 -12 -17 4 -4 9 7 17 15 17 17 0 8 -8 3 -21 -13z"/>
<path d="M840 460 c0 -5 5 -10 11 -10 5 0 7 5 4 10 -3 6 -8 10 -11 10 -2 0 -4
-4 -4 -10z"/>
<path d="M701 161 c-19 -25 -27 -40 -17 -32 20 17 60 71 55 75 -2 2 -19 -18
-38 -43z"/>
<path d="M1081 64 c0 -11 3 -14 6 -6 3 7 2 16 -1 19 -3 4 -6 -2 -5 -13z"/>
</g>
</svg>
