<?xml version="1.0" standalone="no"?>
<!DOCTYPE svg PUBLIC "-//W3C//DTD SVG 20010904//EN"
 "http://www.w3.org/TR/2001/REC-SVG-20010904/DTD/svg10.dtd">
<svg version="1.0" xmlns="http://www.w3.org/2000/svg"
 width="64.000000pt" height="64.000000pt" viewBox="0 0 64.000000 64.000000"
 preserveAspectRatio="xMidYMid meet">

<g transform="translate(0.000000,64.000000) scale(0.100000,-0.100000)"
fill="#000000" stroke="none">
<path d="M32 608 c-17 -17 -17 -559 0 -576 16 -16 90 -16 106 0 17 17 17 559
0 576 -7 7 -30 12 -53 12 -23 0 -46 -5 -53 -12z"/>
<path d="M380 484 c-101 -74 -188 -141 -193 -149 -4 -8 -4 -21 0 -29 12 -22
376 -286 393 -286 38 0 40 17 40 300 0 283 -2 300 -39 300 -9 0 -99 -61 -201
-136z"/>
</g>
</svg>
