<?xml version="1.0" standalone="no"?>
<!DOCTYPE svg PUBLIC "-//W3C//DTD SVG 20010904//EN"
 "http://www.w3.org/TR/2001/REC-SVG-20010904/DTD/svg10.dtd">
<svg version="1.0" xmlns="http://www.w3.org/2000/svg"
 width="64.000000pt" height="64.000000pt" viewBox="0 0 64.000000 64.000000"
 preserveAspectRatio="xMidYMid meet">

<g transform="translate(0.000000,64.000000) scale(0.100000,-0.100000)"
fill="#000000" stroke="none">
<path d="M71 571 c-20 -20 -21 -32 -21 -249 0 -246 4 -264 51 -264 17 0 77 39
177 116 200 154 200 138 3 289 -82 63 -158 118 -169 121 -14 5 -28 0 -41 -13z"/>
<path d="M502 578 c-17 -17 -17 -499 0 -516 15 -15 61 -15 76 0 17 17 17 499
0 516 -7 7 -24 12 -38 12 -14 0 -31 -5 -38 -12z"/>
</g>
</svg>
