<?xml version="1.0" standalone="no"?>
<!DOCTYPE svg PUBLIC "-//W3C//DTD SVG 20010904//EN"
 "http://www.w3.org/TR/2001/REC-SVG-20010904/DTD/svg10.dtd">
<svg version="1.0" xmlns="http://www.w3.org/2000/svg"
 width="64.000000pt" height="64.000000pt" viewBox="0 0 64.000000 64.000000"
 preserveAspectRatio="xMidYMid meet">

<g transform="translate(0.000000,64.000000) scale(0.100000,-0.100000)"
fill="#000000" stroke="none">
<path d="M480 623 c0 -9 12 -30 27 -45 l27 -28 -216 0 c-213 0 -215 0 -241
-24 -30 -28 -40 -68 -35 -146 2 -41 7 -55 18 -55 12 0 16 16 18 75 5 114 -5
110 245 110 l211 0 -27 -28 c-29 -30 -35 -52 -14 -52 15 0 107 91 107 106 0
14 -95 104 -110 104 -5 0 -10 -8 -10 -17z"/>
<path d="M567 314 c-4 -4 -7 -40 -7 -79 0 -108 6 -105 -245 -105 l-209 0 27
28 c29 30 35 52 14 52 -15 0 -107 -91 -107 -106 0 -14 95 -104 110 -104 19 0
10 34 -17 62 l-27 28 216 0 c214 0 215 0 241 24 33 30 39 55 35 136 -3 58 -14
81 -31 64z"/>
</g>
</svg>
