<?xml version="1.0" standalone="no"?>
<!DOCTYPE svg PUBLIC "-//W3C//DTD SVG 20010904//EN"
 "http://www.w3.org/TR/2001/REC-SVG-20010904/DTD/svg10.dtd">
<svg version="1.0" xmlns="http://www.w3.org/2000/svg"
 width="64.000000pt" height="64.000000pt" viewBox="0 0 64.000000 64.000000"
 preserveAspectRatio="xMidYMid meet">

<g transform="translate(0.000000,64.000000) scale(0.100000,-0.100000)"
fill="#000000" stroke="none">
<path d="M487 593 c-4 -3 -7 -21 -7 -40 0 -30 -3 -33 -29 -33 -41 0 -81 -17
-113 -48 -33 -31 -34 -37 -7 -81 l20 -34 19 31 c22 36 48 52 84 52 21 0 25 -5
28 -37 2 -20 8 -38 14 -40 13 -4 144 103 144 117 0 10 -127 120 -139 120 -4 0
-11 -3 -14 -7z"/>
<path d="M0 480 l0 -40 69 0 c86 0 96 -8 176 -140 88 -144 129 -180 204 -180
27 0 30 -3 33 -37 2 -20 8 -38 14 -40 13 -4 144 103 144 117 0 14 -131 121
-144 117 -6 -2 -12 -20 -14 -40 -3 -33 -6 -37 -32 -37 -40 0 -68 29 -135 140
-98 159 -126 180 -245 180 l-70 0 0 -40z"/>
<path d="M195 261 c-13 -42 -53 -61 -126 -61 l-69 0 0 -40 0 -40 70 0 c79 0
124 15 159 53 21 24 23 29 11 56 -18 44 -37 57 -45 32z"/>
</g>
</svg>
