<?xml version="1.0" standalone="no"?>
<!DOCTYPE svg PUBLIC "-//W3C//DTD SVG 20010904//EN"
 "http://www.w3.org/TR/2001/REC-SVG-20010904/DTD/svg10.dtd">
<svg version="1.0" xmlns="http://www.w3.org/2000/svg"
 width="512.000000pt" height="512.000000pt" viewBox="0 0 512.000000 512.000000"
 preserveAspectRatio="xMidYMid meet">

<g transform="translate(0.000000,512.000000) scale(0.100000,-0.100000)"
fill="#000000" stroke="none">
<path d="M2393 4935 c-32 -16 -61 -41 -79 -67 l-29 -41 -3 -772 -2 -771 23
-45 c13 -24 43 -57 66 -74 l43 -30 394 -3 394 -3 0 -164 0 -165 -182 0 c-165
0 -186 -2 -226 -21 -66 -32 -82 -66 -82 -171 l0 -88 911 0 911 0 -4 94 c-3 93
-4 96 -38 131 -19 19 -50 40 -70 45 -19 5 -113 10 -207 10 l-173 0 0 165 0
165 378 0 c416 0 423 1 484 66 60 64 58 34 58 849 0 815 2 785 -58 849 -15 16
-45 37 -67 47 -38 18 -93 19 -1216 19 l-1175 0 -51 -25z m2336 -189 c8 -9 10
-182 9 -627 l-3 -614 -1115 0 -1115 0 -3 614 c-1 445 1 618 9 627 10 12 195
14 1109 14 914 0 1099 -2 1109 -14z"/>
<path d="M1590 4457 c-13 -7 -29 -25 -34 -40 -16 -46 3 -78 69 -117 l59 -35
-393 -5 -393 -5 -19 -24 c-18 -22 -19 -45 -19 -478 l0 -454 25 -24 c26 -27 70
-32 96 -12 37 29 39 47 39 446 l0 391 333 0 332 0 -53 -31 c-28 -17 -59 -40
-67 -52 -46 -66 23 -146 98 -113 79 35 372 214 390 238 23 30 18 67 -13 95
-27 26 -393 233 -410 233 -8 0 -26 -6 -40 -13z"/>
<path d="M233 2905 c-18 -8 -42 -29 -53 -47 -20 -33 -20 -44 -18 -1330 l3
-1298 33 -32 32 -33 684 0 c670 0 684 0 706 20 52 46 50 -8 50 1357 0 1192 -1
1275 -18 1308 -24 49 -71 70 -159 70 l-72 0 -21 -72 c-41 -142 -52 -168 -77
-188 -25 -19 -40 -20 -407 -20 -416 0 -410 -1 -439 58 -8 15 -26 71 -42 125
l-28 97 -71 0 c-39 -1 -86 -7 -103 -15z m916 -2301 c28 -35 26 -67 -3 -101
l-24 -28 -168 -3 c-192 -4 -248 2 -275 29 -26 26 -25 83 1 109 19 19 33 20
234 20 l215 0 20 -26z"/>
<path d="M585 2884 c3 -20 10 -47 15 -60 l10 -24 304 0 305 0 16 52 c8 28 15
55 15 60 0 4 -151 8 -336 8 l-336 0 7 -36z"/>
<path d="M4125 2235 l-25 -24 0 -596 0 -595 -792 0 -793 0 55 31 c30 17 61 38
68 47 13 17 16 60 6 87 -9 22 -61 47 -85 40 -26 -9 -379 -213 -401 -232 -26
-24 -24 -85 5 -110 37 -33 392 -233 414 -233 11 0 32 9 47 21 20 16 26 29 26
58 0 42 -17 62 -90 104 l-45 27 848 0 848 0 24 25 25 24 0 649 c0 642 0 650
-21 676 -28 35 -80 36 -114 1z"/>
</g>
</svg>
