<?xml version="1.0" standalone="no"?>
<!DOCTYPE svg PUBLIC "-//W3C//DTD SVG 20010904//EN"
 "http://www.w3.org/TR/2001/REC-SVG-20010904/DTD/svg10.dtd">
<svg version="1.0" xmlns="http://www.w3.org/2000/svg"
 width="512.000000pt" height="512.000000pt" viewBox="0 0 512.000000 512.000000"
 preserveAspectRatio="xMidYMid meet">

<g transform="translate(0.000000,512.000000) scale(0.100000,-0.100000)"
fill="#000000" stroke="none">
<path d="M725 4672 c-120 -41 -205 -117 -258 -230 l-32 -67 -3 -507 c-3 -486
-2 -509 17 -545 67 -132 231 -163 334 -65 64 60 62 44 67 547 l5 460 460 5
c503 5 487 3 547 67 98 103 67 267 -64 334 -35 18 -64 19 -530 19 -441 -1
-498 -2 -543 -18z"/>
<path d="M3325 4674 c-133 -71 -166 -234 -67 -337 60 -64 44 -62 547 -67 l460
-5 5 -460 c5 -503 3 -487 67 -547 110 -105 301 -55 343 89 8 26 10 193 8 534
l-3 495 -37 75 c-46 93 -112 158 -206 202 l-67 32 -510 2 c-451 2 -513 1 -540
-13z"/>
<path d="M560 1904 c-45 -20 -87 -59 -111 -107 -19 -36 -20 -59 -17 -545 l3
-508 37 -75 c46 -93 112 -158 206 -202 l67 -32 495 -3 c340 -2 507 0 533 8
144 42 194 233 89 343 -60 64 -44 62 -547 67 l-460 5 -5 460 c-5 503 -3 487
-67 547 -58 56 -151 73 -223 42z"/>
<path d="M4400 1904 c-42 -18 -86 -58 -108 -99 -15 -26 -18 -86 -22 -490 l-5
-460 -460 -5 c-503 -5 -487 -3 -547 -67 -98 -103 -67 -267 65 -334 36 -19 59
-20 545 -17 l507 3 67 32 c94 44 160 109 206 202 l37 75 3 508 c3 486 2 509
-17 545 -53 103 -172 150 -271 107z"/>
</g>
</svg>
