<?xml version="1.0" standalone="no"?>
<!DOCTYPE svg PUBLIC "-//W3C//DTD SVG 20010904//EN"
 "http://www.w3.org/TR/2001/REC-SVG-20010904/DTD/svg10.dtd">
<svg version="1.0" xmlns="http://www.w3.org/2000/svg"
 width="512.000000pt" height="512.000000pt" viewBox="0 0 512.000000 512.000000"
 preserveAspectRatio="xMidYMid meet">

<g transform="translate(0.000000,512.000000) scale(0.100000,-0.100000)"
fill="#000000" stroke="none">
<path d="M1125 4034 c-171 -41 -336 -174 -414 -334 -54 -110 -75 -209 -68
-320 16 -242 154 -446 368 -544 142 -65 52 -61 1554 -61 1299 0 1373 1 1435
18 273 77 459 307 477 587 19 300 -194 586 -487 654 -95 23 -2772 22 -2865 0z
m2810 -431 c77 -41 115 -105 115 -193 0 -84 -53 -161 -132 -194 -33 -14 -187
-16 -1358 -16 -1171 0 -1325 2 -1358 16 -79 33 -132 110 -132 194 0 105 56
179 160 211 14 4 619 7 1345 6 l1320 -2 40 -22z"/>
<path d="M898 2336 c-93 -33 -140 -95 -146 -190 -5 -71 15 -121 65 -168 65
-62 -56 -58 1743 -58 1799 0 1678 -4 1743 58 51 48 70 97 65 168 -5 78 -41
136 -108 174 l-45 25 -1640 2 c-1350 2 -1647 0 -1677 -11z"/>
<path d="M874 1476 c-43 -19 -101 -81 -115 -123 -30 -92 7 -198 88 -253 l37
-25 1676 0 1677 0 39 27 c21 15 50 44 64 65 21 31 25 48 25 113 0 65 -4 82
-25 113 -14 21 -43 50 -64 65 l-39 27 -1666 2 c-1380 2 -1671 0 -1697 -11z"/>
</g>
</svg>
