<?xml version="1.0" standalone="no"?>
<!DOCTYPE svg PUBLIC "-//W3C//DTD SVG 20010904//EN"
 "http://www.w3.org/TR/2001/REC-SVG-20010904/DTD/svg10.dtd">
<svg version="1.0" xmlns="http://www.w3.org/2000/svg"
 width="512.000000pt" height="512.000000pt" viewBox="0 0 512.000000 512.000000"
 preserveAspectRatio="xMidYMid meet">

<g transform="translate(0.000000,512.000000) scale(0.100000,-0.100000)"
fill="#000000" stroke="none">
<path d="M1210 5113 c-14 -2 -54 -13 -90 -24 -192 -60 -354 -229 -417 -434
-17 -57 -18 -148 -18 -2095 0 -1947 1 -2038 18 -2095 52 -169 182 -327 327
-397 149 -72 70 -68 1530 -68 1457 0 1381 -3 1529 67 143 68 276 229 328 398
17 57 18 148 18 2095 0 1947 -1 2038 -18 2095 -33 108 -86 195 -167 276 -81
81 -147 123 -250 161 l-65 23 -1350 1 c-742 1 -1361 0 -1375 -3z m2726 -365
c59 -31 108 -84 138 -147 l21 -46 0 -1765 0 -1765 -1535 0 -1535 0 0 1765 0
1765 21 46 c40 86 113 149 199 170 17 4 617 6 1335 6 l1305 -2 51 -27z m160
-4130 c-13 -114 -67 -197 -160 -246 l-51 -27 -1325 0 -1325 0 -51 27 c-93 49
-147 132 -160 246 l-7 62 1543 0 1543 0 -7 -62z"/>
<path d="M1805 4016 c-37 -16 -70 -52 -84 -89 -8 -19 -11 -344 -11 -1030 l0
-1002 23 -40 c14 -26 38 -48 67 -63 92 -47 53 -68 935 484 531 332 803 507
817 527 29 40 36 132 15 173 -8 16 -26 39 -39 50 -22 21 -1517 958 -1577 989
-36 18 -105 19 -146 1z m803 -813 l484 -302 -39 -24 c-21 -13 -220 -138 -443
-277 -223 -139 -440 -275 -482 -302 l-78 -48 0 651 0 651 38 -23 c20 -13 255
-159 520 -326z"/>
</g>
</svg>
